<?xml version="1.0" standalone="no"?>
<!DOCTYPE svg PUBLIC "-//W3C//DTD SVG 1.1//EN" "http://www.w3.org/Graphics/SVG/1.1/DTD/svg11.dtd" >
<svg xmlns="http://www.w3.org/2000/svg" xmlns:xlink="http://www.w3.org/1999/xlink" version="1.1">
<metadata>
Created by FontForge 20190801 at Tue Dec 18 19:52:17 2018
 By www-data
Copyright (c) The Font Bureau, Inc., 2008. All rights reserved.
</metadata>
<defs>
<font id="BentonSansBook" horiz-adv-x="1331" >
  <font-face 
    font-family="BentonSansBook"
    font-weight="350"
    font-stretch="normal"
    units-per-em="2048"
    panose-1="2 0 4 4 2 0 0 2 0 4"
    ascent="1612"
    descent="-436"
    x-height="1079"
    cap-height="1516"
    bbox="-197 -485 2697 1965"
    underline-thickness="50"
    underline-position="-150"
    unicode-range="U+0020-FB04"
  />
<missing-glyph horiz-adv-x="1024" 
 />
    <glyph glyph-name="uniFB00" unicode="ff" horiz-adv-x="1280" 
d="M244 958h-189v121h189v162q0 137 77 207t226 70q20 0 42.5 -1.5t35.5 -3.5v-118q-13 3 -33 3.5t-37 0.5q-77 0 -123.5 -36.5t-46.5 -119.5v-164h459v158q0 137 77.5 209t233.5 72q19 0 43.5 -1.5t36.5 -3.5v-118q-12 2 -33.5 3t-38.5 1q-38 0 -70.5 -8t-56.5 -26
t-37.5 -48t-13.5 -74v-164h238v-121h-238v-958h-141v958h-459v-958h-141v958z" />
    <glyph glyph-name="uniFB01" unicode="fi" horiz-adv-x="1176" 
d="M244 958h-189v121h189v162q0 137 77 207t226 70q18 0 41.5 -1.5t36.5 -3.5v-118q-13 2 -33 3t-37 1q-77 0 -123.5 -37t-46.5 -119v-164h229v-121h-229v-958h-141v958zM844 1079h141v-1079h-141v1079zM840 1481h149v-154h-149v154z" />
    <glyph glyph-name="uniFB02" unicode="fl" horiz-adv-x="1176" 
d="M244 958h-189v121h189v162q0 137 77 207t226 70q18 0 41.5 -1.5t36.5 -3.5v-118q-13 2 -33 3t-37 1q-77 0 -123.5 -37t-46.5 -119v-164h229v-121h-229v-958h-141v958zM844 1516h141v-1516h-141v1516z" />
    <glyph glyph-name="uniFB03" unicode="ffi" horiz-adv-x="1759" 
d="M244 958h-189v121h189v162q0 137 77 207t226 70q20 0 42.5 -1.5t35.5 -3.5v-118q-13 2 -33 3t-37 1q-77 0 -123.5 -37t-46.5 -119v-164h459v158q0 137 78 209t225 72q18 0 41.5 -1.5t36.5 -3.5v-118q-13 2 -32.5 3t-35.5 1q-78 0 -125 -37t-47 -119v-164h229v-121h-229
v-958h-141v958h-459v-958h-141v958zM1444 1079h141v-1079h-141v1079zM1440 1481h149v-154h-149v154z" />
    <glyph glyph-name="uniFB04" unicode="ffl" horiz-adv-x="1759" 
d="M244 958h-189v121h189v162q0 137 77 207t226 70q20 0 42.5 -1.5t35.5 -3.5v-118q-13 2 -33 3t-37 1q-77 0 -123.5 -37t-46.5 -119v-164h459v158q0 137 78 209t225 72q18 0 41.5 -1.5t36.5 -3.5v-118q-13 2 -32.5 3t-35.5 1q-78 0 -125 -37t-47 -119v-164h229v-121h-229
v-958h-141v958h-459v-958h-141v958zM1444 1513h141v-1513h-141v1513z" />
    <glyph glyph-name="f_j.liga" unicode="fj" horiz-adv-x="1176" 
d="M244 958h-189v121h189v162q0 137 77 207t226 70q18 0 41.5 -1.5t36.5 -3.5v-118q-13 2 -33 3t-37 1q-77 0 -123.5 -37t-46.5 -119v-164h229v-121h-229v-958h-141v958zM758 -412q-8 0 -20 0.5t-24 1.5q-13 2 -24 3.5t-16 3.5v112q14 -3 30.5 -5.5t34.5 -2.5q48 0 76.5 29
t28.5 92v1257h141v-1259q0 -56 -12 -99t-39 -73q-27 -29 -70.5 -44.5t-105.5 -15.5zM840 1481h149v-154h-149v154z" />
    <glyph glyph-name=".notdef" horiz-adv-x="1024" 
 />
    <glyph glyph-name=".null" horiz-adv-x="0" 
 />
    <glyph glyph-name="nonmarkingreturn" horiz-adv-x="682" 
 />
    <glyph glyph-name="space" unicode=" " horiz-adv-x="463" 
 />
    <glyph glyph-name="space" unicode="&#xa0;" horiz-adv-x="463" 
 />
    <glyph glyph-name="exclam" unicode="!" horiz-adv-x="641" 
d="M233 1516h177l-45 -1102h-84zM233 190h179v-190h-179v190z" />
    <glyph glyph-name="quotedbl" unicode="&#x22;" horiz-adv-x="829" 
d="M518 1403v113h144v-113l-35 -402h-74zM168 1403v113h141v-113l-35 -402h-71z" />
    <glyph glyph-name="numbersign" unicode="#" horiz-adv-x="1450" 
d="M328 444h-238v117h262l82 393h-256v117h281l94 445h131l-92 -445h391l94 445h131l-94 -445h246v-117h-268l-84 -393h264v-117h-287l-94 -444h-131l92 444h-391l-94 -444h-131zM877 561l81 393h-391l-84 -393h394z" />
    <glyph glyph-name="dollar" unicode="$" horiz-adv-x="1325" 
d="M604 -8q-101 7 -180 36t-138 71q-60 41 -100.5 88.5t-64.5 91.5l108 71q34 -51 71.5 -93t83.5 -72q46 -31 101 -50t123 -24v624q-88 27 -168 59t-141 79q-61 46 -97 112.5t-36 161.5q0 76 29.5 143.5t85.5 118.5t137.5 82.5t185.5 36.5v149h113v-151q84 -9 149.5 -33
t115.5 -59q49 -35 85 -77t63 -87l-108 -78q-29 45 -58 81t-65 63q-36 26 -81 42.5t-105 22.5v-559q91 -27 178 -59.5t155 -81.5q67 -50 108.5 -123.5t41.5 -182.5q0 -86 -33 -157.5t-94 -123.5q-62 -53 -151 -85t-201 -39v-180h-113v182zM713 113q70 4 132 20t109 48
q46 32 73.5 82t27.5 122q0 73 -27.5 124t-73.5 88q-47 36 -109 61t-132 47v-592zM608 1405q-78 -4 -135.5 -25t-94.5 -54q-37 -34 -55 -77.5t-18 -91.5q0 -62 23.5 -107t65.5 -77q41 -33 96 -57t118 -44v533z" />
    <glyph glyph-name="percent" unicode="%" horiz-adv-x="1987" 
d="M467 627q-82 0 -145.5 33t-106.5 93q-43 59 -65.5 141.5t-22.5 182.5q0 105 24 190.5t69 145.5q44 60 107.5 92.5t141.5 32.5t141 -32t107 -91q43 -60 66.5 -143.5t23.5 -186.5q0 -100 -23 -184t-66 -145q-44 -61 -107 -95t-144 -34zM1520 -20q-83 0 -146 33t-106 93
q-44 59 -66 141.5t-22 182.5q0 105 24 190t69 145q44 60 107.5 92t141.5 32t141 -32t107 -91q43 -59 66.5 -142.5t23.5 -187.5q0 -99 -23 -182.5t-66 -144.5q-44 -61 -107 -95t-144 -34zM1520 92q51 0 90.5 26.5t65.5 72.5t39.5 108.5t13.5 134.5q0 77 -13.5 140t-39.5 108
q-27 45 -66 69.5t-90 24.5q-53 0 -92.5 -26t-65.5 -71q-26 -46 -39.5 -108.5t-13.5 -134.5q0 -77 13.5 -140.5t40.5 -108.5q26 -45 65.5 -70t91.5 -25zM469 741q51 0 90 26t66 72q26 46 39.5 108t13.5 134q0 77 -14 140t-41 108t-66 69.5t-90 24.5t-90.5 -26t-66.5 -71
q-27 -46 -40.5 -107.5t-13.5 -133.5q0 -77 14 -140.5t41 -108.5t67 -70t91 -25zM1380 1516h131l-905 -1516h-131z" />
    <glyph glyph-name="ampersand" unicode="&#x26;" horiz-adv-x="1477" 
d="M584 -29q-126 0 -220 29t-157 82t-94 127.5t-31 165.5q0 83 28 151t77 125q48 57 112.5 103.5t138.5 85.5q-52 91 -78 174.5t-26 173.5q0 69 22 133t66 114q44 49 110 79t154 30q79 0 138.5 -22.5t99.5 -61.5q40 -40 60 -93t20 -114q0 -78 -30 -142t-81 -117
q-52 -54 -122 -99t-150 -86q27 -42 62 -89.5t77 -101.5q75 -97 140 -172t122 -131q65 85 104.5 197.5t55.5 245.5h137q-20 -152 -70 -284.5t-131 -235.5q86 -70 160.5 -99.5t146.5 -29.5v-129q-56 2 -106.5 12t-98.5 29q-48 18 -95.5 47.5t-98.5 70.5q-88 -78 -196.5 -123
t-245.5 -45zM563 899q62 32 118 67t98 77q42 41 66.5 90t24.5 110q0 36 -10.5 68.5t-32.5 57.5q-23 25 -58 39.5t-83 14.5q-53 0 -93 -17t-66 -47q-27 -30 -40.5 -72t-13.5 -93q0 -75 21.5 -144t68.5 -151zM592 94q102 0 187.5 31.5t154.5 93.5q-63 60 -133.5 139.5
t-155.5 188.5q-43 54 -80.5 102t-68.5 94q-60 -35 -109.5 -74.5t-84.5 -84.5q-36 -45 -55.5 -95t-19.5 -104q0 -137 91.5 -214t273.5 -77z" />
    <glyph glyph-name="quotesingle" unicode="'" horiz-adv-x="477" 
d="M168 1403v113h141v-113l-35 -402h-71z" />
    <glyph glyph-name="parenleft" unicode="(" horiz-adv-x="813" 
d="M639 -420q-125 105 -220.5 216.5t-159.5 232.5q-65 121 -97.5 252.5t-32.5 277.5t32.5 277.5t97.5 252.5q64 121 159.5 232.5t220.5 216.5l63 -72q-95 -87 -172 -189t-131 -216q-55 -115 -84.5 -241t-29.5 -261q0 -136 29.5 -262t84.5 -241t132.5 -217t173.5 -189z" />
    <glyph glyph-name="parenright" unicode=")" horiz-adv-x="813" 
d="M109 -350q96 87 174 189t133 217q54 115 84 241t30 262q0 135 -30 261t-84 241q-55 114 -132.5 216t-172.5 189l63 72q125 -105 221 -216.5t161 -232.5q64 -121 97 -252.5t33 -277.5t-33 -277.5t-97 -252.5q-65 -121 -161 -232.5t-221 -216.5z" />
    <glyph glyph-name="asterisk" unicode="*" horiz-adv-x="1040" 
d="M256 782l213 310l-375 -27v113l377 -27l-215 309l102 62l162 -342l162 342l102 -62l-213 -309l375 27v-113l-375 27l213 -310l-102 -59l-162 340l-162 -340z" />
    <glyph glyph-name="plus" unicode="+" horiz-adv-x="1303" 
d="M588 612h-453v123h453v459h127v-459h454v-123h-454v-458h-127v458z" />
    <glyph glyph-name="comma" unicode="," horiz-adv-x="549" 
d="M254 0h-68v193h176v-175l-92 -225h-65z" />
    <glyph glyph-name="hyphen" unicode="-" horiz-adv-x="731" 
d="M135 705h461v-123h-461v123z" />
    <glyph glyph-name="hyphen" unicode="&#x2011;" horiz-adv-x="731" 
d="M135 705h461v-123h-461v123z" />
    <glyph glyph-name="hyphen" unicode="&#x2010;" horiz-adv-x="731" 
d="M135 705h461v-123h-461v123z" />
    <glyph glyph-name="hyphen" unicode="&#xad;" horiz-adv-x="731" 
d="M135 705h461v-123h-461v123z" />
    <glyph glyph-name="period" unicode="." horiz-adv-x="549" 
d="M186 193h176v-193h-176v193z" />
    <glyph glyph-name="slash" unicode="/" horiz-adv-x="1124" 
d="M928 1516h149l-880 -1516h-150z" />
    <glyph glyph-name="zero" unicode="0" horiz-adv-x="1337" 
d="M670 -29q-134 0 -237.5 56.5t-174.5 159.5t-108 248.5t-37 322.5t37 322t108 248t174.5 159.5t237.5 56.5q133 0 236.5 -56.5t173.5 -159.5t106.5 -248t36.5 -322t-36.5 -322.5t-106.5 -248.5t-173.5 -159.5t-236.5 -56.5zM670 98q96 0 172 43t129 127q52 83 80 206
t28 284q0 160 -29 283t-82 206q-54 83 -129.5 125.5t-168.5 42.5q-97 0 -173.5 -42.5t-129.5 -125.5t-81 -206t-28 -283q0 -161 29 -284t83 -206q54 -84 130 -127t170 -43z" />
    <glyph glyph-name="one" unicode="1" horiz-adv-x="885" 
d="M123 131h285v1227q-28 -15 -63 -27.5t-72 -21.5q-38 -10 -75.5 -15.5t-70.5 -5.5v129q88 3 163 27t126 72h135v-1385h258v-131h-686v131z" />
    <glyph glyph-name="two" unicode="2" horiz-adv-x="1202" 
d="M98 33q0 82 23.5 162t81.5 162q57 82 155 169t248 183q85 54 146 102t100 96q38 48 56 99.5t18 113.5q0 67 -20.5 121.5t-59.5 93.5q-40 38 -97.5 59t-132.5 21q-125 0 -216.5 -64.5t-159.5 -197.5l-115 68q80 154 204.5 238.5t293.5 84.5q103 0 185 -30.5t140 -85.5
q57 -56 88 -132.5t31 -167.5q0 -77 -20 -142.5t-66 -126.5t-121 -122.5t-184 -130.5q-206 -131 -308.5 -251.5t-109.5 -223.5h815v-131h-975v33z" />
    <glyph glyph-name="three" unicode="3" horiz-adv-x="1210" 
d="M582 -29q-168 0 -302 73.5t-219 209.5l109 78q83 -125 185.5 -179.5t228.5 -54.5q84 0 150.5 22t113.5 63q46 40 71 97.5t25 127.5q0 84 -26 146.5t-84 104.5q-58 41 -151 61.5t-226 20.5h-58v125h70q121 0 205 18.5t137 54.5q52 36 76 89t24 123q0 57 -18 105.5
t-56 83.5q-39 35 -100 55t-147 20q-58 0 -109 -13.5t-96 -37.5q-45 -25 -84 -59t-72 -74l-100 84q41 49 90.5 91t108.5 73q58 30 125.5 47.5t144.5 17.5q120 0 206 -31.5t142 -83.5q55 -53 81 -121.5t26 -142.5q0 -73 -21 -133t-59 -105q-39 -46 -94.5 -76.5t-124.5 -43.5
q170 -35 251.5 -133t81.5 -266q0 -93 -35 -173t-100 -138q-66 -59 -159.5 -92.5t-210.5 -33.5z" />
    <glyph glyph-name="four" unicode="4" horiz-adv-x="1241" 
d="M797 367h-729v108l690 1041h178v-1020h256v-129h-256v-367h-139v367zM797 496v850h-4l-562 -850h566z" />
    <glyph glyph-name="five" unicode="5" horiz-adv-x="1192" 
d="M580 -29q-83 0 -157 20t-137 56q-64 36 -116 86t-90 111l104 84q34 -50 74.5 -92t89.5 -73q48 -31 105 -48t125 -17q97 0 168.5 33.5t118.5 89.5q46 55 68.5 126.5t22.5 148.5q0 92 -26 162t-72 118q-46 47 -109.5 71.5t-138.5 24.5q-116 0 -199.5 -49.5t-146.5 -140.5
l-108 41l59 793h801l-12 -134h-668l-41 -526q28 32 61 58t74 45q41 18 90.5 28t110.5 10q103 0 189 -34.5t148 -98.5q62 -65 97 -156.5t35 -205.5t-36 -211t-103 -168q-68 -71 -164.5 -111.5t-216.5 -40.5z" />
    <glyph glyph-name="six" unicode="6" horiz-adv-x="1251" 
d="M651 -29q-112 0 -210 45.5t-171 139.5t-115 237t-42 338q0 175 43.5 324t122.5 258q79 108 188 169.5t240 61.5q63 0 115.5 -9t97.5 -24q44 -16 81 -36.5t68 -44.5l-76 -111q-29 23 -59 41t-64 31t-75 19.5t-93 6.5q-104 0 -186.5 -52t-140.5 -142q-58 -91 -89 -214
t-32 -264q36 39 81 76t99 65t117 45t135 17q120 0 209 -35t148 -98q58 -63 87 -150t29 -190q0 -108 -36.5 -200t-102.5 -159q-67 -68 -161 -106.5t-208 -38.5zM657 96q81 0 148 25t114 74q47 48 73 118t26 160q0 76 -20 140.5t-62 111.5q-42 46 -108 72t-158 26
q-63 0 -122 -16.5t-111 -46.5q-53 -30 -98 -71t-79 -89q12 -132 47 -227.5t88 -156.5q53 -62 120 -91t142 -29z" />
    <glyph glyph-name="seven" unicode="7" horiz-adv-x="1124" 
d="M883 1382h-781v134h932v-125l-641 -1391h-149z" />
    <glyph glyph-name="eight" unicode="8" horiz-adv-x="1243" 
d="M623 -31q-128 0 -228.5 31t-169.5 85q-70 54 -106.5 126.5t-36.5 155.5q0 80 27.5 143t79.5 115q51 52 125.5 95.5t168.5 84.5q-78 34 -139 71t-104 82q-43 44 -65.5 98.5t-22.5 123.5q0 70 32 136t93 117q60 51 147.5 82t198.5 31q114 0 201.5 -31t147.5 -82
q59 -51 89.5 -117t30.5 -136q0 -68 -22.5 -121t-64.5 -96q-43 -44 -105.5 -81t-143.5 -73q97 -42 172 -85.5t127 -94.5q52 -52 79 -115.5t27 -146.5q0 -81 -36.5 -153t-105.5 -126q-69 -55 -169 -87t-227 -32zM629 864q85 37 146 70t100 69q39 35 57 76.5t18 94.5
q0 45 -19 89.5t-59 80.5q-40 35 -102 57t-147 22q-81 0 -143 -21t-103 -55q-42 -35 -63 -78.5t-21 -88.5q0 -54 20 -96t61 -78t104.5 -70t150.5 -72zM623 92q86 0 158.5 20t125.5 57q52 37 81.5 89t29.5 117q0 64 -26.5 115t-77.5 95q-52 43 -127.5 82.5t-172.5 80.5
q-101 -45 -174 -86t-121 -84q-48 -44 -71 -93t-23 -110q0 -62 29.5 -114t82.5 -89q53 -38 126 -59t160 -21z" />
    <glyph glyph-name="nine" unicode="9" horiz-adv-x="1251" 
d="M545 -29q-66 0 -122.5 10.5t-104.5 29.5q-48 18 -88 42.5t-72 52.5l73 109q33 -27 65.5 -48.5t70.5 -36.5q37 -16 81.5 -24t100.5 -8q103 0 186 51.5t141 142.5q57 90 88 213t31 265q-36 -39 -80.5 -75.5t-97.5 -64.5q-54 -29 -117 -46t-135 -17q-120 0 -208.5 35.5
t-147.5 98.5t-88 149.5t-29 189.5q0 108 36.5 200t103.5 160q66 67 160 105.5t208 38.5q112 0 210 -45.5t171 -138.5q72 -94 114 -237.5t42 -338.5q0 -175 -43.5 -324t-121.5 -257q-79 -109 -188 -170.5t-239 -61.5zM582 692q63 0 122 16.5t111 46.5t96.5 71t79.5 89
q-11 132 -46.5 227t-88.5 156q-54 61 -121.5 90t-142.5 29q-81 0 -147 -25t-113 -72q-47 -48 -73 -118t-26 -160q0 -76 20 -140t63 -110q42 -47 108 -73.5t158 -26.5z" />
    <glyph glyph-name="colon" unicode=":" horiz-adv-x="555" 
d="M188 1079h179v-194h-179v194zM188 193h179v-193h-179v193z" />
    <glyph glyph-name="semicolon" unicode=";" horiz-adv-x="555" 
d="M256 0h-68v193h179v-173l-95 -227h-65zM188 1079h179v-194h-179v194z" />
    <glyph glyph-name="less" unicode="&#x3c;" horiz-adv-x="1303" 
d="M104 612v103l1084 465v-133l-920 -383l920 -383v-134z" />
    <glyph glyph-name="equal" unicode="=" horiz-adv-x="1303" 
d="M133 492h1034v-121h-1034v121zM133 958h1034v-120h-1034v120z" />
    <glyph glyph-name="greater" unicode="&#x3e;" horiz-adv-x="1303" 
d="M117 281l919 383l-919 383v133l1083 -465v-103l-1083 -465v134z" />
    <glyph glyph-name="question" unicode="?" horiz-adv-x="1104" 
d="M436 412q-2 31 -3 65.5t-1 69.5q0 54 10 98t32 82q21 37 56 69t86 62q61 37 106 68.5t74 66.5q28 34 42 75.5t14 98.5q0 58 -20.5 104t-59.5 78t-95.5 49t-127.5 17q-65 0 -118.5 -15.5t-97.5 -42.5q-45 -28 -82 -66t-69 -83l-102 78q41 55 89 102.5t106 82.5
q57 34 127 53.5t155 19.5q100 0 181 -27t139 -75q57 -49 88.5 -117t31.5 -149q0 -75 -20 -131.5t-55 -100.5q-36 -45 -84 -80t-103 -67q-43 -25 -73 -48t-50 -47q-21 -24 -32.5 -51t-17.5 -61q-6 -35 -7.5 -78.5t-1.5 -99.5h-117zM406 190h178v-190h-178v190z" />
    <glyph glyph-name="at" unicode="@" horiz-adv-x="1778" 
d="M885 -29q-172 0 -316 57t-248 161q-105 103 -163 248t-58 321t59.5 320.5t165.5 248.5q105 103 249.5 160t314.5 57q169 0 313.5 -56.5t250.5 -157.5q105 -101 164.5 -242t59.5 -310q0 -108 -26 -193.5t-72 -144.5t-108.5 -90t-135.5 -31q-50 0 -90 12t-70 33
q-31 21 -51 49.5t-30 61.5q-75 -68 -158.5 -108.5t-183.5 -40.5q-66 0 -122.5 19.5t-97.5 60.5q-42 40 -65 101.5t-23 145.5q0 116 31.5 217.5t88.5 176.5t136 118t174 43q91 0 154 -31.5t113 -80.5l14 94h117l-88 -602q-6 -39 1.5 -72.5t28.5 -57.5q21 -25 54 -38.5
t78 -13.5q51 0 95.5 22t77.5 68q33 45 52.5 115t19.5 165q0 152 -52.5 278.5t-146.5 217.5q-94 90 -222.5 140t-280.5 50t-280.5 -51.5t-221.5 -144.5t-145 -222.5t-52 -285.5t52 -286t145 -223q92 -94 220 -146t280 -52q123 0 223 28t195 81l36 -70q-97 -54 -212.5 -86.5
t-243.5 -32.5zM770 426q78 0 147.5 29.5t143.5 101.5l63 428q-52 63 -113 91t-143 28q-67 0 -122.5 -35.5t-94.5 -95.5q-40 -60 -62 -140t-22 -169q0 -126 54.5 -182t148.5 -56z" />
    <glyph glyph-name="A" unicode="A" horiz-adv-x="1378" 
d="M610 1522h158l537 -1522h-152l-162 467h-614l-162 -467h-141zM946 596l-260 754h-4l-260 -754h524z" />
    <glyph glyph-name="B" unicode="B" horiz-adv-x="1403" 
d="M195 1516h526q128 0 224.5 -26t161.5 -75q64 -49 96 -119.5t32 -160.5q0 -77 -23 -136.5t-62 -102.5q-39 -44 -91.5 -71.5t-110.5 -40.5v-4q71 -13 132.5 -41.5t106.5 -73.5q45 -46 71 -109t26 -144q0 -90 -31.5 -165.5t-95.5 -130.5q-65 -55 -162.5 -85.5t-228.5 -30.5
h-571v1516zM764 129q195 0 286 75t91 214q0 77 -29.5 133t-83.5 93q-55 36 -133.5 53.5t-175.5 17.5h-381v-586h426zM709 842q90 0 161.5 16.5t120.5 50.5q49 33 75 84.5t26 122.5q0 140 -91.5 204t-287.5 64h-375v-542h371z" />
    <glyph glyph-name="C" unicode="C" horiz-adv-x="1432" 
d="M752 -29q-144 0 -260.5 56t-198.5 160q-83 103 -127.5 249.5t-44.5 327.5q0 172 45.5 315.5t128.5 246.5q82 103 198.5 160.5t258.5 57.5q115 0 205 -33t158 -93q67 -61 112.5 -146.5t72.5 -190.5l-139 -34q-25 90 -60 158t-84 114q-49 45 -114.5 68.5t-152.5 23.5
q-110 0 -199.5 -46t-152.5 -130t-97.5 -202.5t-34.5 -264.5q0 -158 35 -281.5t99 -208.5q63 -86 153 -131t201 -45q170 0 276 96.5t156 288.5l139 -30q-28 -112 -78.5 -202t-122.5 -153t-165 -97t-207 -34z" />
    <glyph glyph-name="D" unicode="D" horiz-adv-x="1452" 
d="M195 1516h383q370 0 561.5 -190.5t191.5 -565.5q0 -188 -49 -330t-144 -237q-96 -96 -236.5 -144.5t-323.5 -48.5h-383v1516zM600 131q141 0 250 36.5t184 113.5q74 77 113 196t39 283q0 160 -39 277t-114 194q-76 76 -186 112.5t-251 36.5h-256v-1249h260z" />
    <glyph glyph-name="E" unicode="E" horiz-adv-x="1237" 
d="M195 1516h905v-136h-760v-514h567v-131h-567v-602h803v-133h-948v1516z" />
    <glyph glyph-name="F" unicode="F" horiz-adv-x="1157" 
d="M195 1516h886v-136h-741v-522h549v-131h-549v-727h-145v1516z" />
    <glyph glyph-name="G" unicode="G" horiz-adv-x="1481" 
d="M743 -29q-149 0 -264.5 60t-194.5 166q-80 106 -121.5 251t-41.5 316q0 179 47.5 323t131.5 246q84 101 200 156t254 55q216 0 354 -118t197 -347l-140 -32q-27 93 -63 161.5t-85 113.5q-50 45 -115.5 67t-149.5 22q-99 0 -187 -40.5t-154 -120.5q-67 -80 -106 -200
t-39 -280q0 -159 35.5 -283.5t100.5 -209.5q64 -86 154.5 -130.5t199.5 -44.5q95 0 173 33t133 95t85 152.5t29 205.5h-367v125h508v-713h-131v231h-4q-26 -50 -64 -97t-91 -83t-123.5 -58t-160.5 -22z" />
    <glyph glyph-name="H" unicode="H" horiz-adv-x="1499" 
d="M195 1516h145v-650h821v650h146v-1516h-146v733h-821v-733h-145v1516z" />
    <glyph glyph-name="I" unicode="I" horiz-adv-x="575" 
d="M215 1516h145v-1516h-145v1516z" />
    <glyph glyph-name="J" unicode="J" horiz-adv-x="1020" 
d="M430 -29q-70 0 -126 15.5t-102 43.5t-82 66.5t-65 83.5l103 78q24 -36 51.5 -65t59.5 -50t70.5 -32t84.5 -11q61 0 110.5 16t85.5 53q35 36 54.5 94.5t19.5 144.5v1108h146v-1110q0 -108 -28.5 -189t-81.5 -136t-129 -82.5t-171 -27.5z" />
    <glyph glyph-name="K" unicode="K" horiz-adv-x="1368" 
d="M195 1516h145v-818l725 818h178l-520 -574l596 -942h-168l-526 829l-285 -311v-518h-145v1516z" />
    <glyph glyph-name="L" unicode="L" horiz-adv-x="1157" 
d="M195 1516h145v-1383h741v-133h-886v1516z" />
    <glyph glyph-name="M" unicode="M" horiz-adv-x="1784" 
d="M195 1516h188l508 -1328h4l504 1328h192v-1516h-145v1270h-4q-16 -51 -41.5 -121.5t-52.5 -144.5l-394 -1004h-133l-393 1004q-14 37 -25.5 68.5t-22.5 62.5q-12 31 -23 64.5t-23 74.5h-4v-1274h-135v1516z" />
    <glyph glyph-name="N" unicode="N" horiz-adv-x="1522" 
d="M195 1516h155l836 -1250h4v1250h137v-1516h-129l-862 1288h-4v-1288h-137v1516z" />
    <glyph glyph-name="O" unicode="O" horiz-adv-x="1520" 
d="M760 -29q-139 0 -256.5 56t-202.5 159t-132.5 248.5t-47.5 323.5t47.5 323t132.5 248t202.5 159t256.5 56t256 -56t202 -159t133 -248t48 -323t-48 -323.5t-133 -248.5t-202 -159t-256 -56zM760 102q108 0 198.5 44.5t156.5 129.5q65 84 101.5 205.5t36.5 276.5
q0 154 -36.5 275.5t-101.5 205.5q-66 84 -156.5 128t-198.5 44t-198.5 -44t-155.5 -128q-66 -84 -103 -205.5t-37 -275.5q0 -155 37 -276.5t103 -205.5q65 -85 155.5 -129.5t198.5 -44.5z" />
    <glyph glyph-name="P" unicode="P" horiz-adv-x="1317" 
d="M195 1516h503q124 0 222.5 -25.5t167.5 -76.5q68 -52 104.5 -130t36.5 -182q0 -114 -40 -195.5t-112 -133.5q-73 -52 -173 -76.5t-220 -24.5h-344v-672h-145v1516zM694 801q94 0 166.5 15.5t122.5 51.5q49 35 74.5 91.5t25.5 138.5q0 77 -25.5 131t-74.5 88
q-50 34 -123 49.5t-168 15.5h-352v-581h354z" />
    <glyph glyph-name="Q" unicode="Q" horiz-adv-x="1520" 
d="M1130 -381q-114 0 -198.5 27t-139.5 75q-56 48 -83.5 113.5t-28.5 142.5q-124 15 -226.5 77t-176.5 164q-74 101 -115 238t-41 302q0 178 48 323t134 248q85 103 202 159t255 56q136 0 253 -56t203 -159t134.5 -248t48.5 -323q0 -167 -42.5 -305.5t-118.5 -240.5
t-181.5 -163.5t-231.5 -73.5q6 -68 33 -111.5t71 -69.5t102.5 -36t129.5 -10h105v-129h-136zM760 100q106 0 196.5 45t155.5 130q65 84 102 206t37 277q0 154 -37 275.5t-102 205.5t-155.5 128t-196.5 44q-108 0 -198.5 -44t-155.5 -128q-66 -84 -103 -205.5t-37 -275.5
q0 -155 37 -277t103 -206q65 -85 155.5 -130t198.5 -45z" />
    <glyph glyph-name="R" unicode="R" horiz-adv-x="1374" 
d="M195 1516h507q127 0 225 -26.5t165 -78.5t102 -128.5t35 -176.5q0 -92 -26 -162t-73 -120q-48 -50 -115 -81.5t-149 -46.5l383 -696h-164l-370 680h-377v-680h-143v1516zM692 809q94 0 166.5 14.5t122.5 48.5t76 90t26 138q0 78 -25.5 132t-75.5 88q-50 33 -123.5 47.5
t-168.5 14.5h-352v-573h354z" />
    <glyph glyph-name="S" unicode="S" horiz-adv-x="1329" 
d="M676 -29q-107 0 -197.5 28t-161.5 81q-71 52 -121 126.5t-77 166.5l129 47q51 -159 162 -239.5t272 -80.5q85 0 154.5 19t118.5 55q49 35 75.5 86t26.5 115q0 59 -17 105t-61 86q-45 39 -122 74.5t-198 74.5q-122 38 -214 76.5t-153 88.5q-62 49 -93 115t-31 160
q0 81 34.5 152t97.5 124q62 52 148.5 82.5t190.5 30.5q107 0 191.5 -26t148.5 -72t108.5 -110t71.5 -140l-123 -57q-56 147 -156.5 210.5t-242.5 63.5q-76 0 -136.5 -19t-102.5 -52q-42 -34 -64.5 -79.5t-22.5 -97.5q0 -64 21 -109t70 -81q48 -36 128.5 -68.5t200.5 -70.5
q118 -38 206.5 -78.5t147.5 -92.5t88 -120t29 -160q0 -95 -39.5 -171.5t-109.5 -130.5q-71 -54 -167 -83t-210 -29z" />
    <glyph glyph-name="T" unicode="T" horiz-adv-x="1264" 
d="M559 1380h-489v136h1124v-136h-489v-1380h-146v1380z" />
    <glyph glyph-name="U" unicode="U" horiz-adv-x="1464" 
d="M731 -27q-140 0 -243.5 42t-171.5 115q-69 72 -102.5 170.5t-33.5 211.5v1004h146v-979q0 -93 24 -172.5t74 -136.5q50 -58 126.5 -91t182.5 -33q105 0 182 31.5t127 88.5q49 57 73 135.5t24 172.5v984h145v-1000q0 -113 -34.5 -212t-103.5 -172q-69 -74 -173 -116.5
t-242 -42.5z" />
    <glyph glyph-name="V" unicode="V" horiz-adv-x="1350" 
d="M74 1516h149l453 -1323h4l455 1323h141l-533 -1522h-137z" />
    <glyph glyph-name="W" unicode="W" horiz-adv-x="1894" 
d="M82 1516h147l236 -920q28 -105 51.5 -204t40.5 -177h4q16 77 39 176.5t49 202.5l225 922h154l229 -930q26 -103 48.5 -193.5t37.5 -177.5h5q10 45 20 89t21 88t23 90.5t24 97.5l237 936h139l-401 -1516h-137l-322 1315h-4l-325 -1315h-138z" />
    <glyph glyph-name="X" unicode="X" horiz-adv-x="1346" 
d="M594 813l-461 703h168l377 -588l377 588h155l-456 -703l526 -813h-156l-454 698l-455 -698h-149z" />
    <glyph glyph-name="Y" unicode="Y" horiz-adv-x="1266" 
d="M559 668l-508 848h158l426 -723l424 723h155l-509 -848v-668h-146v668z" />
    <glyph glyph-name="Z" unicode="Z" horiz-adv-x="1276" 
d="M86 104l909 1289h-850v123h1026v-107l-905 -1286h905v-123h-1085v104z" />
    <glyph glyph-name="bracketleft" unicode="[" horiz-adv-x="797" 
d="M180 1516h520v-109h-376v-1708h376v-109h-520v1926z" />
    <glyph glyph-name="backslash" unicode="\" horiz-adv-x="1112" 
d="M41 1516h149l881 -1516h-149z" />
    <glyph glyph-name="bracketright" unicode="]" horiz-adv-x="797" 
d="M96 -301h377v1706h-377v111h520v-1926h-520v109z" />
    <glyph glyph-name="asciicircum" unicode="^" horiz-adv-x="1303" 
d="M600 1516h105l462 -824h-131l-383 678l-385 -678h-131z" />
    <glyph glyph-name="underscore" unicode="_" horiz-adv-x="1024" 
d="M0 -143h1024v-115h-1024v115z" />
    <glyph glyph-name="grave" unicode="`" horiz-adv-x="1024" 
d="M297 1513h186l195 -319h-92z" />
    <glyph glyph-name="a" unicode="a" horiz-adv-x="1120" 
d="M403 -18q-145 0 -225 71.5t-80 198.5q0 80 37 149t123 126t225.5 101.5t345.5 76.5v55q0 112 -56 166.5t-163 54.5q-64 0 -119 -13t-104 -35q-49 -23 -93.5 -54t-86.5 -68l-76 88q48 45 101 82t114 64q60 26 128.5 40.5t148.5 14.5q90 0 155.5 -23.5t108.5 -67.5
q42 -45 62 -108.5t20 -144.5v-490q0 -99 6.5 -161.5t23.5 -104.5h-145q-11 34 -18 70.5t-7 83.5q-94 -85 -199 -128.5t-227 -43.5zM434 98q115 0 213.5 45t181.5 125v336q-173 -29 -287 -65t-181 -78q-68 -42 -95.5 -90t-27.5 -101q0 -85 52.5 -128.5t143.5 -43.5z" />
    <glyph glyph-name="b" unicode="b" horiz-adv-x="1214" 
d="M653 -18q-104 0 -190 45.5t-158 119.5v-147h-141v1516h141v-594q32 36 70 68.5t82 56.5t96 38.5t113 14.5q93 0 174 -34.5t141 -103.5q60 -70 94.5 -175t34.5 -246t-35 -246t-96 -174q-62 -70 -145.5 -104.5t-180.5 -34.5zM641 100q71 0 131.5 25.5t104.5 79.5
q43 53 67.5 136t24.5 198q0 112 -26 195t-70 138q-45 54 -105 80.5t-127 26.5q-50 0 -94 -12.5t-85 -35.5q-41 -24 -79.5 -57t-77.5 -73v-525q81 -85 161.5 -130.5t174.5 -45.5z" />
    <glyph glyph-name="c" unicode="c" horiz-adv-x="1087" 
d="M569 -23q-93 0 -177.5 37.5t-148.5 109.5q-65 71 -103 175.5t-38 239.5q0 145 41.5 251t109.5 175q67 69 153.5 102t177.5 33q87 0 152.5 -24t115.5 -64q49 -41 84.5 -94.5t60.5 -112.5l-120 -53q-45 109 -114.5 168t-182.5 59q-60 0 -120 -23t-108 -75t-78 -135.5
t-30 -204.5q0 -106 25.5 -188.5t69.5 -138.5q44 -57 104.5 -86.5t131.5 -29.5q56 0 101 13.5t82 41.5t67.5 71.5t59.5 103.5l114 -49q-32 -69 -72.5 -124.5t-92.5 -94.5q-52 -40 -117.5 -61.5t-147.5 -21.5z" />
    <glyph glyph-name="d" unicode="d" horiz-adv-x="1214" 
d="M549 -18q-93 0 -174 34t-141 103q-61 69 -95.5 174t-34.5 246t35 246.5t97 175.5q61 69 144.5 104t180.5 35q52 0 101 -13t94 -35q44 -23 82.5 -54t70.5 -66v584h142v-1250q0 -99 7 -161.5t25 -104.5h-149q-9 28 -17 71t-8 87q-33 -36 -70.5 -68t-81.5 -56t-95.5 -38
t-112.5 -14zM573 102q50 0 94.5 12.5t85.5 35.5t79.5 55.5t76.5 73.5v524q-80 87 -161 132.5t-175 45.5q-71 0 -131 -26.5t-103 -80.5q-44 -55 -68.5 -139t-24.5 -198q0 -111 26 -193t70 -136t103.5 -80t127.5 -26z" />
    <glyph glyph-name="e" unicode="e" horiz-adv-x="1118" 
d="M575 -23q-94 0 -179.5 36t-150.5 108q-66 71 -104.5 176.5t-38.5 243.5q0 144 42 249t110 174q67 69 151.5 102.5t169.5 33.5q94 0 175 -36t140 -106q59 -71 92.5 -176t33.5 -243v-27h-772q1 -100 28 -177.5t73 -130.5t107.5 -80.5t131.5 -27.5q60 0 108.5 13t89.5 38
q40 25 73.5 61.5t64.5 84.5l88 -70q-36 -57 -79 -102.5t-96 -77.5t-117 -49t-141 -17zM879 625q-6 76 -27 141.5t-59 113.5q-38 47 -93 74t-127 27q-58 0 -113 -21.5t-99 -65.5t-74.5 -111t-40.5 -158h633z" />
    <glyph glyph-name="f" unicode="f" horiz-adv-x="676" 
d="M244 958h-189v121h189v162q0 137 77 207t232 70q20 0 44 -1.5t38 -3.5v-118q-13 2 -34 3t-38 1q-39 0 -71.5 -8t-56.5 -26t-37 -48t-13 -74v-164h238v-121h-238v-958h-141v958z" />
    <glyph glyph-name="g" unicode="g" horiz-adv-x="1155" 
d="M557 -414q-131 0 -227.5 19t-159.5 54t-94 85.5t-31 112.5q0 83 52.5 145.5t146.5 99.5q-48 20 -72.5 54.5t-24.5 83.5t36.5 89.5t95.5 71.5q-78 50 -121 130t-43 180q0 86 32 157.5t89 123.5q57 51 135 79.5t170 28.5q94 0 172 -29t135 -82q24 18 53.5 34t62.5 29
t67.5 22t66.5 13v-133q-48 0 -99 -8t-98 -28q31 -42 47.5 -93t16.5 -114q0 -89 -32.5 -159.5t-89.5 -120.5t-134.5 -76.5t-167.5 -26.5q-47 0 -90.5 7.5t-83.5 22.5q-39 -15 -62.5 -38t-23.5 -54q0 -17 8 -30t27 -23q18 -10 48.5 -17t75.5 -12l236 -18q187 -16 284 -82.5
t97 -192.5q0 -74 -36.5 -130.5t-102.5 -95.5t-158 -59t-203 -20zM543 436q66 0 119 19.5t91 55.5q37 35 57.5 85.5t20.5 112.5q0 64 -19.5 115.5t-56.5 87.5t-91 55.5t-123 19.5q-67 0 -120.5 -20t-90.5 -56q-38 -36 -58 -87.5t-20 -114.5q0 -62 20.5 -112.5t59.5 -85.5
q38 -36 91.5 -55.5t119.5 -19.5zM571 -303q83 0 149 13t112 37q45 24 69.5 57.5t24.5 74.5q0 39 -16 68t-51 49q-36 21 -92 34t-136 19l-215 17l-56 6q-90 -29 -135 -82.5t-45 -114.5q0 -85 93.5 -131.5t297.5 -46.5z" />
    <glyph glyph-name="h" unicode="h" horiz-adv-x="1190" 
d="M164 1516h141v-607q39 39 84.5 73.5t97.5 60.5q51 26 108.5 41.5t121.5 15.5q160 0 240.5 -84.5t80.5 -235.5v-780h-141v754q0 114 -52 169.5t-163 55.5q-104 0 -195 -50.5t-182 -137.5v-791h-141v1516z" />
    <glyph glyph-name="i" unicode="i" horiz-adv-x="492" 
d="M176 1079h141v-1079h-141v1079zM172 1481h150v-152h-150v152z" />
    <glyph glyph-name="j" unicode="j" horiz-adv-x="492" 
d="M90 -412q-8 0 -20.5 0.5t-24.5 1.5q-12 2 -23 3.5t-16 3.5v112q13 -3 30 -5.5t34 -2.5q49 0 77.5 29t28.5 92v1257h141v-1259q0 -56 -12 -99t-39 -73q-27 -29 -70.5 -44.5t-105.5 -15.5zM172 1481h150v-152h-150v152z" />
    <glyph glyph-name="k" unicode="k" horiz-adv-x="1085" 
d="M164 1516h141v-1006l514 569h166l-352 -381l395 -698h-154l-335 590l-234 -250v-340h-141v1516z" />
    <glyph glyph-name="l" unicode="l" horiz-adv-x="492" 
d="M176 1516h141v-1516h-141v1516z" />
    <glyph glyph-name="m" unicode="m" horiz-adv-x="1870" 
d="M164 1079h141v-170q41 40 85 75t93 61q49 25 103 40t114 15q69 0 119.5 -14.5t86.5 -39.5q35 -26 57 -62t34 -79q42 40 88.5 75.5t97.5 62.5q51 26 106.5 41.5t115.5 15.5q83 0 142 -22.5t97 -64.5q37 -42 54.5 -101t17.5 -132v-780h-141v754q0 57 -10.5 99t-33.5 70
q-24 28 -63 42t-96 14q-49 0 -94.5 -13t-89.5 -37q-44 -25 -87.5 -60t-88.5 -78v-791h-142v754q0 57 -10.5 99t-34.5 70t-63 42t-96 14q-97 0 -183.5 -50.5t-177.5 -137.5v-791h-141v1079z" />
    <glyph glyph-name="n" unicode="n" horiz-adv-x="1190" 
d="M164 1079h141v-170q39 39 84.5 73.5t97.5 60.5q51 26 108.5 41.5t121.5 15.5q160 0 240.5 -84.5t80.5 -235.5v-780h-141v754q0 114 -52 169.5t-163 55.5q-104 0 -195 -50.5t-182 -137.5v-791h-141v1079z" />
    <glyph glyph-name="o" unicode="o" horiz-adv-x="1182" 
d="M592 -23q-99 0 -188 37.5t-156 109.5q-67 71 -106.5 175.5t-39.5 239.5t39 239.5t106 176.5q67 71 156 108t189 37q99 0 187.5 -37t155.5 -108q66 -72 105 -176.5t39 -239.5t-39 -239.5t-105 -175.5q-67 -72 -155.5 -109.5t-187.5 -37.5zM592 98q81 0 145.5 32.5
t109.5 91.5q44 59 67.5 140t23.5 179q0 88 -22 167.5t-65 139.5q-44 60 -109 95.5t-150 35.5q-82 0 -146.5 -32.5t-109.5 -90.5q-45 -59 -68.5 -139.5t-23.5 -175.5q0 -90 21.5 -170.5t65.5 -140.5q43 -61 108.5 -96.5t152.5 -35.5z" />
    <glyph glyph-name="p" unicode="p" horiz-adv-x="1214" 
d="M164 1079h141v-153q32 34 70 65.5t82 55.5t96 38.5t113 14.5q93 0 174 -34.5t141 -103.5q60 -70 94.5 -175t34.5 -246t-35 -246t-96 -174q-62 -70 -145.5 -104.5t-180.5 -34.5q-104 0 -190 45.5t-158 119.5v-557h-141v1489zM641 100q71 0 131.5 25.5t104.5 79.5
q43 53 67.5 136t24.5 198q0 112 -26 195t-70 138q-45 54 -105 80.5t-127 26.5q-50 0 -94 -12.5t-85 -35.5q-41 -24 -79.5 -57t-77.5 -73v-525q81 -85 161.5 -130.5t174.5 -45.5z" />
    <glyph glyph-name="q" unicode="q" horiz-adv-x="1214" 
d="M909 158q-33 -36 -70.5 -68t-81.5 -56t-95.5 -38t-112.5 -14q-93 0 -174 34t-141 103q-61 69 -95.5 174t-34.5 246t35 246.5t97 175.5q61 69 144.5 104t180.5 35q104 0 190 -46t158 -118v143h142v-1489h-142v568zM573 102q50 0 94.5 12.5t85.5 35.5t79.5 55.5t76.5 73.5
v524q-80 87 -161 132.5t-175 45.5q-71 0 -131 -26.5t-103 -80.5q-44 -55 -68.5 -139t-24.5 -198q0 -111 26 -193t70 -136t103.5 -80t127.5 -26z" />
    <glyph glyph-name="r" unicode="r" horiz-adv-x="809" 
d="M164 1079h141v-213h4q31 50 72 92.5t94 74.5q52 31 117 49t145 18h25l-14 -131q-5 0 -10 0.5t-10 0.5q-8 0 -14.5 0.5t-8.5 0.5q-134 0 -235.5 -70.5t-164.5 -198.5v-702h-141v1079z" />
    <glyph glyph-name="s" unicode="s" horiz-adv-x="1036" 
d="M512 -20q-72 0 -136 14.5t-117 40.5q-54 25 -97 60t-74 77l90 82q62 -71 143 -113.5t193 -42.5q139 0 210 49t71 140q0 45 -16.5 77t-52.5 57q-36 24 -92.5 43.5t-135.5 37.5q-93 23 -163 48.5t-117 61.5q-48 36 -71.5 85t-23.5 120q0 58 24.5 109.5t71.5 90.5
q46 38 114.5 60.5t155.5 22.5q69 0 127 -11t107 -31q48 -21 89 -50t77 -64l-80 -94q-62 62 -139 97.5t-176 35.5q-63 0 -107.5 -13.5t-72.5 -35.5q-28 -23 -41 -51.5t-13 -59.5q0 -39 14.5 -67.5t46.5 -50.5q31 -22 80.5 -39.5t120.5 -34.5q102 -25 178.5 -51.5t128.5 -64.5
q51 -39 77 -93t26 -133q0 -74 -31.5 -131.5t-86.5 -96.5q-56 -40 -133.5 -60.5t-168.5 -20.5z" />
    <glyph glyph-name="t" unicode="t" horiz-adv-x="748" 
d="M522 -14q-78 0 -132 15.5t-87 48.5q-34 32 -49.5 82t-15.5 120v706h-189v121h189v387h141v-387h280v-121h-280v-677q0 -43 8 -76t28 -55q19 -23 51.5 -34.5t82.5 -11.5q31 0 60.5 3.5t52.5 11.5v-121q-25 -5 -64 -8.5t-76 -3.5z" />
    <glyph glyph-name="u" unicode="u" horiz-adv-x="1190" 
d="M475 -23q-161 0 -241 85.5t-80 236.5v780h141v-755q0 -115 51 -170.5t164 -55.5q51 0 99 13.5t95 38.5q46 24 91 59t90 78v792h143v-1079h-143v170q-39 -38 -84.5 -73t-96.5 -61q-52 -27 -109 -43t-120 -16z" />
    <glyph glyph-name="v" unicode="v" horiz-adv-x="1042" 
d="M53 1079h152l319 -911h4l318 911h143l-397 -1083h-141z" />
    <glyph glyph-name="w" unicode="w" horiz-adv-x="1530" 
d="M55 1079h148l151 -534q15 -51 27 -95.5t24 -87.5t24 -87.5t26 -96.5h4q15 58 26.5 103t22.5 87q11 41 22.5 83.5t26.5 93.5l148 534h129l149 -544q15 -50 26.5 -92t22.5 -83q10 -41 21 -85t24 -97h4q15 55 26.5 98.5t23.5 83.5q11 40 22.5 80.5t26.5 89.5l157 549h138
l-332 -1079h-131l-244 887h-4l-248 -887h-129z" />
    <glyph glyph-name="x" unicode="x" horiz-adv-x="1047" 
d="M451 559l-361 520h158l280 -415l281 415h154l-363 -520l387 -559h-156l-309 453l-307 -453h-152z" />
    <glyph glyph-name="y" unicode="y" horiz-adv-x="1079" 
d="M201 -414q-62 0 -104 7t-74 16l32 117q23 -7 59.5 -12t90.5 -5q44 0 77.5 10t60.5 30q26 20 46 51.5t37 74.5l45 119l-418 1085h152l336 -911h4l334 911h147l-465 -1204q-27 -72 -57.5 -126t-71.5 -91q-42 -36 -97.5 -54t-133.5 -18z" />
    <glyph glyph-name="z" unicode="z" horiz-adv-x="1036" 
d="M84 90l657 871h-604v118h783v-92l-658 -870h686v-117h-864v90z" />
    <glyph glyph-name="braceleft" unicode="{" horiz-adv-x="778" 
d="M565 -410q-141 0 -203.5 72.5t-62.5 206.5v385q0 75 -14 123t-42 76q-28 27 -71 37t-100 10v106q57 0 100 10t71 38q28 27 42 75t14 123v385q0 67 15 119t48 88q32 35 82 53.5t121 18.5h127v-109h-90q-83 0 -121.5 -39.5t-38.5 -118.5v-403q0 -75 -11.5 -125t-33.5 -82
q-23 -32 -55 -51t-74 -33v-4q42 -14 74 -33t55 -51q22 -32 33.5 -82t11.5 -125v-403q0 -79 38.5 -118.5t121.5 -39.5h90v-109h-127z" />
    <glyph glyph-name="bar" unicode="|" horiz-adv-x="707" 
d="M285 1516h137v-1926h-137v1926z" />
    <glyph glyph-name="braceright" unicode="}" horiz-adv-x="778" 
d="M86 -301h90q84 0 122 39.5t38 118.5v409q0 75 11.5 124t34.5 80q22 31 54 49t74 32v4q-42 14 -74 32t-54 49q-23 31 -34.5 80t-11.5 124v409q0 79 -34.5 121.5t-117.5 42.5h-90l-8 103h133q71 0 120.5 -17.5t80.5 -51.5q31 -35 45 -86t14 -118v-391q0 -75 14 -123t43 -75
q28 -28 70.5 -38t100.5 -10v-106q-58 0 -100.5 -10t-70.5 -37q-29 -28 -43 -76t-14 -123v-391q0 -67 -14 -118t-45 -86q-31 -34 -80.5 -51.5t-120.5 -17.5h-133v109z" />
    <glyph glyph-name="asciitilde" unicode="~" horiz-adv-x="1303" 
d="M934 549q-32 2 -81 13.5t-105 27.5q-56 15 -115.5 33.5t-112.5 34.5q-54 15 -97 26.5t-67 13.5q-46 5 -76 -15.5t-36 -80.5l-97 12q10 115 70.5 165t151.5 44q32 -2 81 -13.5t105 -27.5t115.5 -34.5t112.5 -33.5q53 -16 95.5 -27.5t65.5 -12.5q48 -3 79 17t36 79l98 -8
q-12 -117 -72 -168t-151 -45z" />
    <glyph glyph-name="exclamdown" unicode="&#xa1;" horiz-adv-x="641" 
d="M276 1102h84l48 -1102h-177zM229 1516h179v-191h-179v191z" />
    <glyph glyph-name="cent" unicode="&#xa2;" horiz-adv-x="1090" 
d="M352 35q-55 31 -101 79.5t-79 112.5t-51.5 142t-18.5 170q0 144 41.5 250t109.5 175q67 69 153.5 102.5t177.5 33.5h30t29 -2l57 209h99l-64 -230q50 -18 90 -46t72 -63t56.5 -76.5t43.5 -86.5l-116 -53q-32 80 -77 133t-108 76l-229 -846q25 -10 52 -14.5t56 -4.5
q56 0 101 13.5t83 42.5q37 28 69 72t61 104l110 -49q-32 -69 -72.5 -124.5t-92.5 -94.5q-52 -40 -117.5 -61.5t-147.5 -21.5q-33 0 -66 5t-65 16l-71 -262h-99zM614 979q-8 2 -17 2h-17q-60 0 -120.5 -23t-109.5 -74q-49 -52 -79.5 -136t-30.5 -207q0 -138 40.5 -234.5
t108.5 -150.5z" />
    <glyph glyph-name="sterling" unicode="&#xa3;" horiz-adv-x="1247" 
d="M178 741v113h199q-19 36 -37 72t-31 74q-14 37 -22 77t-8 84q0 84 26.5 154t76.5 121t123 79.5t165 28.5q104 0 177.5 -32.5t121.5 -85.5q47 -54 71.5 -122.5t30.5 -140.5l-137 -16q-4 58 -20.5 108t-47.5 87q-32 36 -81 56.5t-117 20.5q-121 0 -184.5 -68.5
t-63.5 -187.5q0 -41 9 -80t24 -77t34.5 -75.5t40.5 -76.5h353v-113h-295q28 -63 46.5 -132t18.5 -154q0 -65 -8.5 -120.5t-24.5 -105.5q30 -25 60 -49.5t62 -43.5q31 -19 64.5 -30.5t69.5 -11.5q48 0 82 16.5t57 50.5q22 34 34.5 87t17.5 125h129q-3 -86 -20.5 -159.5
t-54.5 -127.5t-94.5 -84.5t-141.5 -30.5q-48 0 -90.5 13.5t-81.5 35.5t-74.5 50.5t-69.5 58.5q-48 -77 -118.5 -117.5t-163.5 -40.5q-40 0 -80 12.5t-71 38.5q-32 25 -51.5 63t-19.5 89t16 93t47 72q30 30 73.5 47t97.5 17q62 0 113.5 -24t101.5 -62q5 28 6.5 60t1.5 67
q0 86 -24 158.5t-58 138.5h-260zM479 207q-45 40 -90 67t-94 27q-56 0 -88.5 -33.5t-32.5 -89.5q0 -51 33.5 -78.5t83.5 -27.5q65 0 112.5 33t75.5 102z" />
    <glyph glyph-name="currency" unicode="&#xa4;" horiz-adv-x="1303" 
d="M650 391q-57 0 -107 15t-91 44l-214 -214l-82 83l212 211q-31 43 -48 94t-17 111q0 58 16 108t45 92l-208 207l82 82l209 -207q42 29 93 45.5t110 16.5t111 -16.5t93 -45.5l208 207l82 -82l-207 -207q29 -41 45 -91t16 -108q0 -60 -17.5 -111.5t-47.5 -94.5l212 -211
l-83 -82l-213 213q-41 -29 -91.5 -44t-107.5 -15zM650 487q53 0 97.5 18t77.5 51q32 32 50 77.5t18 101.5t-18 101.5t-50 78.5q-33 32 -77.5 50t-97.5 18t-97 -18t-76 -50q-33 -33 -51 -78.5t-18 -101.5t18 -101.5t51 -77.5q32 -33 76 -51t97 -18z" />
    <glyph glyph-name="yen" unicode="&#xa5;" horiz-adv-x="1262" 
d="M557 258h-391v115h391v194h-391v115h387l-500 834h158l424 -717l420 717h153l-501 -834h391v-115h-396v-194h396v-115h-396v-258h-145v258z" />
    <glyph glyph-name="brokenbar" unicode="&#xa6;" horiz-adv-x="707" 
d="M285 1516h137v-838h-137v838zM285 428h137v-838h-137v838z" />
    <glyph glyph-name="section" unicode="&#xa7;" horiz-adv-x="1085" 
d="M545 -410q-95 0 -163.5 23.5t-116.5 63.5q-48 41 -76.5 95.5t-43.5 116.5l121 37q14 -51 35.5 -92t54.5 -69q32 -28 77 -43t106 -15q62 0 104.5 15.5t69.5 40.5q26 26 37.5 59.5t11.5 68.5q0 36 -11 68t-39 65t-77 69t-125 81q-108 63 -183.5 112.5t-123.5 97.5
q-48 47 -70 98t-22 116q0 62 24 114t62 94t84.5 73.5t91.5 54.5q-58 40 -96 76t-60 72q-23 36 -32 73.5t-9 81.5q0 58 24.5 113.5t71.5 98.5t115 69t154 26q98 0 168.5 -23.5t118.5 -63.5q48 -41 76.5 -95.5t43.5 -116.5l-123 -39q-14 51 -36.5 92t-55.5 70
q-34 28 -79.5 43.5t-106.5 15.5q-62 0 -106 -15.5t-72 -40.5q-28 -26 -41 -59.5t-13 -68.5q0 -36 12 -68t42 -65t80 -69t126 -80q108 -63 183.5 -112.5t123.5 -96.5q47 -48 69 -99t22 -116q0 -62 -23.5 -114.5t-60.5 -94.5t-83 -74.5t-91 -54.5q57 -41 93.5 -77t57.5 -71
q20 -35 27.5 -72.5t7.5 -80.5q0 -59 -23.5 -114t-68.5 -99q-45 -43 -111.5 -69t-152.5 -26zM614 264q110 48 169 112.5t59 145.5q0 43 -14.5 77.5t-52.5 70.5q-39 36 -106 80t-171 106q-7 3 -14 7t-15 7q-103 -46 -164 -111t-61 -147q0 -43 14.5 -77t53.5 -70
q38 -37 104.5 -80.5t171.5 -105.5q6 -4 13 -8t13 -7z" />
    <glyph glyph-name="dieresis" unicode="&#xa8;" horiz-adv-x="1036" 
d="M618 1362h158v-168h-158v168zM258 1362h158v-168h-158v168z" />
    <glyph glyph-name="copyright" unicode="&#xa9;" horiz-adv-x="1767" 
d="M883 -29q-164 0 -306.5 61.5t-247.5 168.5q-106 107 -166.5 250t-60.5 307q0 109 27.5 209.5t78.5 188.5q51 87 122 158.5t158 122.5t187.5 79t209.5 28t209 -28t187 -79t157.5 -122.5t121.5 -158.5q50 -88 77.5 -188.5t27.5 -209.5t-27.5 -209.5t-77.5 -187.5
q-51 -88 -122.5 -160t-157.5 -123q-87 -51 -187.5 -79t-209.5 -28zM885 55q145 0 271 55t219 151q93 95 146.5 223t53.5 274q0 97 -24.5 186.5t-68.5 167.5q-45 78 -108 142t-139 110q-77 46 -166 71t-186 25t-185.5 -25t-165.5 -70q-77 -46 -139.5 -110t-106.5 -142
q-45 -78 -69 -168t-24 -187t24.5 -186.5t69.5 -167.5q44 -78 107 -142.5t140 -110.5q76 -46 165 -71t186 -25zM879 319q-81 0 -147 32.5t-112 92.5q-47 59 -72.5 142.5t-25.5 185.5q0 97 25.5 179t72.5 142q46 59 112.5 92.5t148.5 33.5q130 0 207.5 -73t111.5 -202l-94 -24
q-15 51 -35 90t-47 65q-27 25 -62 38t-81 13q-59 0 -106 -25.5t-80 -71.5q-34 -46 -52 -111t-18 -144q0 -85 18 -152.5t51 -113.5q33 -47 81 -71.5t108 -24.5q91 0 148 53.5t85 163.5q12 -3 22.5 -6t20.5 -6q17 -5 32.5 -8.5t20.5 -4.5q-35 -136 -118.5 -210.5t-214.5 -74.5
z" />
    <glyph glyph-name="ordfeminine" unicode="&#xaa;" horiz-adv-x="850" 
d="M326 756q-106 0 -164 50.5t-58 141.5q0 56 26 104.5t86 88.5t158 71t242 54v34q0 73 -37 110.5t-108 37.5q-88 0 -153 -30t-123 -87l-68 66q35 34 72.5 60.5t80.5 45.5t92 29t107 10q127 0 188.5 -65t61.5 -179v-337q0 -67 5.5 -111t21.5 -78h-121q-8 25 -12.5 49
t-6.5 53q-65 -55 -137 -86.5t-153 -31.5zM348 850q79 0 145 33t123 86v219q-120 -19 -197.5 -43.5t-122.5 -52.5q-45 -29 -62 -62t-17 -69q0 -54 35.5 -82.5t95.5 -28.5z" />
    <glyph glyph-name="guillemotleft" unicode="&#xab;" horiz-adv-x="1069" 
d="M92 541l303 538h148l-297 -538l297 -541h-148zM498 541l305 538h145l-299 -538l299 -541h-145z" />
    <glyph glyph-name="logicalnot" unicode="&#xac;" horiz-adv-x="1292" 
d="M1157 164h-121v461h-901v116h1022v-577z" />
    <glyph glyph-name="registered" unicode="&#xae;" horiz-adv-x="1120" 
d="M561 596q-100 0 -186.5 37t-150.5 102q-64 64 -101 151t-37 187q0 99 37 186t102 152q64 64 150.5 101.5t185.5 37.5t185.5 -37t150.5 -101q63 -65 100 -152t37 -187t-37 -187t-100 -151q-64 -65 -150.5 -102t-185.5 -37zM561 657q86 0 161 32.5t131 89.5
q55 56 86.5 131.5t31.5 162.5q0 86 -32 162t-87 133q-56 56 -131 88.5t-160 32.5q-86 0 -160.5 -32.5t-129.5 -88.5q-56 -57 -87.5 -133t-31.5 -162q0 -87 31.5 -162.5t87.5 -131.5q55 -57 129.5 -89.5t160.5 -32.5zM385 1346h184q90 0 138.5 -38.5t48.5 -109.5
q0 -65 -31 -98.5t-84 -44.5l129 -238h-78l-125 227h-108v-227h-74v529zM565 1106q56 0 87.5 19.5t31.5 70.5q0 46 -32 65t-89 19h-104v-174h106z" />
    <glyph glyph-name="macron" unicode="&#xaf;" horiz-adv-x="1024" 
d="M254 1315h516v-121h-516v121z" />
    <glyph glyph-name="macron" unicode="&#x2c9;" horiz-adv-x="1024" 
d="M254 1315h516v-121h-516v121z" />
    <glyph glyph-name="degree" unicode="&#xb0;" horiz-adv-x="825" 
d="M412 971q-62 0 -114.5 21.5t-91.5 59.5t-61 90.5t-22 114.5t22 114.5t61 91.5q39 38 91.5 59.5t114.5 21.5t115 -21.5t92 -59.5q39 -39 61 -91.5t22 -114.5t-22 -114.5t-61 -90.5t-92 -59.5t-115 -21.5zM412 1063q40 0 74.5 14.5t59.5 40.5q24 25 38 60.5t14 78.5
t-14 78.5t-38 61.5q-25 25 -59.5 39t-74.5 14t-74 -14t-58 -39q-25 -26 -39 -61.5t-14 -78.5t14 -78.5t39 -60.5q24 -26 58 -40.5t74 -14.5z" />
    <glyph glyph-name="plusminus" unicode="&#xb1;" horiz-adv-x="1305" 
d="M135 221h457v445h-457v120h457v461h125v-461h454v-120h-454v-445h454v-119h-1036v119z" />
    <glyph glyph-name="uni00B2" unicode="&#xb2;" horiz-adv-x="913" 
d="M137 610q0 52 14 102t50 101q35 51 95.5 105t154.5 114q50 31 85 58t57 54t32 56t10 64q0 72 -42 116.5t-126 44.5q-71 0 -123.5 -39t-95.5 -126l-98 55q55 112 135.5 166.5t185.5 54.5q67 0 120.5 -20t90.5 -55q37 -36 56.5 -85t19.5 -108q0 -48 -13 -90t-42 -81
q-30 -39 -77.5 -78t-117.5 -81q-113 -71 -168.5 -134.5t-65.5 -119.5h488v-113h-625v39z" />
    <glyph glyph-name="uni00B3" unicode="&#xb3;" horiz-adv-x="913" 
d="M453 553q-106 0 -192.5 50t-143.5 147l88 65q52 -85 114 -118t132 -33q97 0 148.5 48t51.5 124q0 46 -14 81t-46 59q-33 24 -85 36t-127 12h-53v98h59q132 0 190 40t58 120q0 31 -10 57t-31 45t-54 30t-79 11q-65 0 -119 -30.5t-100 -87.5l-84 69q60 75 135.5 117.5
t171.5 42.5q78 0 133.5 -20.5t91.5 -54.5q36 -35 53 -79t17 -92q0 -77 -39.5 -133t-120.5 -82q96 -29 138 -88.5t42 -150.5q0 -61 -22.5 -112.5t-64.5 -89.5q-43 -38 -103 -59.5t-135 -21.5z" />
    <glyph glyph-name="acute" unicode="&#xb4;" horiz-adv-x="1024" 
d="M541 1513h186l-289 -319h-92z" />
    <glyph glyph-name="mu" unicode="&#xb5;" horiz-adv-x="1200" 
d="M164 1079h141v-755q0 -115 51.5 -170.5t163.5 -55.5q104 0 194.5 50.5t182.5 136.5v794h141v-1079h-141v176q-41 -39 -85 -73.5t-92 -60.5q-48 -27 -100.5 -43t-109.5 -17q-66 -2 -118 13t-87 58v-463h-141v1489z" />
    <glyph glyph-name="paragraph" unicode="&#xb6;" horiz-adv-x="1268" 
d="M625 690q-242 4 -370 107t-128 303q0 89 30.5 165t90.5 132q59 56 146.5 87.5t201.5 31.5h483v-1926h-121v1805h-213v-1805h-120v1100z" />
    <glyph glyph-name="periodcentered" unicode="&#xb7;" horiz-adv-x="551" 
d="M186 748h181v-193h-181v193z" />
    <glyph glyph-name="periodcentered" unicode="&#x2219;" horiz-adv-x="551" 
d="M186 748h181v-193h-181v193z" />
    <glyph glyph-name="cedilla" unicode="&#xb8;" horiz-adv-x="1024" 
d="M514 -399q-69 0 -134.5 20t-119.5 55l37 60q46 -31 97 -46.5t104 -15.5q81 0 117 25t36 72q0 36 -21.5 54.5t-64.5 18.5q-34 0 -59.5 -12t-46.5 -29l-60 27l54 170h86l-33 -111q22 14 48.5 22.5t63.5 8.5q28 0 54.5 -9t46.5 -26q19 -17 31 -43.5t12 -60.5q0 -48 -20 -82
t-53 -56q-34 -21 -79 -31.5t-96 -10.5z" />
    <glyph glyph-name="uni00B9" unicode="&#xb9;" horiz-adv-x="715" 
d="M162 678h174v708q-35 -17 -81 -25.5t-91 -8.5v104q62 2 107.5 15.5t74.5 44.5h113v-838h157v-109h-454v109z" />
    <glyph glyph-name="ordmasculine" unicode="&#xba;" horiz-adv-x="879" 
d="M438 756q-71 0 -134 26t-110 76q-48 50 -76 123t-28 168q0 96 28 169.5t76 123.5q47 49 110 74.5t134 25.5q72 0 135.5 -25.5t111.5 -74.5q47 -50 75 -123.5t28 -169.5q0 -95 -28 -168t-75 -123q-48 -50 -111.5 -76t-135.5 -26zM438 848q57 0 101.5 23t74.5 64
q30 40 46 95t16 119q0 60 -15 114.5t-45 96.5q-30 41 -74.5 65.5t-103.5 24.5q-55 0 -98.5 -23t-73.5 -63q-31 -41 -47 -96t-16 -119q0 -60 14.5 -114.5t44.5 -95.5q29 -42 73 -66.5t103 -24.5z" />
    <glyph glyph-name="guillemotright" unicode="&#xbb;" horiz-adv-x="1069" 
d="M823 541l-297 538h146l305 -538l-305 -541h-146zM418 541l-299 538h147l305 -538l-305 -541h-147z" />
    <glyph glyph-name="onequarter" unicode="&#xbc;" horiz-adv-x="1915" 
d="M199 680h172v696q-35 -14 -79 -22t-89 -8v110q63 2 108 15.5t74 44.5h111v-836h153v-111h-450v111zM1509 227h-436v82l424 639h137v-610h154v-111h-154v-227h-125v227zM1370 1516h133l-907 -1516h-133zM1513 334v450l-296 -450h296z" />
    <glyph glyph-name="onehalf" unicode="&#xbd;" horiz-adv-x="1995" 
d="M1217 41q0 51 13.5 100.5t49.5 100.5q35 51 95.5 105t154.5 114q48 31 82 58t57 54q22 27 32.5 56.5t10.5 64.5q0 71 -42 115.5t-126 44.5q-71 0 -122.5 -39t-96.5 -127l-98 55q55 113 135.5 167.5t185.5 54.5q68 0 121.5 -19.5t90.5 -54.5q36 -36 55.5 -85.5
t19.5 -109.5q0 -48 -12.5 -89.5t-41.5 -80.5q-30 -39 -77.5 -77.5t-116.5 -81.5q-111 -70 -167.5 -134.5t-65.5 -119.5h487v-113h-624v41zM1370 1516h133l-907 -1516h-133zM199 680h172v696q-35 -14 -79 -22t-89 -8v110q63 2 108 15.5t74 44.5h111v-836h153v-111h-450v111z
" />
    <glyph glyph-name="threequarters" unicode="&#xbe;" horiz-adv-x="1970" 
d="M453 553q-106 0 -192.5 50t-143.5 147l88 65q52 -85 114 -118t132 -33q97 0 148.5 48t51.5 124q0 46 -14 81t-46 59q-33 24 -85 36t-127 12h-53v98h59q132 0 190 40t58 120q0 31 -10 57t-31 45t-54 30t-79 11q-65 0 -119 -30.5t-100 -87.5l-84 69q60 75 135.5 117.5
t171.5 42.5q78 0 133.5 -20.5t91.5 -54.5q36 -35 53 -79t17 -92q0 -77 -39.5 -133t-120.5 -82q96 -29 138 -88.5t42 -150.5q0 -61 -22.5 -112.5t-64.5 -89.5q-43 -38 -103 -59.5t-135 -21.5zM1565 227h-437v82l424 639h138v-610h153v-111h-153v-227h-125v227zM1425 1516h134
l-908 -1516h-131zM1569 334v450l-299 -450h299z" />
    <glyph glyph-name="questiondown" unicode="&#xbf;" horiz-adv-x="1104" 
d="M547 -29q-100 0 -181.5 27t-138.5 76q-58 49 -89.5 117t-31.5 149q0 75 20.5 131.5t55.5 101.5q35 44 83 79t104 67q64 37 100.5 70.5t54.5 75.5q18 41 22.5 98t4.5 141h115q3 -31 4.5 -64.5t1.5 -70.5q0 -54 -10 -98.5t-31 -81.5q-22 -38 -57.5 -70t-86.5 -62
q-61 -38 -105.5 -69t-73.5 -65q-30 -34 -44 -75.5t-14 -99.5q0 -57 21 -103t61 -78q39 -33 95.5 -50t127.5 -17q65 0 118.5 15.5t98.5 43.5q44 27 81 65t69 83l102 -78q-42 -55 -90 -102.5t-105 -81.5q-58 -35 -127.5 -54.5t-154.5 -19.5zM520 1516h178v-191h-178v191z" />
    <glyph glyph-name="Agrave" unicode="&#xc0;" horiz-adv-x="1378" 
d="M610 1522h158l537 -1522h-152l-162 467h-614l-162 -467h-141zM946 596l-260 754h-4l-260 -754h524zM356 1928h186l195 -319h-92z" />
    <glyph glyph-name="Aacute" unicode="&#xc1;" horiz-adv-x="1378" 
d="M610 1522h158l537 -1522h-152l-162 467h-614l-162 -467h-141zM946 596l-260 754h-4l-260 -754h524zM835 1928h186l-289 -319h-92z" />
    <glyph glyph-name="Acircumflex" unicode="&#xc2;" horiz-adv-x="1378" 
d="M610 1522h158l537 -1522h-152l-162 467h-614l-162 -467h-141zM946 596l-260 754h-4l-260 -754h524zM632 1928h106l265 -325h-90l-230 201l-229 -201h-86z" />
    <glyph glyph-name="Atilde" unicode="&#xc3;" horiz-adv-x="1378" 
d="M610 1522h158l537 -1522h-152l-162 467h-614l-162 -467h-141zM946 596l-260 754h-4l-260 -754h524zM840 1603q-43 0 -84 18t-79 40q-38 21 -72.5 39t-65.5 18q-47 0 -65.5 -25.5t-18.5 -85.5h-90q0 118 43.5 171.5t128.5 53.5q43 0 83.5 -18t79.5 -39q38 -21 73 -39
t67 -18q45 0 64.5 25t19.5 85h90q0 -115 -44.5 -170t-129.5 -55z" />
    <glyph glyph-name="Adieresis" unicode="&#xc4;" horiz-adv-x="1378" 
d="M610 1522h158l537 -1522h-152l-162 467h-614l-162 -467h-141zM946 596l-260 754h-4l-260 -754h524zM785 1777h158v-168h-158v168zM425 1777h158v-168h-158v168z" />
    <glyph glyph-name="Aring" unicode="&#xc5;" horiz-adv-x="1378" 
d="M1305 0h-152l-162 467h-614l-162 -467h-141l522 1479q-45 23 -69.5 65t-24.5 96q0 40 14 74.5t39 59.5q24 25 58 39t75 14q40 0 74 -14t59 -39t39 -59.5t14 -74.5q0 -54 -25 -95t-67 -64zM946 596l-260 754h-4l-260 -754h524zM688 1526q48 0 78.5 31.5t30.5 82.5
q0 50 -30.5 82.5t-78.5 32.5t-79 -32.5t-31 -82.5q0 -51 31 -82.5t79 -31.5z" />
    <glyph glyph-name="AE" unicode="&#xc6;" horiz-adv-x="2040" 
d="M918 1516h985v-136h-760v-514h567v-131h-567v-602h803v-133h-949v485h-520l-274 -485h-148zM997 614v785h-2l-442 -785h444z" />
    <glyph glyph-name="Ccedilla" unicode="&#xc7;" horiz-adv-x="1432" 
d="M752 -399q-70 0 -135 20t-119 55l37 60q46 -31 97 -46.5t103 -15.5q81 0 116.5 25t35.5 72q0 36 -21 54.5t-63 18.5q-34 0 -60.5 -12t-48.5 -29l-57 27l45 143q-128 14 -232 76t-177 165t-112.5 242.5t-39.5 307.5q0 171 45.5 314.5t128.5 247.5q82 103 198.5 160.5
t258.5 57.5q115 0 205 -33t158 -93q67 -61 112.5 -146.5t72.5 -190.5l-139 -34q-25 90 -60 159t-84 116t-114.5 71t-152.5 24q-110 0 -199.5 -46.5t-152.5 -131.5q-63 -86 -97.5 -205.5t-34.5 -265.5q0 -158 35 -282.5t99 -210.5q63 -87 153 -133t201 -46q169 0 275.5 100
t156.5 291l139 -30q-27 -111 -76 -199.5t-119 -150.5q-71 -63 -161.5 -98t-200.5 -38l-25 -82q22 14 49 22.5t62 8.5q29 0 55.5 -9t46.5 -26t31.5 -43.5t11.5 -60.5q0 -48 -19.5 -82t-53.5 -56q-34 -21 -78.5 -31.5t-95.5 -10.5z" />
    <glyph glyph-name="Egrave" unicode="&#xc8;" horiz-adv-x="1237" 
d="M195 1516h905v-136h-760v-514h567v-131h-567v-602h803v-133h-948v1516zM356 1928h186l195 -319h-92z" />
    <glyph glyph-name="Eacute" unicode="&#xc9;" horiz-adv-x="1237" 
d="M195 1516h905v-136h-760v-514h567v-131h-567v-602h803v-133h-948v1516zM751 1928h186l-289 -319h-92z" />
    <glyph glyph-name="Ecircumflex" unicode="&#xca;" horiz-adv-x="1237" 
d="M195 1516h905v-136h-760v-514h567v-131h-567v-602h803v-133h-948v1516zM591 1928h106l265 -325h-90l-230 201l-229 -201h-86z" />
    <glyph glyph-name="Edieresis" unicode="&#xcb;" horiz-adv-x="1237" 
d="M195 1516h905v-136h-760v-514h567v-131h-567v-602h803v-133h-948v1516zM755 1777h158v-168h-158v168zM395 1777h158v-168h-158v168z" />
    <glyph glyph-name="Igrave" unicode="&#xcc;" horiz-adv-x="575" 
d="M215 1516h145v-1516h-145v1516zM-30 1928h186l195 -319h-92z" />
    <glyph glyph-name="Iacute" unicode="&#xcd;" horiz-adv-x="575" 
d="M215 1516h145v-1516h-145v1516zM439 1928h186l-289 -319h-92z" />
    <glyph glyph-name="Icircumflex" unicode="&#xce;" horiz-adv-x="575" 
d="M215 1516h145v-1516h-145v1516zM234 1928h106l265 -325h-90l-230 201l-229 -201h-86z" />
    <glyph glyph-name="Idieresis" unicode="&#xcf;" horiz-adv-x="575" 
d="M215 1516h145v-1516h-145v1516zM387 1777h158v-168h-158v168zM27 1777h158v-168h-158v168z" />
    <glyph glyph-name="Eth" unicode="&#xd0;" horiz-adv-x="1452" 
d="M195 737h-170v123h170v656h383q370 0 561.5 -191t191.5 -567q0 -187 -49 -328.5t-144 -236.5q-96 -96 -236.5 -144.5t-323.5 -48.5h-383v737zM600 131q141 0 250 36.5t184 113.5q74 77 113 196t39 283q0 160 -39 277t-114 194q-76 76 -186 112.5t-251 36.5h-256v-520h328
v-123h-328v-606h260z" />
    <glyph glyph-name="Ntilde" unicode="&#xd1;" horiz-adv-x="1522" 
d="M195 1516h155l836 -1250h4v1250h137v-1516h-129l-862 1288h-4v-1288h-137v1516zM932 1603q-43 0 -84 18t-79 40q-38 21 -72.5 39t-65.5 18q-47 0 -65.5 -25.5t-18.5 -85.5h-90q0 118 43.5 171.5t128.5 53.5q43 0 83.5 -18t79.5 -39q38 -21 73 -39t67 -18q45 0 64.5 25
t19.5 85h90q0 -115 -44.5 -170t-129.5 -55z" />
    <glyph glyph-name="Ograve" unicode="&#xd2;" horiz-adv-x="1520" 
d="M760 -29q-139 0 -256.5 56t-202.5 159t-132.5 248.5t-47.5 323.5t47.5 323t132.5 248t202.5 159t256.5 56t256 -56t202 -159t133 -248t48 -323t-48 -323.5t-133 -248.5t-202 -159t-256 -56zM760 102q108 0 198.5 44.5t156.5 129.5q65 84 101.5 205.5t36.5 276.5
q0 154 -36.5 275.5t-101.5 205.5q-66 84 -156.5 128t-198.5 44t-198.5 -44t-155.5 -128q-66 -84 -103 -205.5t-37 -275.5q0 -155 37 -276.5t103 -205.5q65 -85 155.5 -129.5t198.5 -44.5zM442 1928h186l195 -319h-92z" />
    <glyph glyph-name="Oacute" unicode="&#xd3;" horiz-adv-x="1520" 
d="M760 -29q-139 0 -256.5 56t-202.5 159t-132.5 248.5t-47.5 323.5t47.5 323t132.5 248t202.5 159t256.5 56t256 -56t202 -159t133 -248t48 -323t-48 -323.5t-133 -248.5t-202 -159t-256 -56zM760 102q108 0 198.5 44.5t156.5 129.5q65 84 101.5 205.5t36.5 276.5
q0 154 -36.5 275.5t-101.5 205.5q-66 84 -156.5 128t-198.5 44t-198.5 -44t-155.5 -128q-66 -84 -103 -205.5t-37 -275.5q0 -155 37 -276.5t103 -205.5q65 -85 155.5 -129.5t198.5 -44.5zM880 1928h186l-289 -319h-92z" />
    <glyph glyph-name="Ocircumflex" unicode="&#xd4;" horiz-adv-x="1520" 
d="M760 -29q-139 0 -256.5 56t-202.5 159t-132.5 248.5t-47.5 323.5t47.5 323t132.5 248t202.5 159t256.5 56t256 -56t202 -159t133 -248t48 -323t-48 -323.5t-133 -248.5t-202 -159t-256 -56zM760 102q108 0 198.5 44.5t156.5 129.5q65 84 101.5 205.5t36.5 276.5
q0 154 -36.5 275.5t-101.5 205.5q-66 84 -156.5 128t-198.5 44t-198.5 -44t-155.5 -128q-66 -84 -103 -205.5t-37 -275.5q0 -155 37 -276.5t103 -205.5q65 -85 155.5 -129.5t198.5 -44.5zM704 1928h106l265 -325h-90l-230 201l-229 -201h-86z" />
    <glyph glyph-name="Otilde" unicode="&#xd5;" horiz-adv-x="1520" 
d="M760 -29q-139 0 -256.5 56t-202.5 159t-132.5 248.5t-47.5 323.5t47.5 323t132.5 248t202.5 159t256.5 56t256 -56t202 -159t133 -248t48 -323t-48 -323.5t-133 -248.5t-202 -159t-256 -56zM760 102q108 0 198.5 44.5t156.5 129.5q65 84 101.5 205.5t36.5 276.5
q0 154 -36.5 275.5t-101.5 205.5q-66 84 -156.5 128t-198.5 44t-198.5 -44t-155.5 -128q-66 -84 -103 -205.5t-37 -275.5q0 -155 37 -276.5t103 -205.5q65 -85 155.5 -129.5t198.5 -44.5zM907 1603q-43 0 -84 18t-79 40q-38 21 -72.5 39t-65.5 18q-47 0 -65.5 -25.5
t-18.5 -85.5h-90q0 118 43.5 171.5t128.5 53.5q43 0 83.5 -18t79.5 -39q38 -21 73 -39t67 -18q45 0 64.5 25t19.5 85h90q0 -115 -44.5 -170t-129.5 -55z" />
    <glyph glyph-name="Odieresis" unicode="&#xd6;" horiz-adv-x="1520" 
d="M760 -29q-139 0 -256.5 56t-202.5 159t-132.5 248.5t-47.5 323.5t47.5 323t132.5 248t202.5 159t256.5 56t256 -56t202 -159t133 -248t48 -323t-48 -323.5t-133 -248.5t-202 -159t-256 -56zM760 102q108 0 198.5 44.5t156.5 129.5q65 84 101.5 205.5t36.5 276.5
q0 154 -36.5 275.5t-101.5 205.5q-66 84 -156.5 128t-198.5 44t-198.5 -44t-155.5 -128q-66 -84 -103 -205.5t-37 -275.5q0 -155 37 -276.5t103 -205.5q65 -85 155.5 -129.5t198.5 -44.5zM857 1777h158v-168h-158v168zM497 1777h158v-168h-158v168z" />
    <glyph glyph-name="multiply" unicode="&#xd7;" horiz-adv-x="1303" 
d="M213 297l352 350l-352 354l84 84l352 -354l352 354l86 -84l-354 -352l354 -352l-83 -84l-355 352l-352 -354z" />
    <glyph glyph-name="Oslash" unicode="&#xd8;" horiz-adv-x="1520" 
d="M1241 1300q75 -102 116.5 -238.5t41.5 -303.5q0 -178 -48 -323.5t-133 -248.5t-202 -159t-256 -56q-121 0 -224.5 43t-185.5 121l-133 -172l-86 62l145 190q-74 102 -114.5 239t-40.5 304q0 178 47.5 323t132.5 248t202.5 159t256.5 56q121 0 224.5 -42.5t184.5 -121.5
l134 172l86 -61zM1090 1270q-67 71 -150 108t-180 37q-108 0 -199 -44.5t-157 -128.5q-66 -85 -103 -207t-37 -277q0 -134 28 -242.5t79 -189.5zM430 246q63 -71 147 -108.5t183 -37.5q108 0 198.5 44.5t156.5 129.5q65 84 101.5 206.5t36.5 277.5q0 133 -26 240.5
t-76 189.5z" />
    <glyph glyph-name="Ugrave" unicode="&#xd9;" horiz-adv-x="1464" 
d="M731 -27q-140 0 -243.5 42t-171.5 115q-69 72 -102.5 170.5t-33.5 211.5v1004h146v-979q0 -93 24 -172.5t74 -136.5q50 -58 126.5 -91t182.5 -33q105 0 182 31.5t127 88.5q49 57 73 135.5t24 172.5v984h145v-1000q0 -113 -34.5 -212t-103.5 -172q-69 -74 -173 -116.5
t-242 -42.5zM428 1928h186l195 -319h-92z" />
    <glyph glyph-name="Uacute" unicode="&#xda;" horiz-adv-x="1464" 
d="M731 -27q-140 0 -243.5 42t-171.5 115q-69 72 -102.5 170.5t-33.5 211.5v1004h146v-979q0 -93 24 -172.5t74 -136.5q50 -58 126.5 -91t182.5 -33q105 0 182 31.5t127 88.5q49 57 73 135.5t24 172.5v984h145v-1000q0 -113 -34.5 -212t-103.5 -172q-69 -74 -173 -116.5
t-242 -42.5zM833 1928h186l-289 -319h-92z" />
    <glyph glyph-name="Ucircumflex" unicode="&#xdb;" horiz-adv-x="1464" 
d="M731 -27q-140 0 -243.5 42t-171.5 115q-69 72 -102.5 170.5t-33.5 211.5v1004h146v-979q0 -93 24 -172.5t74 -136.5q50 -58 126.5 -91t182.5 -33q105 0 182 31.5t127 88.5q49 57 73 135.5t24 172.5v984h145v-1000q0 -113 -34.5 -212t-103.5 -172q-69 -74 -173 -116.5
t-242 -42.5zM677 1928h106l265 -325h-90l-230 201l-229 -201h-86z" />
    <glyph glyph-name="Udieresis" unicode="&#xdc;" horiz-adv-x="1464" 
d="M731 -27q-140 0 -243.5 42t-171.5 115q-69 72 -102.5 170.5t-33.5 211.5v1004h146v-979q0 -93 24 -172.5t74 -136.5q50 -58 126.5 -91t182.5 -33q105 0 182 31.5t127 88.5q49 57 73 135.5t24 172.5v984h145v-1000q0 -113 -34.5 -212t-103.5 -172q-69 -74 -173 -116.5
t-242 -42.5zM830 1777h158v-168h-158v168zM470 1777h158v-168h-158v168z" />
    <glyph glyph-name="Yacute" unicode="&#xdd;" horiz-adv-x="1266" 
d="M559 668l-508 848h158l426 -723l424 723h155l-509 -848v-668h-146v668zM661 1947h186l-289 -319h-92z" />
    <glyph glyph-name="Thorn" unicode="&#xde;" horiz-adv-x="1325" 
d="M195 1516h145v-287h356q124 -1 222.5 -26.5t167.5 -77.5t106 -129.5t37 -182.5q0 -114 -40.5 -196t-113.5 -134q-73 -53 -173 -77.5t-220 -24.5h-342v-381h-145v1516zM690 512q94 0 167 15.5t123 51.5q50 35 75.5 91.5t25.5 138.5q0 77 -25.5 131t-74.5 89
q-50 34 -123.5 49.5t-169.5 15.5h-348v-582h350z" />
    <glyph glyph-name="germandbls" unicode="&#xdf;" horiz-adv-x="1255" 
d="M756 -23q-108 0 -185 34.5t-125 84.5l84 88q22 -21 46 -38t51 -28q27 -12 59.5 -18t71.5 -6q57 0 105 22.5t83 64.5q34 42 53 102.5t19 136.5q0 97 -32.5 164.5t-94.5 111.5q-62 43 -152 64t-204 26v109q91 1 157 22t109 57q42 35 62 82.5t20 102.5q0 57 -20 101t-57 74
t-90 45.5t-118 15.5q-142 0 -217.5 -83t-75.5 -247v-1065h-141v1057q0 110 30 195.5t87 144.5q57 58 138 88.5t183 30.5q94 0 170.5 -23.5t131.5 -67.5q54 -45 84 -110.5t30 -149.5q0 -115 -68.5 -198t-193.5 -117q81 -12 153 -41t126 -80t86 -125.5t32 -177.5
q0 -102 -27.5 -185t-78.5 -141q-52 -59 -125.5 -91t-165.5 -32z" />
    <glyph glyph-name="agrave" unicode="&#xe0;" horiz-adv-x="1120" 
d="M403 -18q-145 0 -225 71.5t-80 198.5q0 80 37 149t123 126t225.5 101.5t345.5 76.5v55q0 112 -56 166.5t-163 54.5q-64 0 -119 -13t-104 -35q-49 -23 -93.5 -54t-86.5 -68l-76 88q48 45 101 82t114 64q60 26 128.5 40.5t148.5 14.5q90 0 155.5 -23.5t108.5 -67.5
q42 -45 62 -108.5t20 -144.5v-490q0 -99 6.5 -161.5t23.5 -104.5h-145q-11 34 -18 70.5t-7 83.5q-94 -85 -199 -128.5t-227 -43.5zM434 98q115 0 213.5 45t181.5 125v336q-173 -29 -287 -65t-181 -78q-68 -42 -95.5 -90t-27.5 -101q0 -85 52.5 -128.5t143.5 -43.5zM281 1513
h186l195 -319h-92z" />
    <glyph glyph-name="aacute" unicode="&#xe1;" horiz-adv-x="1120" 
d="M403 -18q-145 0 -225 71.5t-80 198.5q0 80 37 149t123 126t225.5 101.5t345.5 76.5v55q0 112 -56 166.5t-163 54.5q-64 0 -119 -13t-104 -35q-49 -23 -93.5 -54t-86.5 -68l-76 88q48 45 101 82t114 64q60 26 128.5 40.5t148.5 14.5q90 0 155.5 -23.5t108.5 -67.5
q42 -45 62 -108.5t20 -144.5v-490q0 -99 6.5 -161.5t23.5 -104.5h-145q-11 34 -18 70.5t-7 83.5q-94 -85 -199 -128.5t-227 -43.5zM434 98q115 0 213.5 45t181.5 125v336q-173 -29 -287 -65t-181 -78q-68 -42 -95.5 -90t-27.5 -101q0 -85 52.5 -128.5t143.5 -43.5zM692 1513
h186l-289 -319h-92z" />
    <glyph glyph-name="acircumflex" unicode="&#xe2;" horiz-adv-x="1120" 
d="M403 -18q-145 0 -225 71.5t-80 198.5q0 80 37 149t123 126t225.5 101.5t345.5 76.5v55q0 112 -56 166.5t-163 54.5q-64 0 -119 -13t-104 -35q-49 -23 -93.5 -54t-86.5 -68l-76 88q48 45 101 82t114 64q60 26 128.5 40.5t148.5 14.5q90 0 155.5 -23.5t108.5 -67.5
q42 -45 62 -108.5t20 -144.5v-490q0 -99 6.5 -161.5t23.5 -104.5h-145q-11 34 -18 70.5t-7 83.5q-94 -85 -199 -128.5t-227 -43.5zM434 98q115 0 213.5 45t181.5 125v336q-173 -29 -287 -65t-181 -78q-68 -42 -95.5 -90t-27.5 -101q0 -85 52.5 -128.5t143.5 -43.5zM522 1513
h106l265 -325h-90l-230 201l-229 -201h-86z" />
    <glyph glyph-name="atilde" unicode="&#xe3;" horiz-adv-x="1120" 
d="M403 -18q-145 0 -225 71.5t-80 198.5q0 80 37 149t123 126t225.5 101.5t345.5 76.5v55q0 112 -56 166.5t-163 54.5q-64 0 -119 -13t-104 -35q-49 -23 -93.5 -54t-86.5 -68l-76 88q48 45 101 82t114 64q60 26 128.5 40.5t148.5 14.5q90 0 155.5 -23.5t108.5 -67.5
q42 -45 62 -108.5t20 -144.5v-490q0 -99 6.5 -161.5t23.5 -104.5h-145q-11 34 -18 70.5t-7 83.5q-94 -85 -199 -128.5t-227 -43.5zM434 98q115 0 213.5 45t181.5 125v336q-173 -29 -287 -65t-181 -78q-68 -42 -95.5 -90t-27.5 -101q0 -85 52.5 -128.5t143.5 -43.5zM721 1188
q-43 0 -84 18t-79 40q-38 21 -72.5 39t-65.5 18q-47 0 -65.5 -25.5t-18.5 -85.5h-90q0 118 43.5 171.5t128.5 53.5q43 0 83.5 -18t79.5 -39q38 -21 73 -39t67 -18q45 0 64.5 25t19.5 85h90q0 -115 -44.5 -170t-129.5 -55z" />
    <glyph glyph-name="adieresis" unicode="&#xe4;" horiz-adv-x="1120" 
d="M403 -18q-145 0 -225 71.5t-80 198.5q0 80 37 149t123 126t225.5 101.5t345.5 76.5v55q0 112 -56 166.5t-163 54.5q-64 0 -119 -13t-104 -35q-49 -23 -93.5 -54t-86.5 -68l-76 88q48 45 101 82t114 64q60 26 128.5 40.5t148.5 14.5q90 0 155.5 -23.5t108.5 -67.5
q42 -45 62 -108.5t20 -144.5v-490q0 -99 6.5 -161.5t23.5 -104.5h-145q-11 34 -18 70.5t-7 83.5q-94 -85 -199 -128.5t-227 -43.5zM434 98q115 0 213.5 45t181.5 125v336q-173 -29 -287 -65t-181 -78q-68 -42 -95.5 -90t-27.5 -101q0 -85 52.5 -128.5t143.5 -43.5zM685 1362
h158v-168h-158v168zM325 1362h158v-168h-158v168z" />
    <glyph glyph-name="aring" unicode="&#xe5;" horiz-adv-x="1120" 
d="M403 -18q-145 0 -225 71.5t-80 198.5q0 80 37 149t123 126t225.5 101.5t345.5 76.5v55q0 112 -56 166.5t-163 54.5q-64 0 -119 -13t-104 -35q-49 -23 -93.5 -54t-86.5 -68l-76 88q48 45 101 82t114 64q60 26 128.5 40.5t148.5 14.5q90 0 155.5 -23.5t108.5 -67.5
q42 -45 62 -108.5t20 -144.5v-490q0 -99 6.5 -161.5t23.5 -104.5h-145q-11 34 -18 70.5t-7 83.5q-94 -85 -199 -128.5t-227 -43.5zM434 98q115 0 213.5 45t181.5 125v336q-173 -29 -287 -65t-181 -78q-68 -42 -95.5 -90t-27.5 -101q0 -85 52.5 -128.5t143.5 -43.5zM587 1180
q-41 0 -75 14t-59 39t-38.5 59t-13.5 74t13.5 74t38.5 59t59 39t75 14t75 -14t59 -39t38.5 -59t13.5 -74t-13.5 -74t-38.5 -59t-59 -39t-75 -14zM587 1251q48 0 78.5 32t30.5 83q0 50 -30.5 82.5t-78.5 32.5t-78.5 -32.5t-30.5 -82.5q0 -51 30.5 -83t78.5 -32z" />
    <glyph glyph-name="ae" unicode="&#xe6;" horiz-adv-x="1831" 
d="M403 -23q-72 0 -128.5 18.5t-95.5 53.5q-40 35 -60.5 85t-20.5 114q0 80 36.5 149.5t121.5 127.5q84 58 223.5 103t345.5 77v55q0 112 -54.5 166.5t-160.5 54.5q-65 0 -120 -13t-104 -35q-49 -23 -93 -54t-86 -68l-76 88q48 45 101 82t113 64q60 26 128.5 40.5
t147.5 14.5q71 0 124 -16t90 -45q37 -30 59.5 -70.5t33.5 -89.5q25 48 62 88.5t83 70.5q46 29 100.5 45.5t114.5 16.5q94 0 175 -36t140 -106q59 -71 92.5 -176t33.5 -243v-23h-771q1 -101 28 -179.5t73 -131.5q45 -54 106.5 -81.5t132.5 -27.5q60 0 108 13t88 38
q39 25 72 61.5t64 84.5l90 -70q-36 -57 -79 -102.5t-96 -77.5t-116.5 -49t-140.5 -17q-60 0 -117 14.5t-107 44.5q-51 29 -94 72.5t-75 102.5q-53 -54 -108.5 -97t-116.5 -73q-61 -31 -127 -47.5t-140 -16.5zM1589 625q-5 76 -26 141.5t-58 113.5q-38 47 -92.5 74t-126.5 27
q-57 0 -111.5 -21.5t-98.5 -65.5t-74.5 -111t-40.5 -158h628zM434 94q116 0 220 51t204 156q-17 48 -26 104t-9 119q0 23 1 44t1 36q-173 -29 -286 -65.5t-180 -79.5t-94 -92t-27 -103q0 -83 51.5 -126.5t144.5 -43.5z" />
    <glyph glyph-name="ccedilla" unicode="&#xe7;" horiz-adv-x="1092" 
d="M567 -399q-69 0 -134.5 20t-119.5 55l37 60q47 -31 97.5 -46.5t103.5 -15.5q80 0 115.5 25t35.5 72q0 36 -21 54.5t-63 18.5q-34 0 -60 -12t-48 -29l-57 27l47 154q-82 12 -154.5 54.5t-126.5 113.5t-85.5 168t-31.5 219q0 145 41.5 251t109.5 175q67 69 153.5 102
t177.5 33q87 0 152.5 -24t115.5 -64q49 -41 84.5 -94.5t60.5 -112.5l-120 -53q-23 57 -51 100.5t-64 73.5q-36 29 -80.5 44t-101.5 15q-60 0 -120 -24t-108 -77t-78 -137.5t-30 -205.5q0 -106 25.5 -190t69.5 -142t104.5 -88.5t131.5 -30.5q56 0 101 14.5t82 44.5t67.5 74.5
t59.5 104.5l114 -49q-32 -67 -70.5 -121.5t-88.5 -93.5t-112.5 -61t-141.5 -23l-27 -91q22 14 49 22.5t62 8.5q29 0 55.5 -9t46.5 -26t31.5 -43.5t11.5 -60.5q0 -48 -20 -82t-53 -56q-34 -21 -79 -31.5t-96 -10.5z" />
    <glyph glyph-name="egrave" unicode="&#xe8;" horiz-adv-x="1118" 
d="M575 -23q-94 0 -179.5 36t-150.5 108q-66 71 -104.5 176.5t-38.5 243.5q0 144 42 249t110 174q67 69 151.5 102.5t169.5 33.5q94 0 175 -36t140 -106q59 -71 92.5 -176t33.5 -243v-27h-772q1 -100 28 -177.5t73 -130.5t107.5 -80.5t131.5 -27.5q60 0 108.5 13t89.5 38
q40 25 73.5 61.5t64.5 84.5l88 -70q-36 -57 -79 -102.5t-96 -77.5t-117 -49t-141 -17zM879 625q-6 76 -27 141.5t-59 113.5q-38 47 -93 74t-127 27q-58 0 -113 -21.5t-99 -65.5t-74.5 -111t-40.5 -158h633zM252 1513h186l195 -319h-92z" />
    <glyph glyph-name="eacute" unicode="&#xe9;" horiz-adv-x="1118" 
d="M575 -23q-94 0 -179.5 36t-150.5 108q-66 71 -104.5 176.5t-38.5 243.5q0 144 42 249t110 174q67 69 151.5 102.5t169.5 33.5q94 0 175 -36t140 -106q59 -71 92.5 -176t33.5 -243v-27h-772q1 -100 28 -177.5t73 -130.5t107.5 -80.5t131.5 -27.5q60 0 108.5 13t89.5 38
q40 25 73.5 61.5t64.5 84.5l88 -70q-36 -57 -79 -102.5t-96 -77.5t-117 -49t-141 -17zM879 625q-6 76 -27 141.5t-59 113.5q-38 47 -93 74t-127 27q-58 0 -113 -21.5t-99 -65.5t-74.5 -111t-40.5 -158h633zM696 1513h186l-289 -319h-92z" />
    <glyph glyph-name="ecircumflex" unicode="&#xea;" horiz-adv-x="1118" 
d="M575 -23q-94 0 -179.5 36t-150.5 108q-66 71 -104.5 176.5t-38.5 243.5q0 144 42 249t110 174q67 69 151.5 102.5t169.5 33.5q94 0 175 -36t140 -106q59 -71 92.5 -176t33.5 -243v-27h-772q1 -100 28 -177.5t73 -130.5t107.5 -80.5t131.5 -27.5q60 0 108.5 13t89.5 38
q40 25 73.5 61.5t64.5 84.5l88 -70q-36 -57 -79 -102.5t-96 -77.5t-117 -49t-141 -17zM879 625q-6 76 -27 141.5t-59 113.5q-38 47 -93 74t-127 27q-58 0 -113 -21.5t-99 -65.5t-74.5 -111t-40.5 -158h633zM520 1513h106l265 -325h-90l-230 201l-229 -201h-86z" />
    <glyph glyph-name="edieresis" unicode="&#xeb;" horiz-adv-x="1118" 
d="M575 -23q-94 0 -179.5 36t-150.5 108q-66 71 -104.5 176.5t-38.5 243.5q0 144 42 249t110 174q67 69 151.5 102.5t169.5 33.5q94 0 175 -36t140 -106q59 -71 92.5 -176t33.5 -243v-27h-772q1 -100 28 -177.5t73 -130.5t107.5 -80.5t131.5 -27.5q60 0 108.5 13t89.5 38
q40 25 73.5 61.5t64.5 84.5l88 -70q-36 -57 -79 -102.5t-96 -77.5t-117 -49t-141 -17zM879 625q-6 76 -27 141.5t-59 113.5q-38 47 -93 74t-127 27q-58 0 -113 -21.5t-99 -65.5t-74.5 -111t-40.5 -158h633zM667 1362h158v-168h-158v168zM307 1362h158v-168h-158v168z" />
    <glyph glyph-name="igrave" unicode="&#xec;" horiz-adv-x="492" 
d="M176 1079h141v-1079h-141v1079zM-67 1513h186l195 -319h-92z" />
    <glyph glyph-name="iacute" unicode="&#xed;" horiz-adv-x="492" 
d="M176 1079h141v-1079h-141v1079zM404 1513h186l-289 -319h-92z" />
    <glyph glyph-name="icircumflex" unicode="&#xee;" horiz-adv-x="492" 
d="M176 1079h141v-1079h-141v1079zM193 1513h106l265 -325h-90l-230 201l-229 -201h-86z" />
    <glyph glyph-name="idieresis" unicode="&#xef;" horiz-adv-x="492" 
d="M176 1079h141v-1079h-141v1079zM346 1362h158v-168h-158v168zM-14 1362h158v-168h-158v168z" />
    <glyph glyph-name="eth" unicode="&#xf0;" horiz-adv-x="1182" 
d="M592 -23q-104 0 -193.5 38.5t-155.5 109.5t-103.5 173t-37.5 230q0 129 37 228.5t101 168.5q63 68 149.5 103t185.5 35q52 0 101.5 -14t94.5 -39q44 -25 81.5 -59.5t65.5 -76.5q-23 93 -66.5 185.5t-122.5 177.5l-223 -84l-43 98l188 70q-35 32 -73.5 60.5t-83.5 56.5
l69 92q57 -32 110 -70.5t101 -83.5l205 78l43 -98l-170 -66q52 -64 94 -140.5t72 -168.5q29 -93 45 -203.5t16 -240.5q0 -129 -37.5 -232.5t-102.5 -176.5q-66 -73 -155 -112t-192 -39zM592 96q80 0 144 32t109 89t69 137t24 176q0 89 -23.5 165.5t-67.5 132.5
q-45 55 -109.5 86.5t-145.5 31.5t-145.5 -29.5t-109.5 -83.5q-45 -55 -69 -132t-24 -171q0 -89 22.5 -168t66.5 -138t109 -93.5t150 -34.5z" />
    <glyph glyph-name="ntilde" unicode="&#xf1;" horiz-adv-x="1190" 
d="M164 1079h141v-170q39 39 84.5 73.5t97.5 60.5q51 26 108.5 41.5t121.5 15.5q160 0 240.5 -84.5t80.5 -235.5v-780h-141v754q0 114 -52 169.5t-163 55.5q-104 0 -195 -50.5t-182 -137.5v-791h-141v1079zM760 1188q-43 0 -84 18t-79 40q-38 21 -72.5 39t-65.5 18
q-47 0 -65.5 -25.5t-18.5 -85.5h-90q0 118 43.5 171.5t128.5 53.5q43 0 83.5 -18t79.5 -39q38 -21 73 -39t67 -18q45 0 64.5 25t19.5 85h90q0 -115 -44.5 -170t-129.5 -55z" />
    <glyph glyph-name="ograve" unicode="&#xf2;" horiz-adv-x="1182" 
d="M592 -23q-99 0 -188 37.5t-156 109.5q-67 71 -106.5 175.5t-39.5 239.5t39 239.5t106 176.5q67 71 156 108t189 37q99 0 187.5 -37t155.5 -108q66 -72 105 -176.5t39 -239.5t-39 -239.5t-105 -175.5q-67 -72 -155.5 -109.5t-187.5 -37.5zM592 98q81 0 145.5 32.5
t109.5 91.5q44 59 67.5 140t23.5 179q0 88 -22 167.5t-65 139.5q-44 60 -109 95.5t-150 35.5q-82 0 -146.5 -32.5t-109.5 -90.5q-45 -59 -68.5 -139.5t-23.5 -175.5q0 -90 21.5 -170.5t65.5 -140.5q43 -61 108.5 -96.5t152.5 -35.5zM275 1513h186l195 -319h-92z" />
    <glyph glyph-name="oacute" unicode="&#xf3;" horiz-adv-x="1182" 
d="M592 -23q-99 0 -188 37.5t-156 109.5q-67 71 -106.5 175.5t-39.5 239.5t39 239.5t106 176.5q67 71 156 108t189 37q99 0 187.5 -37t155.5 -108q66 -72 105 -176.5t39 -239.5t-39 -239.5t-105 -175.5q-67 -72 -155.5 -109.5t-187.5 -37.5zM592 98q81 0 145.5 32.5
t109.5 91.5q44 59 67.5 140t23.5 179q0 88 -22 167.5t-65 139.5q-44 60 -109 95.5t-150 35.5q-82 0 -146.5 -32.5t-109.5 -90.5q-45 -59 -68.5 -139.5t-23.5 -175.5q0 -90 21.5 -170.5t65.5 -140.5q43 -61 108.5 -96.5t152.5 -35.5zM713 1513h186l-289 -319h-92z" />
    <glyph glyph-name="ocircumflex" unicode="&#xf4;" horiz-adv-x="1182" 
d="M592 -23q-99 0 -188 37.5t-156 109.5q-67 71 -106.5 175.5t-39.5 239.5t39 239.5t106 176.5q67 71 156 108t189 37q99 0 187.5 -37t155.5 -108q66 -72 105 -176.5t39 -239.5t-39 -239.5t-105 -175.5q-67 -72 -155.5 -109.5t-187.5 -37.5zM592 98q81 0 145.5 32.5
t109.5 91.5q44 59 67.5 140t23.5 179q0 88 -22 167.5t-65 139.5q-44 60 -109 95.5t-150 35.5q-82 0 -146.5 -32.5t-109.5 -90.5q-45 -59 -68.5 -139.5t-23.5 -175.5q0 -90 21.5 -170.5t65.5 -140.5q43 -61 108.5 -96.5t152.5 -35.5zM536 1513h106l265 -325h-90l-230 201
l-229 -201h-86z" />
    <glyph glyph-name="otilde" unicode="&#xf5;" horiz-adv-x="1182" 
d="M592 -23q-99 0 -188 37.5t-156 109.5q-67 71 -106.5 175.5t-39.5 239.5t39 239.5t106 176.5q67 71 156 108t189 37q99 0 187.5 -37t155.5 -108q66 -72 105 -176.5t39 -239.5t-39 -239.5t-105 -175.5q-67 -72 -155.5 -109.5t-187.5 -37.5zM592 98q81 0 145.5 32.5
t109.5 91.5q44 59 67.5 140t23.5 179q0 88 -22 167.5t-65 139.5q-44 60 -109 95.5t-150 35.5q-82 0 -146.5 -32.5t-109.5 -90.5q-45 -59 -68.5 -139.5t-23.5 -175.5q0 -90 21.5 -170.5t65.5 -140.5q43 -61 108.5 -96.5t152.5 -35.5zM745 1188q-43 0 -84 18t-79 40
q-38 21 -72.5 39t-65.5 18q-47 0 -65.5 -25.5t-18.5 -85.5h-90q0 118 43.5 171.5t128.5 53.5q43 0 83.5 -18t79.5 -39q38 -21 73 -39t67 -18q45 0 64.5 25t19.5 85h90q0 -115 -44.5 -170t-129.5 -55z" />
    <glyph glyph-name="odieresis" unicode="&#xf6;" horiz-adv-x="1182" 
d="M592 -23q-99 0 -188 37.5t-156 109.5q-67 71 -106.5 175.5t-39.5 239.5t39 239.5t106 176.5q67 71 156 108t189 37q99 0 187.5 -37t155.5 -108q66 -72 105 -176.5t39 -239.5t-39 -239.5t-105 -175.5q-67 -72 -155.5 -109.5t-187.5 -37.5zM592 98q81 0 145.5 32.5
t109.5 91.5q44 59 67.5 140t23.5 179q0 88 -22 167.5t-65 139.5q-44 60 -109 95.5t-150 35.5q-82 0 -146.5 -32.5t-109.5 -90.5q-45 -59 -68.5 -139.5t-23.5 -175.5q0 -90 21.5 -170.5t65.5 -140.5q43 -61 108.5 -96.5t152.5 -35.5zM687 1362h158v-168h-158v168zM327 1362
h158v-168h-158v168z" />
    <glyph glyph-name="divide" unicode="&#xf7;" horiz-adv-x="1303" 
d="M135 735h1034v-123h-1034v123zM561 397h172v-176h-172v176zM561 1124h172v-176h-172v176z" />
    <glyph glyph-name="oslash" unicode="&#xf8;" horiz-adv-x="1182" 
d="M950 940q60 -72 94.5 -172.5t34.5 -228.5q0 -135 -39 -239.5t-105 -175.5q-67 -72 -155.5 -109.5t-187.5 -37.5q-81 0 -153 24t-132 69l-104 -138l-76 60l109 145q-63 72 -98.5 173t-35.5 229q0 135 39 239.5t106 176.5q67 71 156 108t189 37q78 0 150.5 -23t134.5 -69
l102 139l80 -64zM803 905q-42 37 -95 56.5t-116 19.5q-82 0 -147 -33t-110 -91q-45 -59 -69 -140t-24 -176q0 -85 19.5 -162t60.5 -137zM381 172q40 -37 92.5 -57.5t118.5 -20.5q81 0 145.5 33.5t109.5 92.5t69 141t24 180q0 81 -20 156.5t-58 133.5z" />
    <glyph glyph-name="ugrave" unicode="&#xf9;" horiz-adv-x="1190" 
d="M475 -23q-161 0 -241 85.5t-80 236.5v780h141v-755q0 -115 51 -170.5t164 -55.5q51 0 99 13.5t95 38.5q46 24 91 59t90 78v792h143v-1079h-143v170q-39 -38 -84.5 -73t-96.5 -61q-52 -27 -109 -43t-120 -16zM285 1513h186l195 -319h-92z" />
    <glyph glyph-name="uacute" unicode="&#xfa;" horiz-adv-x="1190" 
d="M475 -23q-161 0 -241 85.5t-80 236.5v780h141v-755q0 -115 51 -170.5t164 -55.5q51 0 99 13.5t95 38.5q46 24 91 59t90 78v792h143v-1079h-143v170q-39 -38 -84.5 -73t-96.5 -61q-52 -27 -109 -43t-120 -16zM713 1513h186l-289 -319h-92z" />
    <glyph glyph-name="ucircumflex" unicode="&#xfb;" horiz-adv-x="1190" 
d="M475 -23q-161 0 -241 85.5t-80 236.5v780h141v-755q0 -115 51 -170.5t164 -55.5q51 0 99 13.5t95 38.5q46 24 91 59t90 78v792h143v-1079h-143v170q-39 -38 -84.5 -73t-96.5 -61q-52 -27 -109 -43t-120 -16zM536 1513h106l265 -325h-90l-230 201l-229 -201h-86z" />
    <glyph glyph-name="udieresis" unicode="&#xfc;" horiz-adv-x="1190" 
d="M475 -23q-161 0 -241 85.5t-80 236.5v780h141v-755q0 -115 51 -170.5t164 -55.5q51 0 99 13.5t95 38.5q46 24 91 59t90 78v792h143v-1079h-143v170q-39 -38 -84.5 -73t-96.5 -61q-52 -27 -109 -43t-120 -16zM693 1362h158v-168h-158v168zM333 1362h158v-168h-158v168z
" />
    <glyph glyph-name="yacute" unicode="&#xfd;" horiz-adv-x="1079" 
d="M201 -414q-62 0 -104 7t-74 16l32 117q23 -7 59.5 -12t90.5 -5q44 0 77.5 10t60.5 30q26 20 46 51.5t37 74.5l45 119l-418 1085h152l336 -911h4l334 911h147l-465 -1204q-27 -72 -57.5 -126t-71.5 -91q-42 -36 -97.5 -54t-133.5 -18zM569 1513h186l-289 -319h-92z" />
    <glyph glyph-name="thorn" unicode="&#xfe;" horiz-adv-x="1214" 
d="M164 1516h141v-590q32 34 70 65.5t82 55.5t96 38.5t113 14.5q93 0 174 -34.5t141 -103.5q60 -70 94.5 -175t34.5 -246t-35 -246t-96 -174q-62 -70 -145.5 -104.5t-180.5 -34.5q-104 0 -190 45.5t-158 119.5v-557h-141v1926zM641 100q71 0 131.5 25.5t104.5 79.5
q43 53 67.5 136t24.5 198q0 112 -26 195t-70 138q-45 54 -105 80.5t-127 26.5q-50 0 -94 -12.5t-85 -35.5q-41 -24 -79.5 -57t-77.5 -73v-525q81 -85 161.5 -130.5t174.5 -45.5z" />
    <glyph glyph-name="ydieresis" unicode="&#xff;" horiz-adv-x="1079" 
d="M201 -414q-62 0 -104 7t-74 16l32 117q23 -7 59.5 -12t90.5 -5q44 0 77.5 10t60.5 30q26 20 46 51.5t37 74.5l45 119l-418 1085h152l336 -911h4l334 911h147l-465 -1204q-27 -72 -57.5 -126t-71.5 -91q-42 -36 -97.5 -54t-133.5 -18zM642 1362h158v-168h-158v168z
M282 1362h158v-168h-158v168z" />
    <glyph glyph-name="Amacron" unicode="&#x100;" horiz-adv-x="1378" 
d="M610 1522h158l537 -1522h-152l-162 467h-614l-162 -467h-141zM946 596l-260 754h-4l-260 -754h524zM428 1728h516v-121h-516v121z" />
    <glyph glyph-name="amacron" unicode="&#x101;" horiz-adv-x="1120" 
d="M403 -18q-145 0 -225 71.5t-80 198.5q0 80 37 149t123 126t225.5 101.5t345.5 76.5v55q0 112 -56 166.5t-163 54.5q-64 0 -119 -13t-104 -35q-49 -23 -93.5 -54t-86.5 -68l-76 88q48 45 101 82t114 64q60 26 128.5 40.5t148.5 14.5q90 0 155.5 -23.5t108.5 -67.5
q42 -45 62 -108.5t20 -144.5v-490q0 -99 6.5 -161.5t23.5 -104.5h-145q-11 34 -18 70.5t-7 83.5q-94 -85 -199 -128.5t-227 -43.5zM434 98q115 0 213.5 45t181.5 125v336q-173 -29 -287 -65t-181 -78q-68 -42 -95.5 -90t-27.5 -101q0 -85 52.5 -128.5t143.5 -43.5zM301 1315
h516v-121h-516v121z" />
    <glyph glyph-name="Abreve" unicode="&#x102;" horiz-adv-x="1378" 
d="M610 1522h158l537 -1522h-152l-162 467h-614l-162 -467h-141zM946 596l-260 754h-4l-260 -754h524zM686 1599q-68 0 -123 23.5t-94 67.5q-40 43 -63 105t-27 140h90q13 -120 69.5 -172t147.5 -52t147 52t70 172h90q-4 -78 -27 -140t-63 -105q-40 -44 -95 -67.5
t-122 -23.5z" />
    <glyph glyph-name="abreve" unicode="&#x103;" horiz-adv-x="1120" 
d="M403 -18q-145 0 -225 71.5t-80 198.5q0 80 37 149t123 126t225.5 101.5t345.5 76.5v55q0 112 -56 166.5t-163 54.5q-64 0 -119 -13t-104 -35q-49 -23 -93.5 -54t-86.5 -68l-76 88q48 45 101 82t114 64q60 26 128.5 40.5t148.5 14.5q90 0 155.5 -23.5t108.5 -67.5
q42 -45 62 -108.5t20 -144.5v-490q0 -99 6.5 -161.5t23.5 -104.5h-145q-11 34 -18 70.5t-7 83.5q-94 -85 -199 -128.5t-227 -43.5zM434 98q115 0 213.5 45t181.5 125v336q-173 -29 -287 -65t-181 -78q-68 -42 -95.5 -90t-27.5 -101q0 -85 52.5 -128.5t143.5 -43.5zM559 1186
q-68 0 -123 23.5t-94 67.5q-40 43 -63 105t-27 140h90q13 -120 69.5 -172t147.5 -52t147 52t70 172h90q-4 -78 -27 -140t-63 -105q-40 -44 -95 -67.5t-122 -23.5z" />
    <glyph glyph-name="Aogonek" unicode="&#x104;" horiz-adv-x="1378" 
d="M610 1522h158l537 -1522h-152l-162 467h-614l-162 -467h-141zM946 596l-260 754h-4l-260 -754h524zM1173 -383q-90 0 -140.5 41.5t-50.5 116.5q0 31 14.5 63.5t39.5 62.5q24 31 57 59t70 52h96q-74 -51 -116 -105.5t-42 -111.5q0 -43 25 -69.5t82 -26.5q49 0 96 13t98 36
l31 -53q-62 -35 -127 -56.5t-133 -21.5z" />
    <glyph glyph-name="aogonek" unicode="&#x105;" horiz-adv-x="1120" 
d="M403 -18q-145 0 -225 71.5t-80 198.5q0 80 37 149t123 126t225.5 101.5t345.5 76.5v55q0 112 -56 166.5t-163 54.5q-64 0 -119 -13t-104 -35q-49 -23 -93.5 -54t-86.5 -68l-76 88q48 45 101 82t114 64q60 26 128.5 40.5t148.5 14.5q90 0 155.5 -23.5t108.5 -67.5
q42 -45 62 -108.5t20 -144.5v-490q0 -99 6.5 -161.5t23.5 -104.5h-145q-11 34 -18 70.5t-7 83.5q-94 -85 -199 -128.5t-227 -43.5zM434 98q115 0 213.5 45t181.5 125v336q-173 -29 -287 -65t-181 -78q-68 -42 -95.5 -90t-27.5 -101q0 -85 52.5 -128.5t143.5 -43.5zM874 -383
q-90 0 -140.5 41.5t-50.5 116.5q0 31 14.5 63.5t39.5 62.5q24 31 57 59t70 52h96q-74 -51 -116 -105.5t-42 -111.5q0 -43 25 -69.5t82 -26.5q49 0 96 13t98 36l31 -53q-62 -35 -127 -56.5t-133 -21.5z" />
    <glyph glyph-name="Cacute" unicode="&#x106;" horiz-adv-x="1432" 
d="M819 1926h186l-289 -319h-92zM752 -29q-144 0 -260.5 56t-198.5 160q-83 103 -127.5 249.5t-44.5 327.5q0 172 45.5 315.5t128.5 246.5q82 103 198.5 160.5t258.5 57.5q115 0 205 -33t158 -93q67 -61 112.5 -146.5t72.5 -190.5l-139 -34q-25 90 -60 158t-84 114
q-49 45 -114.5 68.5t-152.5 23.5q-110 0 -199.5 -46t-152.5 -130t-97.5 -202.5t-34.5 -264.5q0 -158 35 -281.5t99 -208.5q63 -86 153 -131t201 -45q170 0 276 96.5t156 288.5l139 -30q-28 -112 -78.5 -202t-122.5 -153t-165 -97t-207 -34z" />
    <glyph glyph-name="cacute" unicode="&#x107;" horiz-adv-x="1087" 
d="M678 1513h186l-289 -319h-92zM569 -23q-93 0 -177.5 37.5t-148.5 109.5q-65 71 -103 175.5t-38 239.5q0 145 41.5 251t109.5 175q67 69 153.5 102t177.5 33q87 0 152.5 -24t115.5 -64q49 -41 84.5 -94.5t60.5 -112.5l-120 -53q-45 109 -114.5 168t-182.5 59
q-60 0 -120 -23t-108 -75t-78 -135.5t-30 -204.5q0 -106 25.5 -188.5t69.5 -138.5q44 -57 104.5 -86.5t131.5 -29.5q56 0 101 13.5t82 41.5t67.5 71.5t59.5 103.5l114 -49q-32 -69 -72.5 -124.5t-92.5 -94.5q-52 -40 -117.5 -61.5t-147.5 -21.5z" />
    <glyph glyph-name="Ccircumflex" unicode="&#x108;" horiz-adv-x="1432" 
d="M692 1926h106l265 -325h-90l-230 201l-229 -201h-86zM752 -29q-144 0 -260.5 56t-198.5 160q-83 103 -127.5 249.5t-44.5 327.5q0 172 45.5 315.5t128.5 246.5q82 103 198.5 160.5t258.5 57.5q115 0 205 -33t158 -93q67 -61 112.5 -146.5t72.5 -190.5l-139 -34
q-25 90 -60 158t-84 114q-49 45 -114.5 68.5t-152.5 23.5q-110 0 -199.5 -46t-152.5 -130t-97.5 -202.5t-34.5 -264.5q0 -158 35 -281.5t99 -208.5q63 -86 153 -131t201 -45q170 0 276 96.5t156 288.5l139 -30q-28 -112 -78.5 -202t-122.5 -153t-165 -97t-207 -34z" />
    <glyph glyph-name="ccircumflex" unicode="&#x109;" horiz-adv-x="1087" 
d="M493 1513h106l265 -325h-90l-230 201l-229 -201h-86zM569 -23q-93 0 -177.5 37.5t-148.5 109.5q-65 71 -103 175.5t-38 239.5q0 145 41.5 251t109.5 175q67 69 153.5 102t177.5 33q87 0 152.5 -24t115.5 -64q49 -41 84.5 -94.5t60.5 -112.5l-120 -53q-45 109 -114.5 168
t-182.5 59q-60 0 -120 -23t-108 -75t-78 -135.5t-30 -204.5q0 -106 25.5 -188.5t69.5 -138.5q44 -57 104.5 -86.5t131.5 -29.5q56 0 101 13.5t82 41.5t67.5 71.5t59.5 103.5l114 -49q-32 -69 -72.5 -124.5t-92.5 -94.5q-52 -40 -117.5 -61.5t-147.5 -21.5z" />
    <glyph glyph-name="Cdotaccent" unicode="&#x10a;" horiz-adv-x="1432" 
d="M752 -29q-144 0 -260.5 56t-198.5 160q-83 103 -127.5 249.5t-44.5 327.5q0 172 45.5 315.5t128.5 246.5q82 103 198.5 160.5t258.5 57.5q115 0 205 -33t158 -93q67 -61 112.5 -146.5t72.5 -190.5l-139 -34q-25 90 -60 158t-84 114q-49 45 -114.5 68.5t-152.5 23.5
q-110 0 -199.5 -46t-152.5 -130t-97.5 -202.5t-34.5 -264.5q0 -158 35 -281.5t99 -208.5q63 -86 153 -131t201 -45q170 0 276 96.5t156 288.5l139 -30q-28 -112 -78.5 -202t-122.5 -153t-165 -97t-207 -34zM657 1777h172v-164h-172v164z" />
    <glyph glyph-name="cdotaccent" unicode="&#x10b;" horiz-adv-x="1087" 
d="M569 -23q-93 0 -177.5 37.5t-148.5 109.5q-65 71 -103 175.5t-38 239.5q0 145 41.5 251t109.5 175q67 69 153.5 102t177.5 33q87 0 152.5 -24t115.5 -64q49 -41 84.5 -94.5t60.5 -112.5l-120 -53q-45 109 -114.5 168t-182.5 59q-60 0 -120 -23t-108 -75t-78 -135.5
t-30 -204.5q0 -106 25.5 -188.5t69.5 -138.5q44 -57 104.5 -86.5t131.5 -29.5q56 0 101 13.5t82 41.5t67.5 71.5t59.5 103.5l114 -49q-32 -69 -72.5 -124.5t-92.5 -94.5q-52 -40 -117.5 -61.5t-147.5 -21.5zM462 1364h172v-164h-172v164z" />
    <glyph glyph-name="Ccaron" unicode="&#x10c;" horiz-adv-x="1432" 
d="M395 1935h90l229 -201l232 201h86l-265 -326h-108zM752 -29q-144 0 -260.5 56t-198.5 160q-83 103 -127.5 249.5t-44.5 327.5q0 172 45.5 315.5t128.5 246.5q82 103 198.5 160.5t258.5 57.5q115 0 205 -33t158 -93q67 -61 112.5 -146.5t72.5 -190.5l-139 -34
q-25 90 -60 158t-84 114q-49 45 -114.5 68.5t-152.5 23.5q-110 0 -199.5 -46t-152.5 -130t-97.5 -202.5t-34.5 -264.5q0 -158 35 -281.5t99 -208.5q63 -86 153 -131t201 -45q170 0 276 96.5t156 288.5l139 -30q-28 -112 -78.5 -202t-122.5 -153t-165 -97t-207 -34z" />
    <glyph glyph-name="ccaron" unicode="&#x10d;" horiz-adv-x="1087" 
d="M223 1522h90l229 -201l232 201h86l-265 -326h-108zM569 -23q-93 0 -177.5 37.5t-148.5 109.5q-65 71 -103 175.5t-38 239.5q0 145 41.5 251t109.5 175q67 69 153.5 102t177.5 33q87 0 152.5 -24t115.5 -64q49 -41 84.5 -94.5t60.5 -112.5l-120 -53q-45 109 -114.5 168
t-182.5 59q-60 0 -120 -23t-108 -75t-78 -135.5t-30 -204.5q0 -106 25.5 -188.5t69.5 -138.5q44 -57 104.5 -86.5t131.5 -29.5q56 0 101 13.5t82 41.5t67.5 71.5t59.5 103.5l114 -49q-32 -69 -72.5 -124.5t-92.5 -94.5q-52 -40 -117.5 -61.5t-147.5 -21.5z" />
    <glyph glyph-name="Dcaron" unicode="&#x10e;" horiz-adv-x="1452" 
d="M405 1935h90l229 -201l232 201h86l-265 -326h-108zM195 1516h383q370 0 561.5 -190.5t191.5 -565.5q0 -188 -49 -330t-144 -237q-96 -96 -236.5 -144.5t-323.5 -48.5h-383v1516zM600 131q141 0 250 36.5t184 113.5q74 77 113 196t39 283q0 160 -39 277t-114 194
q-76 76 -186 112.5t-251 36.5h-256v-1249h260z" />
    <glyph glyph-name="dcaron" unicode="&#x10f;" horiz-adv-x="1214" 
d="M1231 1335h-64v181h166v-162l-88 -221h-61zM549 -18q-93 0 -174 34t-141 103q-61 69 -95.5 174t-34.5 246t35 246.5t97 175.5q61 69 144.5 104t180.5 35q52 0 101 -13t94 -35q44 -23 82.5 -54t70.5 -66v584h142v-1250q0 -99 7 -161.5t25 -104.5h-149q-9 28 -17 71t-8 87
q-33 -36 -70.5 -68t-81.5 -56t-95.5 -38t-112.5 -14zM573 102q50 0 94.5 12.5t85.5 35.5t79.5 55.5t76.5 73.5v524q-80 87 -161 132.5t-175 45.5q-71 0 -131 -26.5t-103 -80.5q-44 -55 -68.5 -139t-24.5 -198q0 -111 26 -193t70 -136t103.5 -80t127.5 -26z" />
    <glyph glyph-name="Dcroat" unicode="&#x110;" horiz-adv-x="1452" 
d="M195 737h-170v123h170v656h383q370 0 561.5 -191t191.5 -567q0 -187 -49 -328.5t-144 -236.5q-96 -96 -236.5 -144.5t-323.5 -48.5h-383v737zM600 131q141 0 250 36.5t184 113.5q74 77 113 196t39 283q0 160 -39 277t-114 194q-76 76 -186 112.5t-251 36.5h-256v-520h328
v-123h-328v-606h260z" />
    <glyph glyph-name="dcroat" unicode="&#x111;" horiz-adv-x="1214" 
d="M684 1341h225v175h142v-175h178v-108h-178v-967q0 -99 7 -161.5t25 -104.5h-149q-9 28 -17 73t-8 89q-33 -36 -70.5 -68.5t-81.5 -57.5t-95.5 -39.5t-112.5 -14.5q-93 0 -174 33.5t-141 102.5q-61 69 -95.5 173.5t-34.5 245.5t35 246.5t96 176.5q60 70 142 105t176 35
q55 0 106 -13.5t96 -37.5t83.5 -56t70.5 -69v309h-225v108zM573 98q50 0 93.5 12t84.5 35q40 22 78.5 55t79.5 74v531q-41 42 -81.5 75t-81.5 56q-41 22 -85 33.5t-92 11.5q-67 0 -125.5 -26t-102.5 -80q-44 -55 -69.5 -138.5t-25.5 -197.5q0 -112 26 -195t70 -137
q44 -55 103.5 -82t127.5 -27z" />
    <glyph glyph-name="Emacron" unicode="&#x112;" horiz-adv-x="1237" 
d="M195 1516h905v-136h-760v-514h567v-131h-567v-602h803v-133h-948v1516zM399 1728h516v-121h-516v121z" />
    <glyph glyph-name="emacron" unicode="&#x113;" horiz-adv-x="1118" 
d="M575 -23q-94 0 -179.5 36t-150.5 108q-66 71 -104.5 176.5t-38.5 243.5q0 144 42 249t110 174q67 69 151.5 102.5t169.5 33.5q94 0 175 -36t140 -106q59 -71 92.5 -176t33.5 -243v-27h-772q1 -100 28 -177.5t73 -130.5t107.5 -80.5t131.5 -27.5q60 0 108.5 13t89.5 38
q40 25 73.5 61.5t64.5 84.5l88 -70q-36 -57 -79 -102.5t-96 -77.5t-117 -49t-141 -17zM879 625q-6 76 -27 141.5t-59 113.5q-38 47 -93 74t-127 27q-58 0 -113 -21.5t-99 -65.5t-74.5 -111t-40.5 -158h633zM299 1315h516v-121h-516v121z" />
    <glyph glyph-name="Ebreve" unicode="&#x114;" horiz-adv-x="1237" 
d="M195 1516h905v-136h-760v-514h567v-131h-567v-602h803v-133h-948v1516zM618 1597q-68 0 -123 23.5t-94 67.5q-40 43 -63 105t-27 140h90q13 -120 69.5 -172t147.5 -52t147 52t70 172h90q-4 -78 -27 -140t-63 -105q-40 -44 -95 -67.5t-122 -23.5z" />
    <glyph glyph-name="ebreve" unicode="&#x115;" horiz-adv-x="1118" 
d="M575 -23q-94 0 -179.5 36t-150.5 108q-66 71 -104.5 176.5t-38.5 243.5q0 144 42 249t110 174q67 69 151.5 102.5t169.5 33.5q94 0 175 -36t140 -106q59 -71 92.5 -176t33.5 -243v-27h-772q1 -100 28 -177.5t73 -130.5t107.5 -80.5t131.5 -27.5q60 0 108.5 13t89.5 38
q40 25 73.5 61.5t64.5 84.5l88 -70q-36 -57 -79 -102.5t-96 -77.5t-117 -49t-141 -17zM879 625q-6 76 -27 141.5t-59 113.5q-38 47 -93 74t-127 27q-58 0 -113 -21.5t-99 -65.5t-74.5 -111t-40.5 -158h633zM559 1186q-68 0 -123 23.5t-94 67.5q-40 43 -63 105t-27 140h90
q13 -120 69.5 -172t147.5 -52t147 52t70 172h90q-4 -78 -27 -140t-63 -105q-40 -44 -95 -67.5t-122 -23.5z" />
    <glyph glyph-name="Edotaccent" unicode="&#x116;" horiz-adv-x="1237" 
d="M195 1516h905v-136h-760v-514h567v-131h-567v-602h803v-133h-948v1516zM571 1777h172v-164h-172v164z" />
    <glyph glyph-name="edotaccent" unicode="&#x117;" horiz-adv-x="1118" 
d="M575 -23q-94 0 -179.5 36t-150.5 108q-66 71 -104.5 176.5t-38.5 243.5q0 144 42 249t110 174q67 69 151.5 102.5t169.5 33.5q94 0 175 -36t140 -106q59 -71 92.5 -176t33.5 -243v-27h-772q1 -100 28 -177.5t73 -130.5t107.5 -80.5t131.5 -27.5q60 0 108.5 13t89.5 38
q40 25 73.5 61.5t64.5 84.5l88 -70q-36 -57 -79 -102.5t-96 -77.5t-117 -49t-141 -17zM879 625q-6 76 -27 141.5t-59 113.5q-38 47 -93 74t-127 27q-58 0 -113 -21.5t-99 -65.5t-74.5 -111t-40.5 -158h633zM471 1364h172v-164h-172v164z" />
    <glyph glyph-name="Eogonek" unicode="&#x118;" horiz-adv-x="1237" 
d="M909 -383q-90 0 -140.5 41.5t-50.5 116.5q0 31 14.5 63.5t39.5 62.5q24 31 57 59t70 52h96q-74 -51 -116 -105.5t-42 -111.5q0 -43 25 -69.5t82 -26.5q49 0 96 13t98 36l31 -53q-62 -35 -127 -56.5t-133 -21.5zM195 1516h905v-136h-760v-514h567v-131h-567v-602h803v-133
h-948v1516z" />
    <glyph glyph-name="eogonek" unicode="&#x119;" horiz-adv-x="1118" 
d="M626 -383q-90 0 -140.5 41.5t-50.5 116.5q0 31 14.5 63.5t39.5 62.5q24 31 57 59t70 52h96q-74 -51 -116 -105.5t-42 -111.5q0 -43 25 -69.5t82 -26.5q49 0 96 13t98 36l31 -53q-62 -35 -127 -56.5t-133 -21.5zM575 -23q-94 0 -179.5 36t-150.5 108q-66 71 -104.5 176.5
t-38.5 243.5q0 144 42 249t110 174q67 69 151.5 102.5t169.5 33.5q94 0 175 -36t140 -106q59 -71 92.5 -176t33.5 -243v-27h-772q1 -100 28 -177.5t73 -130.5t107.5 -80.5t131.5 -27.5q60 0 108.5 13t89.5 38q40 25 73.5 61.5t64.5 84.5l88 -70q-36 -57 -79 -102.5
t-96 -77.5t-117 -49t-141 -17zM879 625q-6 76 -27 141.5t-59 113.5q-38 47 -93 74t-127 27q-58 0 -113 -21.5t-99 -65.5t-74.5 -111t-40.5 -158h633z" />
    <glyph glyph-name="Ecaron" unicode="&#x11a;" horiz-adv-x="1237" 
d="M338 1935h90l229 -201l232 201h86l-265 -326h-108zM195 1516h905v-136h-760v-514h567v-131h-567v-602h803v-133h-948v1516z" />
    <glyph glyph-name="ecaron" unicode="&#x11b;" horiz-adv-x="1118" 
d="M237 1522h90l229 -201l232 201h86l-265 -326h-108zM575 -23q-94 0 -179.5 36t-150.5 108q-66 71 -104.5 176.5t-38.5 243.5q0 144 42 249t110 174q67 69 151.5 102.5t169.5 33.5q94 0 175 -36t140 -106q59 -71 92.5 -176t33.5 -243v-27h-772q1 -100 28 -177.5t73 -130.5
t107.5 -80.5t131.5 -27.5q60 0 108.5 13t89.5 38q40 25 73.5 61.5t64.5 84.5l88 -70q-36 -57 -79 -102.5t-96 -77.5t-117 -49t-141 -17zM879 625q-6 76 -27 141.5t-59 113.5q-38 47 -93 74t-127 27q-58 0 -113 -21.5t-99 -65.5t-74.5 -111t-40.5 -158h633z" />
    <glyph glyph-name="Gcircumflex" unicode="&#x11c;" horiz-adv-x="1481" 
d="M698 1926h106l265 -325h-90l-230 201l-229 -201h-86zM743 -29q-149 0 -264.5 60t-194.5 166q-80 106 -121.5 251t-41.5 316q0 179 47.5 323t131.5 246q84 101 200 156t254 55q216 0 354 -118t197 -347l-140 -32q-27 93 -63 161.5t-85 113.5q-50 45 -115.5 67t-149.5 22
q-99 0 -187 -40.5t-154 -120.5q-67 -80 -106 -200t-39 -280q0 -159 35.5 -283.5t100.5 -209.5q64 -86 154.5 -130.5t199.5 -44.5q95 0 173 33t133 95t85 152.5t29 205.5h-367v125h508v-713h-131v231h-4q-26 -50 -64 -97t-91 -83t-123.5 -58t-160.5 -22z" />
    <glyph glyph-name="gcircumflex" unicode="&#x11d;" horiz-adv-x="1159" 
d="M489 1513h106l265 -325h-90l-230 201l-229 -201h-86zM557 -414q-131 0 -227.5 19t-159.5 54t-94 85.5t-31 112.5q0 83 52.5 145.5t146.5 99.5q-48 20 -72.5 54.5t-24.5 83.5t36.5 89.5t95.5 71.5q-78 50 -121 130t-43 180q0 86 32 157.5t89 123.5q57 51 135 79.5
t170 28.5q94 0 172 -29t135 -82q24 18 53.5 34t62.5 29t67.5 22t66.5 13v-133q-48 0 -99 -8t-98 -28q31 -42 47.5 -93t16.5 -114q0 -89 -32.5 -159.5t-89.5 -120.5t-134.5 -76.5t-167.5 -26.5q-47 0 -90.5 7.5t-83.5 22.5q-39 -15 -62.5 -38t-23.5 -54q0 -17 8 -30t27 -23
q18 -10 48.5 -17t75.5 -12l236 -18q187 -16 284 -82.5t97 -192.5q0 -74 -36.5 -130.5t-102.5 -95.5t-158 -59t-203 -20zM543 436q66 0 119 19.5t91 55.5q37 35 57.5 85.5t20.5 112.5q0 64 -19.5 115.5t-56.5 87.5t-91 55.5t-123 19.5q-67 0 -120.5 -20t-90.5 -56
q-38 -36 -58 -87.5t-20 -114.5q0 -62 20.5 -112.5t59.5 -85.5q38 -36 91.5 -55.5t119.5 -19.5zM571 -303q83 0 149 13t112 37q45 24 69.5 57.5t24.5 74.5q0 39 -16 68t-51 49q-36 21 -92 34t-136 19l-215 17l-56 6q-90 -29 -135 -82.5t-45 -114.5q0 -85 93.5 -131.5
t297.5 -46.5z" />
    <glyph glyph-name="Gbreve" unicode="&#x11e;" horiz-adv-x="1481" 
d="M743 -29q-149 0 -264.5 60t-194.5 166q-80 106 -121.5 251t-41.5 316q0 179 47.5 323t131.5 246q84 101 200 156t254 55q216 0 354 -118t197 -347l-140 -32q-27 93 -63 161.5t-85 113.5q-50 45 -115.5 67t-149.5 22q-99 0 -187 -40.5t-154 -120.5q-67 -80 -106 -200
t-39 -280q0 -159 35.5 -283.5t100.5 -209.5q64 -86 154.5 -130.5t199.5 -44.5q95 0 173 33t133 95t85 152.5t29 205.5h-367v125h508v-713h-131v231h-4q-26 -50 -64 -97t-91 -83t-123.5 -58t-160.5 -22zM739 1599q-68 0 -123 23.5t-94 67.5q-40 43 -63 105t-27 140h90
q13 -120 69.5 -172t147.5 -52t147 52t70 172h90q-4 -78 -27 -140t-63 -105q-40 -44 -95 -67.5t-122 -23.5z" />
    <glyph glyph-name="gbreve" unicode="&#x11f;" horiz-adv-x="1159" 
d="M557 -414q-131 0 -227.5 19t-159.5 54t-94 85.5t-31 112.5q0 83 52.5 145.5t146.5 99.5q-48 20 -72.5 54.5t-24.5 83.5t36.5 89.5t95.5 71.5q-78 50 -121 130t-43 180q0 86 32 157.5t89 123.5q57 51 135 79.5t170 28.5q94 0 172 -29t135 -82q24 18 53.5 34t62.5 29
t67.5 22t66.5 13v-133q-48 0 -99 -8t-98 -28q31 -42 47.5 -93t16.5 -114q0 -89 -32.5 -159.5t-89.5 -120.5t-134.5 -76.5t-167.5 -26.5q-47 0 -90.5 7.5t-83.5 22.5q-39 -15 -62.5 -38t-23.5 -54q0 -17 8 -30t27 -23q18 -10 48.5 -17t75.5 -12l236 -18q187 -16 284 -82.5
t97 -192.5q0 -74 -36.5 -130.5t-102.5 -95.5t-158 -59t-203 -20zM543 436q66 0 119 19.5t91 55.5q37 35 57.5 85.5t20.5 112.5q0 64 -19.5 115.5t-56.5 87.5t-91 55.5t-123 19.5q-67 0 -120.5 -20t-90.5 -56q-38 -36 -58 -87.5t-20 -114.5q0 -62 20.5 -112.5t59.5 -85.5
q38 -36 91.5 -55.5t119.5 -19.5zM571 -303q83 0 149 13t112 37q45 24 69.5 57.5t24.5 74.5q0 39 -16 68t-51 49q-36 21 -92 34t-136 19l-215 17l-56 6q-90 -29 -135 -82.5t-45 -114.5q0 -85 93.5 -131.5t297.5 -46.5zM559 1186q-68 0 -123 23.5t-94 67.5q-40 43 -63 105
t-27 140h90q13 -120 69.5 -172t147.5 -52t147 52t70 172h90q-4 -78 -27 -140t-63 -105q-40 -44 -95 -67.5t-122 -23.5z" />
    <glyph glyph-name="Gdotaccent" unicode="&#x120;" horiz-adv-x="1481" 
d="M743 -29q-149 0 -264.5 60t-194.5 166q-80 106 -121.5 251t-41.5 316q0 179 47.5 323t131.5 246q84 101 200 156t254 55q216 0 354 -118t197 -347l-140 -32q-27 93 -63 161.5t-85 113.5q-50 45 -115.5 67t-149.5 22q-99 0 -187 -40.5t-154 -120.5q-67 -80 -106 -200
t-39 -280q0 -159 35.5 -283.5t100.5 -209.5q64 -86 154.5 -130.5t199.5 -44.5q95 0 173 33t133 95t85 152.5t29 205.5h-367v125h508v-713h-131v231h-4q-26 -50 -64 -97t-91 -83t-123.5 -58t-160.5 -22zM651 1777h172v-164h-172v164z" />
    <glyph glyph-name="gdotaccent" unicode="&#x121;" horiz-adv-x="1159" 
d="M557 -414q-131 0 -227.5 19t-159.5 54t-94 85.5t-31 112.5q0 83 52.5 145.5t146.5 99.5q-48 20 -72.5 54.5t-24.5 83.5t36.5 89.5t95.5 71.5q-78 50 -121 130t-43 180q0 86 32 157.5t89 123.5q57 51 135 79.5t170 28.5q94 0 172 -29t135 -82q24 18 53.5 34t62.5 29
t67.5 22t66.5 13v-133q-48 0 -99 -8t-98 -28q31 -42 47.5 -93t16.5 -114q0 -89 -32.5 -159.5t-89.5 -120.5t-134.5 -76.5t-167.5 -26.5q-47 0 -90.5 7.5t-83.5 22.5q-39 -15 -62.5 -38t-23.5 -54q0 -17 8 -30t27 -23q18 -10 48.5 -17t75.5 -12l236 -18q187 -16 284 -82.5
t97 -192.5q0 -74 -36.5 -130.5t-102.5 -95.5t-158 -59t-203 -20zM543 436q66 0 119 19.5t91 55.5q37 35 57.5 85.5t20.5 112.5q0 64 -19.5 115.5t-56.5 87.5t-91 55.5t-123 19.5q-67 0 -120.5 -20t-90.5 -56q-38 -36 -58 -87.5t-20 -114.5q0 -62 20.5 -112.5t59.5 -85.5
q38 -36 91.5 -55.5t119.5 -19.5zM571 -303q83 0 149 13t112 37q45 24 69.5 57.5t24.5 74.5q0 39 -16 68t-51 49q-36 21 -92 34t-136 19l-215 17l-56 6q-90 -29 -135 -82.5t-45 -114.5q0 -85 93.5 -131.5t297.5 -46.5zM454 1364h172v-164h-172v164z" />
    <glyph glyph-name="uni0122" unicode="&#x122;" horiz-adv-x="1481" 
d="M720 -283h-66v183h170v-164l-90 -221h-61zM743 -29q-149 0 -264.5 60t-194.5 166q-80 106 -121.5 251t-41.5 316q0 179 47.5 323t131.5 246q84 101 200 156t254 55q216 0 354 -118t197 -347l-140 -32q-27 93 -63 161.5t-85 113.5q-50 45 -115.5 67t-149.5 22
q-99 0 -187 -40.5t-154 -120.5q-67 -80 -106 -200t-39 -280q0 -159 35.5 -283.5t100.5 -209.5q64 -86 154.5 -130.5t199.5 -44.5q95 0 173 33t133 95t85 152.5t29 205.5h-367v125h508v-713h-131v231h-4q-26 -50 -64 -97t-91 -83t-123.5 -58t-160.5 -22z" />
    <glyph glyph-name="uni0123" unicode="&#x123;" horiz-adv-x="1159" 
d="M474 1358l89 221h61l-47 -203h67v-182h-170v164zM557 -414q-131 0 -227.5 19t-159.5 54t-94 85.5t-31 112.5q0 83 52.5 145.5t146.5 99.5q-48 20 -72.5 54.5t-24.5 83.5t36.5 89.5t95.5 71.5q-78 50 -121 130t-43 180q0 86 32 157.5t89 123.5q57 51 135 79.5t170 28.5
q94 0 172 -29t135 -82q24 18 53.5 34t62.5 29t67.5 22t66.5 13v-133q-48 0 -99 -8t-98 -28q31 -42 47.5 -93t16.5 -114q0 -89 -32.5 -159.5t-89.5 -120.5t-134.5 -76.5t-167.5 -26.5q-47 0 -90.5 7.5t-83.5 22.5q-39 -15 -62.5 -38t-23.5 -54q0 -17 8 -30t27 -23
q18 -10 48.5 -17t75.5 -12l236 -18q187 -16 284 -82.5t97 -192.5q0 -74 -36.5 -130.5t-102.5 -95.5t-158 -59t-203 -20zM543 436q66 0 119 19.5t91 55.5q37 35 57.5 85.5t20.5 112.5q0 64 -19.5 115.5t-56.5 87.5t-91 55.5t-123 19.5q-67 0 -120.5 -20t-90.5 -56
q-38 -36 -58 -87.5t-20 -114.5q0 -62 20.5 -112.5t59.5 -85.5q38 -36 91.5 -55.5t119.5 -19.5zM571 -303q83 0 149 13t112 37q45 24 69.5 57.5t24.5 74.5q0 39 -16 68t-51 49q-36 21 -92 34t-136 19l-215 17l-56 6q-90 -29 -135 -82.5t-45 -114.5q0 -85 93.5 -131.5
t297.5 -46.5z" />
    <glyph glyph-name="Hcircumflex" unicode="&#x124;" horiz-adv-x="1499" 
d="M696 1926h106l265 -325h-90l-230 201l-229 -201h-86zM195 1516h145v-650h821v650h146v-1516h-146v733h-821v-733h-145v1516z" />
    <glyph glyph-name="hcircumflex" unicode="&#x125;" horiz-adv-x="1190" 
d="M181 1926h106l265 -325h-90l-230 201l-229 -201h-86zM164 1516h141v-607q39 39 84.5 73.5t97.5 60.5q51 26 108.5 41.5t121.5 15.5q160 0 240.5 -84.5t80.5 -235.5v-780h-141v754q0 114 -52 169.5t-163 55.5q-104 0 -195 -50.5t-182 -137.5v-791h-141v1516z" />
    <glyph glyph-name="Hbar" unicode="&#x126;" horiz-adv-x="1499" 
d="M25 1245h170v271h145v-271h821v271h146v-271h170v-123h-170v-1122h-146v733h-821v-733h-145v1122h-170v123zM1161 866v256h-821v-256h821z" />
    <glyph glyph-name="hbar" unicode="&#x127;" horiz-adv-x="1190" 
d="M-14 1341h178v175h141v-175h225v-108h-225v-324q39 39 84.5 73.5t97.5 60.5q51 26 108.5 41.5t121.5 15.5q160 0 240.5 -84.5t80.5 -235.5v-780h-141v754q0 114 -52 169.5t-163 55.5q-104 0 -195 -50.5t-182 -137.5v-791h-141v1233h-178v108z" />
    <glyph glyph-name="Itilde" unicode="&#x128;" horiz-adv-x="575" 
d="M215 1516h145v-1516h-145v1516zM441 1601q-43 0 -84 18t-79 40q-38 21 -72.5 39t-65.5 18q-47 0 -65.5 -25.5t-18.5 -85.5h-90q0 118 43.5 171.5t128.5 53.5q43 0 83.5 -18t79.5 -39q38 -21 73 -39t67 -18q45 0 64.5 25t19.5 85h90q0 -115 -44.5 -170t-129.5 -55z" />
    <glyph glyph-name="itilde" unicode="&#x129;" horiz-adv-x="492" 
d="M176 1079h141v-1079h-141v1079zM400 1188q-43 0 -84 18t-79 40q-38 21 -72.5 39t-65.5 18q-47 0 -65.5 -25.5t-18.5 -85.5h-90q0 118 43.5 171.5t128.5 53.5q43 0 83.5 -18t79.5 -39q38 -21 73 -39t67 -18q45 0 64.5 25t19.5 85h90q0 -115 -44.5 -170t-129.5 -55z" />
    <glyph glyph-name="Imacron" unicode="&#x12a;" horiz-adv-x="575" 
d="M215 1516h145v-1516h-145v1516zM31 1728h516v-121h-516v121z" />
    <glyph glyph-name="imacron" unicode="&#x12b;" horiz-adv-x="492" 
d="M176 1079h141v-1079h-141v1079zM-10 1315h516v-121h-516v121z" />
    <glyph glyph-name="Ibreve" unicode="&#x12c;" horiz-adv-x="575" 
d="M215 1516h145v-1516h-145v1516zM289 1597q-68 0 -123 23.5t-94 67.5q-40 43 -63 105t-27 140h90q13 -120 69.5 -172t147.5 -52t147 52t70 172h90q-4 -78 -27 -140t-63 -105q-40 -44 -95 -67.5t-122 -23.5z" />
    <glyph glyph-name="ibreve" unicode="&#x12d;" horiz-adv-x="492" 
d="M176 1079h141v-1079h-141v1079zM248 1186q-68 0 -123 23.5t-94 67.5q-40 43 -63 105t-27 140h90q13 -120 69.5 -172t147.5 -52t147 52t70 172h90q-4 -78 -27 -140t-63 -105q-40 -44 -95 -67.5t-122 -23.5z" />
    <glyph glyph-name="Iogonek" unicode="&#x12e;" horiz-adv-x="575" 
d="M215 1516h145v-1516h-145v1516zM238 -383q-90 0 -140.5 41.5t-50.5 116.5q0 31 14.5 63.5t39.5 62.5q24 31 57 59t70 52h96q-74 -51 -116 -105.5t-42 -111.5q0 -43 25 -69.5t82 -26.5q49 0 96 13t98 36l31 -53q-62 -35 -127 -56.5t-133 -21.5z" />
    <glyph glyph-name="iogonek" unicode="&#x12f;" horiz-adv-x="492" 
d="M176 1079h141v-1079h-141v1079zM172 1481h150v-152h-150v152zM197 -383q-90 0 -140.5 41.5t-50.5 116.5q0 31 14.5 63.5t39.5 62.5q24 31 57 59t70 52h96q-74 -51 -116 -105.5t-42 -111.5q0 -43 25 -69.5t82 -26.5q49 0 96 13t98 36l31 -53q-62 -35 -127 -56.5
t-133 -21.5z" />
    <glyph glyph-name="Idotaccent" unicode="&#x130;" horiz-adv-x="575" 
d="M215 1516h145v-1516h-145v1516zM203 1777h172v-164h-172v164z" />
    <glyph glyph-name="dotlessi" unicode="&#x131;" horiz-adv-x="492" 
d="M176 1079h141v-1079h-141v1079z" />
    <glyph glyph-name="IJ" unicode="&#x132;" horiz-adv-x="1513" 
d="M215 1516h145v-1516h-145v1516zM923 -29q-70 0 -126 15.5t-102 43.5t-82 66.5t-65 83.5l103 78q24 -36 51.5 -65t59.5 -50t70.5 -32t84.5 -11q61 0 110.5 16t85.5 53q35 36 54.5 94.5t19.5 144.5v1108h146v-1110q0 -108 -28.5 -189t-81.5 -136t-129 -82.5t-171 -27.5z
" />
    <glyph glyph-name="ij" unicode="&#x133;" horiz-adv-x="985" 
d="M176 1079h141v-1079h-141v1079zM172 1481h150v-152h-150v152zM581 -412q-8 0 -20.5 0.5t-24.5 1.5q-12 2 -23 3.5t-16 3.5v112q13 -3 30 -5.5t34 -2.5q49 0 77.5 29t28.5 92v1257h141v-1259q0 -56 -12 -99t-39 -73q-27 -29 -70.5 -44.5t-105.5 -15.5zM663 1481h150v-152
h-150v152z" />
    <glyph glyph-name="Jcircumflex" unicode="&#x134;" horiz-adv-x="1020" 
d="M710 1926h106l265 -325h-90l-230 201l-229 -201h-86zM430 -29q-70 0 -126 15.5t-102 43.5t-82 66.5t-65 83.5l103 78q24 -36 51.5 -65t59.5 -50t70.5 -32t84.5 -11q61 0 110.5 16t85.5 53q35 36 54.5 94.5t19.5 144.5v1108h146v-1110q0 -108 -28.5 -189t-81.5 -136
t-129 -82.5t-171 -27.5z" />
    <glyph glyph-name="jcircumflex" unicode="&#x135;" horiz-adv-x="492" 
d="M90 -412q-8 0 -20 0.5t-24 1.5q-13 1 -24 2t-16 2v115q13 -5 30 -6.5t36 -1.5q48 0 76 28.5t28 90.5v1259h141v-1261q0 -55 -12 -97.5t-39 -72.5q-27 -29 -70.5 -44.5t-105.5 -15.5zM195 1513h106l265 -325h-90l-230 201l-229 -201h-86z" />
    <glyph glyph-name="uni0136" unicode="&#x136;" horiz-adv-x="1368" 
d="M665 -283h-66v183h170v-164l-90 -221h-61zM195 1516h145v-818l725 818h178l-520 -574l596 -942h-168l-526 829l-285 -311v-518h-145v1516z" />
    <glyph glyph-name="uni0137" unicode="&#x137;" horiz-adv-x="1085" 
d="M522 -283h-66v183h170v-164l-90 -221h-61zM164 1516h141v-1006l514 569h166l-352 -381l395 -698h-154l-335 590l-234 -250v-340h-141v1516z" />
    <glyph glyph-name="kgreenlandic" unicode="&#x138;" horiz-adv-x="1085" 
d="M164 1079h141v-569l514 569h166l-352 -381l395 -698h-154l-335 592l-234 -252v-340h-141v1079z" />
    <glyph glyph-name="Lacute" unicode="&#x139;" horiz-adv-x="1157" 
d="M412 1926h186l-289 -319h-92zM195 1516h145v-1383h741v-133h-886v1516z" />
    <glyph glyph-name="lacute" unicode="&#x13a;" horiz-adv-x="492" 
d="M394 1926h186l-289 -319h-92zM176 1516h141v-1516h-141v1516z" />
    <glyph glyph-name="uni013B" unicode="&#x13b;" horiz-adv-x="1157" 
d="M559 -283h-66v183h170v-164l-90 -221h-61zM195 1516h145v-1383h741v-133h-886v1516z" />
    <glyph glyph-name="uni013C" unicode="&#x13c;" horiz-adv-x="492" 
d="M230 -283h-66v183h170v-164l-90 -221h-61zM176 1516h141v-1516h-141v1516z" />
    <glyph glyph-name="Lcaron" unicode="&#x13d;" horiz-adv-x="1157" 
d="M677 1330h-66v183h170v-164l-90 -221h-61zM195 1516h145v-1383h741v-133h-886v1516z" />
    <glyph glyph-name="lcaron" unicode="&#x13e;" horiz-adv-x="492" 
d="M496 1335h-64v181h166v-162l-88 -221h-61zM176 1516h141v-1516h-141v1516z" />
    <glyph glyph-name="Ldot" unicode="&#x13f;" horiz-adv-x="1171" 
d="M766 897h168v-166h-168v166zM195 1516h145v-1383h741v-133h-886v1516z" />
    <glyph glyph-name="ldot" unicode="&#x140;" horiz-adv-x="682" 
d="M504 739h166v-166h-166v166zM176 1516h141v-1516h-141v1516z" />
    <glyph glyph-name="Lslash" unicode="&#x141;" horiz-adv-x="1157" 
d="M197 711l-177 -47v122l177 48v682h145v-644l324 89v-123l-324 -88v-617h739v-133h-884v711z" />
    <glyph glyph-name="lslash" unicode="&#x142;" horiz-adv-x="606" 
d="M233 915l-190 -49v115l190 49v486h142v-449l194 53v-114l-194 -54v-952h-142v915z" />
    <glyph glyph-name="Nacute" unicode="&#x143;" horiz-adv-x="1522" 
d="M811 1926h186l-289 -319h-92zM195 1516h155l836 -1250h4v1250h137v-1516h-129l-862 1288h-4v-1288h-137v1516z" />
    <glyph glyph-name="nacute" unicode="&#x144;" horiz-adv-x="1190" 
d="M672 1513h186l-289 -319h-92zM164 1079h141v-170q39 39 84.5 73.5t97.5 60.5q51 26 108.5 41.5t121.5 15.5q160 0 240.5 -84.5t80.5 -235.5v-780h-141v754q0 114 -52 169.5t-163 55.5q-104 0 -195 -50.5t-182 -137.5v-791h-141v1079z" />
    <glyph glyph-name="uni0145" unicode="&#x145;" horiz-adv-x="1522" 
d="M741 -283h-66v183h170v-164l-90 -221h-61zM195 1516h155l836 -1250h4v1250h137v-1516h-129l-862 1288h-4v-1288h-137v1516z" />
    <glyph glyph-name="uni0146" unicode="&#x146;" horiz-adv-x="1190" 
d="M577 -283h-66v183h170v-164l-90 -221h-61zM164 1079h141v-170q39 39 84.5 73.5t97.5 60.5q51 26 108.5 41.5t121.5 15.5q160 0 240.5 -84.5t80.5 -235.5v-780h-141v754q0 114 -52 169.5t-163 55.5q-104 0 -195 -50.5t-182 -137.5v-791h-141v1079z" />
    <glyph glyph-name="Ncaron" unicode="&#x147;" horiz-adv-x="1522" 
d="M438 1935h90l229 -201l232 201h86l-265 -326h-108zM195 1516h155l836 -1250h4v1250h137v-1516h-129l-862 1288h-4v-1288h-137v1516z" />
    <glyph glyph-name="ncaron" unicode="&#x148;" horiz-adv-x="1190" 
d="M274 1522h90l229 -201l232 201h86l-265 -326h-108zM164 1079h141v-170q39 39 84.5 73.5t97.5 60.5q51 26 108.5 41.5t121.5 15.5q160 0 240.5 -84.5t80.5 -235.5v-780h-141v754q0 114 -52 169.5t-163 55.5q-104 0 -195 -50.5t-182 -137.5v-791h-141v1079z" />
    <glyph glyph-name="Eng" unicode="&#x14a;" horiz-adv-x="1522" 
d="M195 1516h155l836 -1250h4v1250h137v-1500q0 -105 -27.5 -185t-78.5 -134q-52 -54 -127 -81.5t-170 -27.5q-73 0 -130.5 16.5t-102.5 44.5q-46 29 -81 68t-63 84l100 80q49 -78 112.5 -123t158.5 -45q57 0 106 15.5t85 50.5t56.5 91.5t22.5 137.5v6l-852 1274h-4v-1288
h-137v1516z" />
    <glyph glyph-name="eng" unicode="&#x14b;" horiz-adv-x="1190" 
d="M164 1079h141v-178q41 41 86.5 77t96.5 63t107 43t118 16q163 0 244 -83.5t81 -234.5v-964q0 -55 -12 -97.5t-39 -72.5q-27 -29 -70.5 -44.5t-105.5 -15.5q-8 0 -20 0.5t-24 1.5q-13 1 -24 2t-16 2v115q12 -5 29.5 -6.5t36.5 -1.5q46 0 75 28.5t29 88.5v936
q0 114 -51.5 170.5t-163.5 56.5q-104 0 -195 -50.5t-182 -137.5v-793h-141v1079z" />
    <glyph glyph-name="Omacron" unicode="&#x14c;" horiz-adv-x="1520" 
d="M499 1728h516v-121h-516v121zM760 -29q-139 0 -256.5 56t-202.5 159t-132.5 248.5t-47.5 323.5t47.5 323t132.5 248t202.5 159t256.5 56t256 -56t202 -159t133 -248t48 -323t-48 -323.5t-133 -248.5t-202 -159t-256 -56zM760 102q108 0 198.5 44.5t156.5 129.5
q65 84 101.5 205.5t36.5 276.5q0 154 -36.5 275.5t-101.5 205.5q-66 84 -156.5 128t-198.5 44t-198.5 -44t-155.5 -128q-66 -84 -103 -205.5t-37 -275.5q0 -155 37 -276.5t103 -205.5q65 -85 155.5 -129.5t198.5 -44.5z" />
    <glyph glyph-name="omacron" unicode="&#x14d;" horiz-adv-x="1182" 
d="M331 1315h516v-121h-516v121zM592 -23q-99 0 -188 37.5t-156 109.5q-67 71 -106.5 175.5t-39.5 239.5t39 239.5t106 176.5q67 71 156 108t189 37q99 0 187.5 -37t155.5 -108q66 -72 105 -176.5t39 -239.5t-39 -239.5t-105 -175.5q-67 -72 -155.5 -109.5t-187.5 -37.5z
M592 98q81 0 145.5 32.5t109.5 91.5q44 59 67.5 140t23.5 179q0 88 -22 167.5t-65 139.5q-44 60 -109 95.5t-150 35.5q-82 0 -146.5 -32.5t-109.5 -90.5q-45 -59 -68.5 -139.5t-23.5 -175.5q0 -90 21.5 -170.5t65.5 -140.5q43 -61 108.5 -96.5t152.5 -35.5z" />
    <glyph glyph-name="Obreve" unicode="&#x14e;" horiz-adv-x="1520" 
d="M760 -29q-139 0 -256.5 56t-202.5 159t-132.5 248.5t-47.5 323.5t47.5 323t132.5 248t202.5 159t256.5 56t256 -56t202 -159t133 -248t48 -323t-48 -323.5t-133 -248.5t-202 -159t-256 -56zM760 102q108 0 198.5 44.5t156.5 129.5q65 84 101.5 205.5t36.5 276.5
q0 154 -36.5 275.5t-101.5 205.5q-66 84 -156.5 128t-198.5 44t-198.5 -44t-155.5 -128q-66 -84 -103 -205.5t-37 -275.5q0 -155 37 -276.5t103 -205.5q65 -85 155.5 -129.5t198.5 -44.5zM757 1599q-68 0 -123 23.5t-94 67.5q-40 43 -63 105t-27 140h90q13 -120 69.5 -172
t147.5 -52t147 52t70 172h90q-4 -78 -27 -140t-63 -105q-40 -44 -95 -67.5t-122 -23.5z" />
    <glyph glyph-name="obreve" unicode="&#x14f;" horiz-adv-x="1182" 
d="M592 -23q-99 0 -188 37.5t-156 109.5q-67 71 -106.5 175.5t-39.5 239.5t39 239.5t106 176.5q67 71 156 108t189 37q99 0 187.5 -37t155.5 -108q66 -72 105 -176.5t39 -239.5t-39 -239.5t-105 -175.5q-67 -72 -155.5 -109.5t-187.5 -37.5zM592 98q81 0 145.5 32.5
t109.5 91.5q44 59 67.5 140t23.5 179q0 88 -22 167.5t-65 139.5q-44 60 -109 95.5t-150 35.5q-82 0 -146.5 -32.5t-109.5 -90.5q-45 -59 -68.5 -139.5t-23.5 -175.5q0 -90 21.5 -170.5t65.5 -140.5q43 -61 108.5 -96.5t152.5 -35.5zM589 1186q-68 0 -123 23.5t-94 67.5
q-40 43 -63 105t-27 140h90q13 -120 69.5 -172t147.5 -52t147 52t70 172h90q-4 -78 -27 -140t-63 -105q-40 -44 -95 -67.5t-122 -23.5z" />
    <glyph glyph-name="Ohungarumlaut" unicode="&#x150;" horiz-adv-x="1520" 
d="M1015 1926h191l-293 -319h-96zM681 1926h191l-289 -319h-96zM760 -29q-139 0 -256.5 56t-202.5 159t-132.5 248.5t-47.5 323.5t47.5 323t132.5 248t202.5 159t256.5 56t256 -56t202 -159t133 -248t48 -323t-48 -323.5t-133 -248.5t-202 -159t-256 -56zM760 102
q108 0 198.5 44.5t156.5 129.5q65 84 101.5 205.5t36.5 276.5q0 154 -36.5 275.5t-101.5 205.5q-66 84 -156.5 128t-198.5 44t-198.5 -44t-155.5 -128q-66 -84 -103 -205.5t-37 -275.5q0 -155 37 -276.5t103 -205.5q65 -85 155.5 -129.5t198.5 -44.5z" />
    <glyph glyph-name="ohungarumlaut" unicode="&#x151;" horiz-adv-x="1182" 
d="M863 1513h191l-293 -319h-96zM529 1513h191l-289 -319h-96zM592 -23q-99 0 -188 37.5t-156 109.5q-67 71 -106.5 175.5t-39.5 239.5t39 239.5t106 176.5q67 71 156 108t189 37q99 0 187.5 -37t155.5 -108q66 -72 105 -176.5t39 -239.5t-39 -239.5t-105 -175.5
q-67 -72 -155.5 -109.5t-187.5 -37.5zM592 98q81 0 145.5 32.5t109.5 91.5q44 59 67.5 140t23.5 179q0 88 -22 167.5t-65 139.5q-44 60 -109 95.5t-150 35.5q-82 0 -146.5 -32.5t-109.5 -90.5q-45 -59 -68.5 -139.5t-23.5 -175.5q0 -90 21.5 -170.5t65.5 -140.5
q43 -61 108.5 -96.5t152.5 -35.5z" />
    <glyph glyph-name="OE" unicode="&#x152;" horiz-adv-x="2292" 
d="M760 -29q-138 0 -255 56t-202 159q-86 103 -134 248.5t-48 323.5t48 323t134 248q85 103 202 159t255 56q88 0 164 -23t139 -65t112.5 -101t84.5 -130v291h894v-136h-759v-514h567v-131h-567v-602h803v-133h-938v295q-35 -72 -84.5 -131.5t-112.5 -101.5
q-63 -43 -139 -67t-164 -24zM760 102q106 0 196.5 44.5t155.5 129.5q65 84 102 205.5t37 276.5q0 154 -37 275.5t-102 205.5t-155.5 128t-196.5 44q-108 0 -198.5 -44t-155.5 -128q-66 -84 -103 -205.5t-37 -275.5q0 -155 37 -276.5t103 -205.5q65 -85 155.5 -129.5
t198.5 -44.5z" />
    <glyph glyph-name="oe" unicode="&#x153;" horiz-adv-x="1937" 
d="M588 -23q-99 0 -187.5 37.5t-154.5 109.5q-66 71 -105 175.5t-39 239.5t38.5 239.5t104.5 176.5q66 71 154.5 108t188.5 37q73 0 137 -21t117 -58q52 -38 92 -90.5t65 -115.5q25 62 65 114.5t92 90.5t113.5 59t129.5 21q94 0 173.5 -36t138.5 -106q58 -71 91 -176
t33 -243v-23h-768q1 -101 28 -179.5t73 -131.5q45 -54 106 -81.5t131 -27.5q61 0 109 13t87 38t72 61.5t64 84.5l90 -70q-36 -57 -79 -102.5t-95 -77.5q-53 -32 -116 -49t-140 -17q-67 0 -128.5 21t-113.5 59q-53 37 -93.5 89t-64.5 114q-26 -62 -66 -114t-92 -89
q-52 -38 -115 -59t-136 -21zM1696 625q-6 76 -26.5 141.5t-57.5 113.5q-37 47 -91 74t-126 27q-59 0 -113 -21.5t-98 -65.5t-74 -111t-39 -158h625zM588 98q81 0 145 32.5t109 91.5q44 59 67 140t23 179q0 88 -21.5 167.5t-64.5 139.5t-107.5 95.5t-150.5 35.5
q-81 0 -145 -32.5t-108 -90.5q-45 -59 -68 -139.5t-23 -175.5q0 -90 21 -170.5t64 -140.5q43 -61 107.5 -96.5t151.5 -35.5z" />
    <glyph glyph-name="Racute" unicode="&#x154;" horiz-adv-x="1374" 
d="M772 1926h186l-289 -319h-92zM195 1516h507q127 0 225 -26.5t165 -78.5t102 -128.5t35 -176.5q0 -92 -26 -162t-73 -120q-48 -50 -115 -81.5t-149 -46.5l383 -696h-164l-370 680h-377v-680h-143v1516zM692 809q94 0 166.5 14.5t122.5 48.5t76 90t26 138q0 78 -25.5 132
t-75.5 88q-50 33 -123.5 47.5t-168.5 14.5h-352v-573h354z" />
    <glyph glyph-name="racute" unicode="&#x155;" horiz-adv-x="809" 
d="M492 1513h186l-289 -319h-92zM164 1079h141v-213h4q31 50 72 92.5t94 74.5q52 31 117 49t145 18h25l-14 -131q-5 0 -10 0.5t-10 0.5q-8 0 -14.5 0.5t-8.5 0.5q-134 0 -235.5 -70.5t-164.5 -198.5v-702h-141v1079z" />
    <glyph glyph-name="uni0156" unicode="&#x156;" horiz-adv-x="1374" 
d="M667 -283h-66v183h170v-164l-90 -221h-61zM195 1516h507q127 0 225 -26.5t165 -78.5t102 -128.5t35 -176.5q0 -92 -26 -162t-73 -120q-48 -50 -115 -81.5t-149 -46.5l383 -696h-164l-370 680h-377v-680h-143v1516zM692 809q94 0 166.5 14.5t122.5 48.5t76 90t26 138
q0 78 -25.5 132t-75.5 88q-50 33 -123.5 47.5t-168.5 14.5h-352v-573h354z" />
    <glyph glyph-name="uni0157" unicode="&#x157;" horiz-adv-x="809" 
d="M218 -283h-66v183h170v-164l-90 -221h-61zM164 1079h141v-213h4q31 50 72 92.5t94 74.5q52 31 117 49t145 18h25l-14 -131q-5 0 -10 0.5t-10 0.5q-8 0 -14.5 0.5t-8.5 0.5q-134 0 -235.5 -70.5t-164.5 -198.5v-702h-141v1079z" />
    <glyph glyph-name="Rcaron" unicode="&#x158;" horiz-adv-x="1374" 
d="M364 1935h90l229 -201l232 201h86l-265 -326h-108zM195 1516h507q127 0 225 -26.5t165 -78.5t102 -128.5t35 -176.5q0 -92 -26 -162t-73 -120q-48 -50 -115 -81.5t-149 -46.5l383 -696h-164l-370 680h-377v-680h-143v1516zM692 809q94 0 166.5 14.5t122.5 48.5t76 90
t26 138q0 78 -25.5 132t-75.5 88q-50 33 -123.5 47.5t-168.5 14.5h-352v-573h354z" />
    <glyph glyph-name="rcaron" unicode="&#x159;" horiz-adv-x="809" 
d="M87 1522h90l229 -201l232 201h86l-265 -326h-108zM164 1079h141v-213h4q31 50 72 92.5t94 74.5q52 31 117 49t145 18h25l-14 -131q-5 0 -10 0.5t-10 0.5q-8 0 -14.5 0.5t-8.5 0.5q-134 0 -235.5 -70.5t-164.5 -198.5v-702h-141v1079z" />
    <glyph glyph-name="Sacute" unicode="&#x15a;" horiz-adv-x="1329" 
d="M749 1926h186l-289 -319h-92zM676 -29q-107 0 -197.5 28t-161.5 81q-71 52 -121 126.5t-77 166.5l129 47q51 -159 162 -239.5t272 -80.5q85 0 154.5 19t118.5 55q49 35 75.5 86t26.5 115q0 59 -17 105t-61 86q-45 39 -122 74.5t-198 74.5q-122 38 -214 76.5t-153 88.5
q-62 49 -93 115t-31 160q0 81 34.5 152t97.5 124q62 52 148.5 82.5t190.5 30.5q107 0 191.5 -26t148.5 -72t108.5 -110t71.5 -140l-123 -57q-56 147 -156.5 210.5t-242.5 63.5q-76 0 -136.5 -19t-102.5 -52q-42 -34 -64.5 -79.5t-22.5 -97.5q0 -64 21 -109t70 -81
q48 -36 128.5 -68.5t200.5 -70.5q118 -38 206.5 -78.5t147.5 -92.5t88 -120t29 -160q0 -95 -39.5 -171.5t-109.5 -130.5q-71 -54 -167 -83t-210 -29z" />
    <glyph glyph-name="sacute" unicode="&#x15b;" horiz-adv-x="1036" 
d="M604 1513h186l-289 -319h-92zM512 -20q-72 0 -136 14.5t-117 40.5q-54 25 -97 60t-74 77l90 82q62 -71 143 -113.5t193 -42.5q139 0 210 49t71 140q0 45 -16.5 77t-52.5 57q-36 24 -92.5 43.5t-135.5 37.5q-93 23 -163 48.5t-117 61.5q-48 36 -71.5 85t-23.5 120
q0 58 24.5 109.5t71.5 90.5q46 38 114.5 60.5t155.5 22.5q69 0 127 -11t107 -31q48 -21 89 -50t77 -64l-80 -94q-62 62 -139 97.5t-176 35.5q-63 0 -107.5 -13.5t-72.5 -35.5q-28 -23 -41 -51.5t-13 -59.5q0 -39 14.5 -67.5t46.5 -50.5q31 -22 80.5 -39.5t120.5 -34.5
q102 -25 178.5 -51.5t128.5 -64.5q51 -39 77 -93t26 -133q0 -74 -31.5 -131.5t-86.5 -96.5q-56 -40 -133.5 -60.5t-168.5 -20.5z" />
    <glyph glyph-name="Scircumflex" unicode="&#x15c;" horiz-adv-x="1329" 
d="M606 1926h106l265 -325h-90l-230 201l-229 -201h-86zM676 -29q-107 0 -197.5 28t-161.5 81q-71 52 -121 126.5t-77 166.5l129 47q51 -159 162 -239.5t272 -80.5q85 0 154.5 19t118.5 55q49 35 75.5 86t26.5 115q0 59 -17 105t-61 86q-45 39 -122 74.5t-198 74.5
q-122 38 -214 76.5t-153 88.5q-62 49 -93 115t-31 160q0 81 34.5 152t97.5 124q62 52 148.5 82.5t190.5 30.5q107 0 191.5 -26t148.5 -72t108.5 -110t71.5 -140l-123 -57q-56 147 -156.5 210.5t-242.5 63.5q-76 0 -136.5 -19t-102.5 -52q-42 -34 -64.5 -79.5t-22.5 -97.5
q0 -64 21 -109t70 -81q48 -36 128.5 -68.5t200.5 -70.5q118 -38 206.5 -78.5t147.5 -92.5t88 -120t29 -160q0 -95 -39.5 -171.5t-109.5 -130.5q-71 -54 -167 -83t-210 -29z" />
    <glyph glyph-name="scircumflex" unicode="&#x15d;" horiz-adv-x="1036" 
d="M435 1513h106l265 -325h-90l-230 201l-229 -201h-86zM512 -20q-72 0 -136 14.5t-117 40.5q-54 25 -97 60t-74 77l90 82q62 -71 143 -113.5t193 -42.5q139 0 210 49t71 140q0 45 -16.5 77t-52.5 57q-36 24 -92.5 43.5t-135.5 37.5q-93 23 -163 48.5t-117 61.5
q-48 36 -71.5 85t-23.5 120q0 58 24.5 109.5t71.5 90.5q46 38 114.5 60.5t155.5 22.5q69 0 127 -11t107 -31q48 -21 89 -50t77 -64l-80 -94q-62 62 -139 97.5t-176 35.5q-63 0 -107.5 -13.5t-72.5 -35.5q-28 -23 -41 -51.5t-13 -59.5q0 -39 14.5 -67.5t46.5 -50.5
q31 -22 80.5 -39.5t120.5 -34.5q102 -25 178.5 -51.5t128.5 -64.5q51 -39 77 -93t26 -133q0 -74 -31.5 -131.5t-86.5 -96.5q-56 -40 -133.5 -60.5t-168.5 -20.5z" />
    <glyph glyph-name="Scedilla" unicode="&#x15e;" horiz-adv-x="1329" 
d="M676 -29q-107 0 -197.5 28t-161.5 81q-71 52 -121 126.5t-77 166.5l129 47q51 -159 162 -239.5t272 -80.5q85 0 154.5 19t118.5 55q49 35 75.5 86t26.5 115q0 59 -17 105t-61 86q-45 39 -122 74.5t-198 74.5q-122 38 -214 76.5t-153 88.5q-62 49 -93 115t-31 160
q0 81 34.5 152t97.5 124q62 52 148.5 82.5t190.5 30.5q107 0 191.5 -26t148.5 -72t108.5 -110t71.5 -140l-123 -57q-56 147 -156.5 210.5t-242.5 63.5q-76 0 -136.5 -19t-102.5 -52q-42 -34 -64.5 -79.5t-22.5 -97.5q0 -64 21 -109t70 -81q48 -36 128.5 -68.5t200.5 -70.5
q118 -38 206.5 -78.5t147.5 -92.5t88 -120t29 -160q0 -95 -39.5 -171.5t-109.5 -130.5q-71 -54 -167 -83t-210 -29zM663 -399q-69 0 -134.5 20t-119.5 55l37 60q46 -31 97 -46.5t104 -15.5q81 0 117 25t36 72q0 36 -21.5 54.5t-64.5 18.5q-34 0 -59.5 -12t-46.5 -29l-60 27
l54 170h86l-33 -111q22 14 48.5 22.5t63.5 8.5q28 0 54.5 -9t46.5 -26q19 -17 31 -43.5t12 -60.5q0 -48 -20 -82t-53 -56q-34 -21 -79 -31.5t-96 -10.5z" />
    <glyph glyph-name="scedilla" unicode="&#x15f;" horiz-adv-x="1036" 
d="M512 -20q-72 0 -136 14.5t-117 40.5q-54 25 -97 60t-74 77l90 82q62 -71 143 -113.5t193 -42.5q139 0 210 49t71 140q0 45 -16.5 77t-52.5 57q-36 24 -92.5 43.5t-135.5 37.5q-93 23 -163 48.5t-117 61.5q-48 36 -71.5 85t-23.5 120q0 58 24.5 109.5t71.5 90.5
q46 38 114.5 60.5t155.5 22.5q69 0 127 -11t107 -31q48 -21 89 -50t77 -64l-80 -94q-62 62 -139 97.5t-176 35.5q-63 0 -107.5 -13.5t-72.5 -35.5q-28 -23 -41 -51.5t-13 -59.5q0 -39 14.5 -67.5t46.5 -50.5q31 -22 80.5 -39.5t120.5 -34.5q102 -25 178.5 -51.5t128.5 -64.5
q51 -39 77 -93t26 -133q0 -74 -31.5 -131.5t-86.5 -96.5q-56 -40 -133.5 -60.5t-168.5 -20.5zM520 -399q-69 0 -134.5 20t-119.5 55l37 60q46 -31 97 -46.5t104 -15.5q81 0 117 25t36 72q0 36 -21.5 54.5t-64.5 18.5q-34 0 -59.5 -12t-46.5 -29l-60 27l54 170h86l-33 -111
q22 14 48.5 22.5t63.5 8.5q28 0 54.5 -9t46.5 -26q19 -17 31 -43.5t12 -60.5q0 -48 -20 -82t-53 -56q-34 -21 -79 -31.5t-96 -10.5z" />
    <glyph glyph-name="Scaron" unicode="&#x160;" horiz-adv-x="1329" 
d="M676 -29q-107 0 -197.5 28t-161.5 81q-71 52 -121 126.5t-77 166.5l129 47q51 -159 162 -239.5t272 -80.5q85 0 154.5 19t118.5 55q49 35 75.5 86t26.5 115q0 59 -17 105t-61 86q-45 39 -122 74.5t-198 74.5q-122 38 -214 76.5t-153 88.5q-62 49 -93 115t-31 160
q0 81 34.5 152t97.5 124q62 52 148.5 82.5t190.5 30.5q107 0 191.5 -26t148.5 -72t108.5 -110t71.5 -140l-123 -57q-56 147 -156.5 210.5t-242.5 63.5q-76 0 -136.5 -19t-102.5 -52q-42 -34 -64.5 -79.5t-22.5 -97.5q0 -64 21 -109t70 -81q48 -36 128.5 -68.5t200.5 -70.5
q118 -38 206.5 -78.5t147.5 -92.5t88 -120t29 -160q0 -95 -39.5 -171.5t-109.5 -130.5q-71 -54 -167 -83t-210 -29zM344 1956h90l229 -201l232 201h86l-265 -326h-108z" />
    <glyph glyph-name="scaron" unicode="&#x161;" horiz-adv-x="1036" 
d="M512 -20q-72 0 -136 14.5t-117 40.5q-54 25 -97 60t-74 77l90 82q62 -71 143 -113.5t193 -42.5q139 0 210 49t71 140q0 45 -16.5 77t-52.5 57q-36 24 -92.5 43.5t-135.5 37.5q-93 23 -163 48.5t-117 61.5q-48 36 -71.5 85t-23.5 120q0 58 24.5 109.5t71.5 90.5
q46 38 114.5 60.5t155.5 22.5q69 0 127 -11t107 -31q48 -21 89 -50t77 -64l-80 -94q-62 62 -139 97.5t-176 35.5q-63 0 -107.5 -13.5t-72.5 -35.5q-28 -23 -41 -51.5t-13 -59.5q0 -39 14.5 -67.5t46.5 -50.5q31 -22 80.5 -39.5t120.5 -34.5q102 -25 178.5 -51.5t128.5 -64.5
q51 -39 77 -93t26 -133q0 -74 -31.5 -131.5t-86.5 -96.5q-56 -40 -133.5 -60.5t-168.5 -20.5zM199 1522h90l229 -201l232 201h86l-265 -326h-108z" />
    <glyph glyph-name="Tcaron" unicode="&#x164;" horiz-adv-x="1264" 
d="M311 1935h90l229 -201l232 201h86l-265 -326h-108zM559 1380h-489v136h1124v-136h-489v-1380h-146v1380z" />
    <glyph glyph-name="tcaron" unicode="&#x165;" horiz-adv-x="745" 
d="M584 1452h-66v180h166v-162l-88 -219h-59zM522 -14q-78 0 -132 15.5t-87 48.5q-34 32 -49.5 82t-15.5 120v706h-189v121h189v387h141v-387h280v-121h-280v-677q0 -43 8 -76t28 -55q19 -23 51.5 -34.5t82.5 -11.5q31 0 60.5 3.5t52.5 11.5v-121q-25 -5 -64 -8.5t-76 -3.5z
" />
    <glyph glyph-name="Tbar" unicode="&#x166;" horiz-adv-x="1264" 
d="M70 819h489v561h-489v136h1124v-136h-489v-561h487v-123h-487v-696h-146v696h-489v123z" />
    <glyph glyph-name="tbar" unicode="&#x167;" horiz-adv-x="745" 
d="M47 621h189v337h-189v121h189v387h141v-387h280v-121h-280v-337h280v-111h-280v-229q0 -43 8 -76t28 -55q19 -23 52 -34.5t82 -11.5q31 0 61 3.5t51 11.5v-121q-24 -5 -62.5 -8.5t-76.5 -3.5q-77 0 -131 15.5t-88 48.5q-34 32 -49.5 82t-15.5 120v258h-189v111z" />
    <glyph glyph-name="Utilde" unicode="&#x168;" horiz-adv-x="1464" 
d="M731 -27q-140 0 -243.5 42t-171.5 115q-69 72 -102.5 170.5t-33.5 211.5v1004h146v-979q0 -93 24 -172.5t74 -136.5q50 -58 126.5 -91t182.5 -33q105 0 182 31.5t127 88.5q49 57 73 135.5t24 172.5v984h145v-1000q0 -113 -34.5 -212t-103.5 -172q-69 -74 -173 -116.5
t-242 -42.5zM883 1601q-43 0 -84 18t-79 40q-38 21 -72.5 39t-65.5 18q-47 0 -65.5 -25.5t-18.5 -85.5h-90q0 118 43.5 171.5t128.5 53.5q43 0 83.5 -18t79.5 -39q38 -21 73 -39t67 -18q45 0 64.5 25t19.5 85h90q0 -115 -44.5 -170t-129.5 -55z" />
    <glyph glyph-name="utilde" unicode="&#x169;" horiz-adv-x="1190" 
d="M475 -23q-161 0 -241 85.5t-80 236.5v780h141v-755q0 -115 51 -170.5t164 -55.5q51 0 99 13.5t95 38.5q46 24 91 59t90 78v792h143v-1079h-143v170q-39 -38 -84.5 -73t-96.5 -61q-52 -27 -109 -43t-120 -16zM747 1188q-43 0 -84 18t-79 40q-38 21 -72.5 39t-65.5 18
q-47 0 -65.5 -25.5t-18.5 -85.5h-90q0 118 43.5 171.5t128.5 53.5q43 0 83.5 -18t79.5 -39q38 -21 73 -39t67 -18q45 0 64.5 25t19.5 85h90q0 -115 -44.5 -170t-129.5 -55z" />
    <glyph glyph-name="Umacron" unicode="&#x16a;" horiz-adv-x="1464" 
d="M731 -27q-140 0 -243.5 42t-171.5 115q-69 72 -102.5 170.5t-33.5 211.5v1004h146v-979q0 -93 24 -172.5t74 -136.5q50 -58 126.5 -91t182.5 -33q105 0 182 31.5t127 88.5q49 57 73 135.5t24 172.5v984h145v-1000q0 -113 -34.5 -212t-103.5 -172q-69 -74 -173 -116.5
t-242 -42.5zM473 1728h516v-121h-516v121z" />
    <glyph glyph-name="umacron" unicode="&#x16b;" horiz-adv-x="1190" 
d="M475 -23q-161 0 -241 85.5t-80 236.5v780h141v-755q0 -115 51 -170.5t164 -55.5q51 0 99 13.5t95 38.5q46 24 91 59t90 78v792h143v-1079h-143v170q-39 -38 -84.5 -73t-96.5 -61q-52 -27 -109 -43t-120 -16zM335 1315h516v-121h-516v121z" />
    <glyph glyph-name="Ubreve" unicode="&#x16c;" horiz-adv-x="1464" 
d="M731 -27q-140 0 -243.5 42t-171.5 115q-69 72 -102.5 170.5t-33.5 211.5v1004h146v-979q0 -93 24 -172.5t74 -136.5q50 -58 126.5 -91t182.5 -33q105 0 182 31.5t127 88.5q49 57 73 135.5t24 172.5v984h145v-1000q0 -113 -34.5 -212t-103.5 -172q-69 -74 -173 -116.5
t-242 -42.5zM731 1599q-68 0 -123 23.5t-94 67.5q-40 43 -63 105t-27 140h90q13 -120 69.5 -172t147.5 -52t147 52t70 172h90q-4 -78 -27 -140t-63 -105q-40 -44 -95 -67.5t-122 -23.5z" />
    <glyph glyph-name="ubreve" unicode="&#x16d;" horiz-adv-x="1190" 
d="M475 -23q-161 0 -241 85.5t-80 236.5v780h141v-755q0 -115 51 -170.5t164 -55.5q51 0 99 13.5t95 38.5q46 24 91 59t90 78v792h143v-1079h-143v170q-39 -38 -84.5 -73t-96.5 -61q-52 -27 -109 -43t-120 -16zM593 1186q-68 0 -123 23.5t-94 67.5q-40 43 -63 105t-27 140
h90q13 -120 69.5 -172t147.5 -52t147 52t70 172h90q-4 -78 -27 -140t-63 -105q-40 -44 -95 -67.5t-122 -23.5z" />
    <glyph glyph-name="Uring" unicode="&#x16e;" horiz-adv-x="1464" 
d="M731 1593q-41 0 -75 14t-59 39t-38.5 59t-13.5 74t13.5 74t38.5 59t59 39t75 14t75 -14t59 -39t38.5 -59t13.5 -74t-13.5 -74t-38.5 -59t-59 -39t-75 -14zM731 1664q48 0 78.5 32t30.5 83q0 50 -30.5 82.5t-78.5 32.5t-78.5 -32.5t-30.5 -82.5q0 -51 30.5 -83t78.5 -32z
M731 -27q-140 0 -243.5 42t-171.5 115q-69 72 -102.5 170.5t-33.5 211.5v1004h146v-979q0 -93 24 -172.5t74 -136.5q50 -58 126.5 -91t182.5 -33q105 0 182 31.5t127 88.5q49 57 73 135.5t24 172.5v984h145v-1000q0 -113 -34.5 -212t-103.5 -172q-69 -74 -173 -116.5
t-242 -42.5z" />
    <glyph glyph-name="uring" unicode="&#x16f;" horiz-adv-x="1190" 
d="M593 1180q-41 0 -75 14t-59 39t-38.5 59t-13.5 74t13.5 74t38.5 59t59 39t75 14t75 -14t59 -39t38.5 -59t13.5 -74t-13.5 -74t-38.5 -59t-59 -39t-75 -14zM593 1251q48 0 78.5 32t30.5 83q0 50 -30.5 82.5t-78.5 32.5t-78.5 -32.5t-30.5 -82.5q0 -51 30.5 -83t78.5 -32z
M475 -23q-161 0 -241 85.5t-80 236.5v780h141v-755q0 -115 51 -170.5t164 -55.5q51 0 99 13.5t95 38.5q46 24 91 59t90 78v792h143v-1079h-143v170q-39 -38 -84.5 -73t-96.5 -61q-52 -27 -109 -43t-120 -16z" />
    <glyph glyph-name="Uhungarumlaut" unicode="&#x170;" horiz-adv-x="1464" 
d="M731 -27q-140 0 -243.5 42t-171.5 115q-69 72 -102.5 170.5t-33.5 211.5v1004h146v-979q0 -93 24 -172.5t74 -136.5q50 -58 126.5 -91t182.5 -33q105 0 182 31.5t127 88.5q49 57 73 135.5t24 172.5v984h145v-1000q0 -113 -34.5 -212t-103.5 -172q-69 -74 -173 -116.5
t-242 -42.5zM990 1926h191l-293 -319h-96zM656 1926h191l-289 -319h-96z" />
    <glyph glyph-name="uhungarumlaut" unicode="&#x171;" horiz-adv-x="1190" 
d="M475 -23q-161 0 -241 85.5t-80 236.5v780h141v-755q0 -115 51 -170.5t164 -55.5q51 0 99 13.5t95 38.5q46 24 91 59t90 78v792h143v-1079h-143v170q-39 -38 -84.5 -73t-96.5 -61q-52 -27 -109 -43t-120 -16zM857 1513h191l-293 -319h-96zM523 1513h191l-289 -319h-96z
" />
    <glyph glyph-name="Uogonek" unicode="&#x172;" horiz-adv-x="1464" 
d="M745 -383q-90 0 -140.5 41.5t-50.5 116.5q0 31 14.5 63.5t39.5 62.5q24 31 57 59t70 52h96q-74 -51 -116 -105.5t-42 -111.5q0 -43 25 -69.5t82 -26.5q49 0 96 13t98 36l31 -53q-62 -35 -127 -56.5t-133 -21.5zM731 -27q-140 0 -243.5 42t-171.5 115q-69 72 -102.5 170.5
t-33.5 211.5v1004h146v-979q0 -93 24 -172.5t74 -136.5q50 -58 126.5 -91t182.5 -33q105 0 182 31.5t127 88.5q49 57 73 135.5t24 172.5v984h145v-1000q0 -113 -34.5 -212t-103.5 -172q-69 -74 -173 -116.5t-242 -42.5z" />
    <glyph glyph-name="uogonek" unicode="&#x173;" horiz-adv-x="1190" 
d="M903 -383q-90 0 -140.5 41.5t-50.5 116.5q0 31 14.5 63.5t39.5 62.5q24 31 57 59t70 52h96q-74 -51 -116 -105.5t-42 -111.5q0 -43 25 -69.5t82 -26.5q49 0 96 13t98 36l31 -53q-62 -35 -127 -56.5t-133 -21.5zM475 -23q-161 0 -241 85.5t-80 236.5v780h141v-755
q0 -115 51 -170.5t164 -55.5q51 0 99 13.5t95 38.5q46 24 91 59t90 78v792h143v-1079h-143v170q-39 -38 -84.5 -73t-96.5 -61q-52 -27 -109 -43t-120 -16z" />
    <glyph glyph-name="Wcircumflex" unicode="&#x174;" horiz-adv-x="1894" 
d="M892 1926h106l265 -325h-90l-230 201l-229 -201h-86zM82 1516h147l236 -920q28 -105 51.5 -204t40.5 -177h4q16 77 39 176.5t49 202.5l225 922h154l229 -930q26 -103 48.5 -193.5t37.5 -177.5h5q10 45 20 89t21 88t23 90.5t24 97.5l237 936h139l-401 -1516h-137
l-322 1315h-4l-325 -1315h-138z" />
    <glyph glyph-name="wcircumflex" unicode="&#x175;" horiz-adv-x="1530" 
d="M710 1513h106l265 -325h-90l-230 201l-229 -201h-86zM55 1079h148l151 -534q15 -51 27 -95.5t24 -87.5t24 -87.5t26 -96.5h4q15 58 26.5 103t22.5 87q11 41 22.5 83.5t26.5 93.5l148 534h129l149 -544q15 -50 26.5 -92t22.5 -83q10 -41 21 -85t24 -97h4q15 55 26.5 98.5
t23.5 83.5q11 40 22.5 80.5t26.5 89.5l157 549h138l-332 -1079h-131l-244 887h-4l-248 -887h-129z" />
    <glyph glyph-name="Ycircumflex" unicode="&#x176;" horiz-adv-x="1266" 
d="M559 668l-508 848h158l426 -723l424 723h155l-509 -848v-668h-146v668zM577 1926h106l265 -325h-90l-230 201l-229 -201h-86z" />
    <glyph glyph-name="ycircumflex" unicode="&#x177;" horiz-adv-x="1079" 
d="M201 -414q-62 0 -104 7t-74 16l32 117q23 -7 59.5 -12t90.5 -5q44 0 77.5 10t60.5 30q26 20 46 51.5t37 74.5l45 119l-418 1085h152l336 -911h4l334 911h147l-465 -1204q-27 -72 -57.5 -126t-71.5 -91q-42 -36 -97.5 -54t-133.5 -18zM489 1513h106l265 -325h-90l-230 201
l-229 -201h-86z" />
    <glyph glyph-name="Ydieresis" unicode="&#x178;" horiz-adv-x="1266" 
d="M559 668l-508 848h158l426 -723l424 723h155l-509 -848v-668h-146v668zM732 1777h158v-168h-158v168zM372 1777h158v-168h-158v168z" />
    <glyph glyph-name="Zacute" unicode="&#x179;" horiz-adv-x="1276" 
d="M713 1926h186l-289 -319h-92zM86 104l909 1289h-850v123h1026v-107l-905 -1286h905v-123h-1085v104z" />
    <glyph glyph-name="zacute" unicode="&#x17a;" horiz-adv-x="1036" 
d="M604 1513h186l-289 -319h-92zM84 90l657 871h-604v118h783v-92l-658 -870h686v-117h-864v90z" />
    <glyph glyph-name="Zdotaccent" unicode="&#x17b;" horiz-adv-x="1276" 
d="M86 104l909 1289h-850v123h1026v-107l-905 -1286h905v-123h-1085v104zM550 1777h172v-164h-172v164z" />
    <glyph glyph-name="zdotaccent" unicode="&#x17c;" horiz-adv-x="1036" 
d="M84 90l657 871h-604v118h783v-92l-658 -870h686v-117h-864v90zM430 1364h172v-164h-172v164z" />
    <glyph glyph-name="Zcaron" unicode="&#x17d;" horiz-adv-x="1276" 
d="M86 104l909 1289h-850v123h1026v-107l-905 -1286h905v-123h-1085v104zM319 1956h90l229 -201l232 201h86l-265 -326h-108z" />
    <glyph glyph-name="zcaron" unicode="&#x17e;" horiz-adv-x="1036" 
d="M84 90l657 871h-604v118h783v-92l-658 -870h686v-117h-864v90zM199 1522h90l229 -201l232 201h86l-265 -326h-108z" />
    <glyph glyph-name="florin" unicode="&#x192;" horiz-adv-x="682" 
d="M-178 -293q11 -2 30.5 -3t36.5 -1q82 0 137 37t66 125l139 985h-188l14 115h189l37 276q18 140 103.5 208.5t246.5 68.5q18 0 42.5 -1.5t37.5 -3.5l-19 -114q-11 2 -30.5 2h-36.5q-39 0 -74 -8t-62 -26t-44.5 -48t-22.5 -74l-37 -280h238l-15 -115h-237l-140 -991
q-20 -137 -104.5 -204t-243.5 -67q-20 0 -44 1t-38 3z" />
    <glyph glyph-name="uni0218" unicode="&#x218;" horiz-adv-x="1329" 
d="M645 -283h-66v183h170v-164l-90 -221h-61zM676 -29q-107 0 -197.5 28t-161.5 81q-71 52 -121 126.5t-77 166.5l129 47q51 -159 162 -239.5t272 -80.5q85 0 154.5 19t118.5 55q49 35 75.5 86t26.5 115q0 59 -17 105t-61 86q-45 39 -122 74.5t-198 74.5q-122 38 -214 76.5
t-153 88.5q-62 49 -93 115t-31 160q0 81 34.5 152t97.5 124q62 52 148.5 82.5t190.5 30.5q107 0 191.5 -26t148.5 -72t108.5 -110t71.5 -140l-123 -57q-56 147 -156.5 210.5t-242.5 63.5q-76 0 -136.5 -19t-102.5 -52q-42 -34 -64.5 -79.5t-22.5 -97.5q0 -64 21 -109t70 -81
q48 -36 128.5 -68.5t200.5 -70.5q118 -38 206.5 -78.5t147.5 -92.5t88 -120t29 -160q0 -95 -39.5 -171.5t-109.5 -130.5q-71 -54 -167 -83t-210 -29z" />
    <glyph glyph-name="uni0219" unicode="&#x219;" horiz-adv-x="1036" 
d="M499 -283h-66v183h170v-164l-90 -221h-61zM512 -20q-72 0 -136 14.5t-117 40.5q-54 25 -97 60t-74 77l90 82q62 -71 143 -113.5t193 -42.5q139 0 210 49t71 140q0 45 -16.5 77t-52.5 57q-36 24 -92.5 43.5t-135.5 37.5q-93 23 -163 48.5t-117 61.5q-48 36 -71.5 85
t-23.5 120q0 58 24.5 109.5t71.5 90.5q46 38 114.5 60.5t155.5 22.5q69 0 127 -11t107 -31q48 -21 89 -50t77 -64l-80 -94q-62 62 -139 97.5t-176 35.5q-63 0 -107.5 -13.5t-72.5 -35.5q-28 -23 -41 -51.5t-13 -59.5q0 -39 14.5 -67.5t46.5 -50.5q31 -22 80.5 -39.5
t120.5 -34.5q102 -25 178.5 -51.5t128.5 -64.5q51 -39 77 -93t26 -133q0 -74 -31.5 -131.5t-86.5 -96.5q-56 -40 -133.5 -60.5t-168.5 -20.5z" />
    <glyph glyph-name="uni021A" unicode="&#x21a;" horiz-adv-x="1264" 
d="M612 -283h-66v183h170v-164l-90 -221h-61zM559 1380h-489v136h1124v-136h-489v-1380h-146v1380z" />
    <glyph glyph-name="uni021B" unicode="&#x21b;" horiz-adv-x="745" 
d="M307 -283h-66v183h170v-164l-90 -221h-61zM522 -14q-78 0 -132 15.5t-87 48.5q-34 32 -49.5 82t-15.5 120v706h-189v121h189v387h141v-387h280v-121h-280v-677q0 -43 8 -76t28 -55q19 -23 51.5 -34.5t82.5 -11.5q31 0 60.5 3.5t52.5 11.5v-121q-25 -5 -64 -8.5t-76 -3.5z
" />
    <glyph glyph-name="uni0259" unicode="&#x259;" horiz-adv-x="1118" 
d="M543 1100q94 0 180 -36t151 -107t103.5 -176t38.5 -242q0 -144 -42 -250t-109 -175q-68 -70 -152.5 -103.5t-169.5 -33.5q-95 0 -175.5 36t-139.5 107t-92.5 176t-33.5 243v26h772q-1 100 -28 177.5t-72 131.5q-46 53 -107.5 81t-131.5 28q-61 0 -109.5 -13t-88.5 -38
q-40 -26 -73.5 -62.5t-64.5 -83.5l-88 70q35 57 78 102t96 77q53 31 117 48t141 17zM240 455q5 -78 26.5 -143.5t59.5 -113.5q37 -48 92 -75t127 -27q58 0 113 22t99 66t74.5 111.5t40.5 159.5h-632z" />
    <glyph glyph-name="uni02BB" unicode="&#x2bb;" horiz-adv-x="549" 
d="M186 1292l95 224h65l-49 -207h65v-193h-176v176z" />
    <glyph glyph-name="uni02BB" unicode="&#x2018;" horiz-adv-x="549" 
d="M186 1292l95 224h65l-49 -207h65v-193h-176v176z" />
    <glyph glyph-name="circumflex" unicode="&#x2c6;" horiz-adv-x="1044" 
d="M469 1513h106l265 -325h-90l-230 201l-229 -201h-86z" />
    <glyph glyph-name="caron" unicode="&#x2c7;" horiz-adv-x="1044" 
d="M203 1522h90l229 -201l232 201h86l-265 -326h-108z" />
    <glyph glyph-name="breve" unicode="&#x2d8;" horiz-adv-x="1024" 
d="M512 1186q-68 0 -123 23.5t-94 67.5q-40 43 -63 105t-27 140h90q13 -120 69.5 -172t147.5 -52t147 52t70 172h90q-4 -78 -27 -140t-63 -105q-40 -44 -95 -67.5t-122 -23.5z" />
    <glyph glyph-name="dotaccent" unicode="&#x2d9;" horiz-adv-x="1024" 
d="M426 1364h172v-164h-172v164z" />
    <glyph glyph-name="ring" unicode="&#x2da;" horiz-adv-x="1106" 
d="M553 1180q-41 0 -75 14t-59 39t-38.5 59t-13.5 74t13.5 74t38.5 59t59 39t75 14t75 -14t59 -39t38.5 -59t13.5 -74t-13.5 -74t-38.5 -59t-59 -39t-75 -14zM553 1251q48 0 78.5 32t30.5 83q0 50 -30.5 82.5t-78.5 32.5t-78.5 -32.5t-30.5 -82.5q0 -51 30.5 -83t78.5 -32z
" />
    <glyph glyph-name="ogonek" unicode="&#x2db;" horiz-adv-x="1024" 
d="M510 -383q-90 0 -140.5 41.5t-50.5 116.5q0 31 14.5 63.5t39.5 62.5q24 31 57 59t70 52h96q-74 -51 -116 -105.5t-42 -111.5q0 -43 25 -69.5t82 -26.5q49 0 96 13t98 36l31 -53q-62 -35 -127 -56.5t-133 -21.5z" />
    <glyph glyph-name="tilde" unicode="&#x2dc;" horiz-adv-x="1032" 
d="M668 1188q-43 0 -84 18t-79 40q-38 21 -72.5 39t-65.5 18q-47 0 -65.5 -25.5t-18.5 -85.5h-90q0 118 43.5 171.5t128.5 53.5q43 0 83.5 -18t79.5 -39q38 -21 73 -39t67 -18q45 0 64.5 25t19.5 85h90q0 -115 -44.5 -170t-129.5 -55z" />
    <glyph glyph-name="hungarumlaut" unicode="&#x2dd;" horiz-adv-x="1034" 
d="M696 1513h191l-293 -319h-96zM362 1513h191l-289 -319h-96z" />
    <glyph glyph-name="pi" unicode="&#x3c0;" horiz-adv-x="1317" 
d="M18 1081h1280v-112h-202v-969h-142v969h-592v-969h-141v969h-203v112z" />
    <glyph glyph-name="Wgrave" unicode="&#x1e80;" horiz-adv-x="1894" 
d="M82 1516h147l236 -920q28 -105 51.5 -204t40.5 -177h4q16 77 39 176.5t49 202.5l225 922h154l229 -930q26 -103 48.5 -193.5t37.5 -177.5h5q10 45 20 89t21 88t23 90.5t24 97.5l237 936h139l-401 -1516h-137l-322 1315h-4l-325 -1315h-138zM720 1926h186l195 -319h-92z
" />
    <glyph glyph-name="wgrave" unicode="&#x1e81;" horiz-adv-x="1530" 
d="M55 1079h148l151 -534q15 -51 27 -95.5t24 -87.5t24 -87.5t26 -96.5h4q15 58 26.5 103t22.5 87q11 41 22.5 83.5t26.5 93.5l148 534h129l149 -544q15 -50 26.5 -92t22.5 -83q10 -41 21 -85t24 -97h4q15 55 26.5 98.5t23.5 83.5q11 40 22.5 80.5t26.5 89.5l157 549h138
l-332 -1079h-131l-244 887h-4l-248 -887h-129zM436 1513h186l195 -319h-92z" />
    <glyph glyph-name="Wacute" unicode="&#x1e82;" horiz-adv-x="1894" 
d="M989 1926h186l-289 -319h-92zM82 1516h147l236 -920q28 -105 51.5 -204t40.5 -177h4q16 77 39 176.5t49 202.5l225 922h154l229 -930q26 -103 48.5 -193.5t37.5 -177.5h5q10 45 20 89t21 88t23 90.5t24 97.5l237 936h139l-401 -1516h-137l-322 1315h-4l-325 -1315h-138z
" />
    <glyph glyph-name="wacute" unicode="&#x1e83;" horiz-adv-x="1530" 
d="M909 1513h186l-289 -319h-92zM55 1079h148l151 -534q15 -51 27 -95.5t24 -87.5t24 -87.5t26 -96.5h4q15 58 26.5 103t22.5 87q11 41 22.5 83.5t26.5 93.5l148 534h129l149 -544q15 -50 26.5 -92t22.5 -83q10 -41 21 -85t24 -97h4q15 55 26.5 98.5t23.5 83.5
q11 40 22.5 80.5t26.5 89.5l157 549h138l-332 -1079h-131l-244 887h-4l-248 -887h-129z" />
    <glyph glyph-name="Wdieresis" unicode="&#x1e84;" horiz-adv-x="1894" 
d="M1046 1775h158v-168h-158v168zM686 1775h158v-168h-158v168zM82 1516h147l236 -920q28 -105 51.5 -204t40.5 -177h4q16 77 39 176.5t49 202.5l225 922h154l229 -930q26 -103 48.5 -193.5t37.5 -177.5h5q10 45 20 89t21 88t23 90.5t24 97.5l237 936h139l-401 -1516h-137
l-322 1315h-4l-325 -1315h-138z" />
    <glyph glyph-name="wdieresis" unicode="&#x1e85;" horiz-adv-x="1530" 
d="M863 1362h158v-168h-158v168zM503 1362h158v-168h-158v168zM55 1079h148l151 -534q15 -51 27 -95.5t24 -87.5t24 -87.5t26 -96.5h4q15 58 26.5 103t22.5 87q11 41 22.5 83.5t26.5 93.5l148 534h129l149 -544q15 -50 26.5 -92t22.5 -83q10 -41 21 -85t24 -97h4
q15 55 26.5 98.5t23.5 83.5q11 40 22.5 80.5t26.5 89.5l157 549h138l-332 -1079h-131l-244 887h-4l-248 -887h-129z" />
    <glyph glyph-name="Ygrave" unicode="&#x1ef2;" horiz-adv-x="1266" 
d="M559 668l-508 848h158l426 -723l424 723h155l-509 -848v-668h-146v668zM327 1926h186l195 -319h-92z" />
    <glyph glyph-name="ygrave" unicode="&#x1ef3;" horiz-adv-x="1079" 
d="M201 -414q-62 0 -104 7t-74 16l32 117q23 -7 59.5 -12t90.5 -5q44 0 77.5 10t60.5 30q26 20 46 51.5t37 74.5l45 119l-418 1085h152l336 -911h4l334 911h147l-465 -1204q-27 -72 -57.5 -126t-71.5 -91q-42 -36 -97.5 -54t-133.5 -18zM234 1513h186l195 -319h-92z" />
    <glyph glyph-name="uni2002" unicode="&#x2002;" horiz-adv-x="1024" 
 />
    <glyph glyph-name="uni2003" unicode="&#x2003;" horiz-adv-x="2048" 
 />
    <glyph glyph-name="uni2007" unicode="&#x2007;" 
 />
    <glyph glyph-name="uni2009" unicode="&#x2009;" horiz-adv-x="410" 
 />
    <glyph glyph-name="figuredash" unicode="&#x2012;" 
d="M145 707h1043v-129h-1043v129z" />
    <glyph glyph-name="endash" unicode="&#x2013;" horiz-adv-x="1317" 
d="M137 707h1043v-129h-1043v129z" />
    <glyph glyph-name="emdash" unicode="&#x2014;" horiz-adv-x="1892" 
d="M137 707h1618v-129h-1618v129z" />
    <glyph glyph-name="uni2015" unicode="&#x2015;" horiz-adv-x="2048" 
d="M0 707h2048v-129h-2048v129z" />
    <glyph glyph-name="quoteright" unicode="&#x2019;" horiz-adv-x="549" 
d="M252 1323h-66v193h176v-179l-94 -221h-65z" />
    <glyph glyph-name="quotesinglbase" unicode="&#x201a;" horiz-adv-x="549" 
d="M252 0h-66v193h176v-179l-94 -221h-65z" />
    <glyph glyph-name="quotedblleft" unicode="&#x201c;" horiz-adv-x="928" 
d="M186 1292l95 224h65l-49 -207h65v-193h-176v176zM565 1292l94 224h66l-49 -207h63v-193h-174v176z" />
    <glyph glyph-name="quotedblright" unicode="&#x201d;" horiz-adv-x="928" 
d="M252 1323h-66v193h176v-179l-94 -221h-65zM631 1323h-66v193h174v-179l-94 -221h-65z" />
    <glyph glyph-name="quotedblbase" unicode="&#x201e;" horiz-adv-x="928" 
d="M252 0h-66v193h176v-179l-94 -221h-65zM631 0h-66v193h174v-179l-94 -221h-65z" />
    <glyph glyph-name="dagger" unicode="&#x2020;" horiz-adv-x="1139" 
d="M518 866l-418 -20v137l418 -22l-26 555h155l-26 -555l417 22v-137l-417 20l26 -1276h-155z" />
    <glyph glyph-name="daggerdbl" unicode="&#x2021;" horiz-adv-x="1139" 
d="M518 80l-401 -23v136l401 -23l-18 387l18 381l-401 -23v136l401 -23l-26 488h155l-26 -488l401 23v-136l-401 23l18 -381l-18 -387l401 23v-136l-401 23l26 -490h-155z" />
    <glyph glyph-name="bullet" unicode="&#x2022;" horiz-adv-x="948" 
d="M473 477q-52 0 -96 18t-76 50t-50 76t-18 96q0 53 18 97t50 76t76 50t96 18q53 0 97.5 -18t76.5 -50t50 -76t18 -97q0 -52 -18 -96t-50 -76t-76.5 -50t-97.5 -18z" />
    <glyph glyph-name="ellipsis" unicode="&#x2026;" horiz-adv-x="1647" 
d="M1284 193h178v-193h-178v193zM735 193h178v-193h-178v193zM186 193h176v-193h-176v193z" />
    <glyph glyph-name="perthousand" unicode="&#x2030;" horiz-adv-x="2824" 
d="M2355 -20q-81 0 -144.5 33t-106.5 93q-44 59 -66.5 141.5t-22.5 182.5q0 105 24.5 190t69.5 145t108.5 92t141.5 32t141 -32t107 -91q43 -59 66.5 -142.5t23.5 -187.5q0 -99 -23 -182.5t-67 -144.5t-107.5 -95t-144.5 -34zM467 627q-82 0 -145.5 33t-106.5 93
q-43 59 -65.5 141.5t-22.5 182.5q0 105 24 190.5t69 145.5q44 60 107.5 92.5t141.5 32.5t141 -32t107 -91q43 -60 66.5 -143.5t23.5 -186.5q0 -100 -23 -184t-66 -145q-44 -61 -107 -95t-144 -34zM1520 -20q-83 0 -146 33t-106 93q-44 59 -66 141.5t-22 182.5q0 105 24 190
t69 145q44 60 107.5 92t141.5 32t141 -32t107 -91q43 -59 66.5 -142.5t23.5 -187.5q0 -99 -23 -182.5t-66 -144.5q-44 -61 -107 -95t-144 -34zM1520 92q51 0 90.5 26.5t65.5 72.5t39.5 108.5t13.5 134.5q0 77 -13.5 140t-39.5 108q-27 45 -66 69.5t-90 24.5q-53 0 -92.5 -26
t-65.5 -71q-26 -46 -39.5 -108.5t-13.5 -134.5q0 -77 13.5 -140.5t40.5 -108.5q26 -45 65.5 -70t91.5 -25zM2357 92q51 0 90.5 26.5t65.5 72.5t39.5 108.5t13.5 134.5q0 77 -13.5 140t-40.5 108t-66.5 69.5t-90.5 24.5t-90.5 -26t-65.5 -71q-26 -46 -39.5 -108.5
t-13.5 -134.5q0 -77 13.5 -140.5t40.5 -108.5t66.5 -70t90.5 -25zM469 741q51 0 90 26t66 72q26 46 39.5 108t13.5 134q0 77 -14 140t-41 108t-66 69.5t-90 24.5t-90.5 -26t-66.5 -71q-27 -46 -40.5 -107.5t-13.5 -133.5q0 -77 14 -140.5t41 -108.5t67 -70t91 -25z
M1380 1516h131l-905 -1516h-131z" />
    <glyph glyph-name="minute" unicode="&#x2032;" horiz-adv-x="477" 
d="M182 1403l21 113h141l-125 -515h-72z" />
    <glyph glyph-name="second" unicode="&#x2033;" horiz-adv-x="829" 
d="M182 1403l21 113h141l-125 -515h-72zM535 1403l20 113h141l-125 -515h-71z" />
    <glyph glyph-name="guilsinglleft" unicode="&#x2039;" horiz-adv-x="664" 
d="M92 541l303 538h148l-297 -538l297 -541h-148z" />
    <glyph glyph-name="guilsinglright" unicode="&#x203a;" horiz-adv-x="664" 
d="M418 541l-299 538h147l305 -538l-305 -541h-147z" />
    <glyph glyph-name="fraction" unicode="&#x2044;" horiz-adv-x="954" 
d="M852 1516h133l-883 -1516h-133z" />
    <glyph glyph-name="fraction" unicode="&#x2215;" horiz-adv-x="954" 
d="M852 1516h133l-883 -1516h-133z" />
    <glyph glyph-name="uni2070" unicode="&#x2070;" horiz-adv-x="967" 
d="M485 553q-87 0 -154 34t-112 98q-46 63 -69 153t-23 202q0 111 23 201.5t69 155.5q45 64 112 99.5t154 35.5q85 0 151.5 -35.5t111.5 -99.5q45 -65 68.5 -155.5t23.5 -201.5q0 -112 -23.5 -202t-68.5 -153q-45 -64 -111.5 -98t-151.5 -34zM485 657q112 0 173 96.5
t61 286.5q0 92 -16.5 164t-46.5 122q-30 49 -73.5 75t-97.5 26q-57 0 -101.5 -26t-74.5 -75q-30 -50 -45.5 -122t-15.5 -164q0 -190 63 -286.5t174 -96.5z" />
    <glyph glyph-name="uni2074" unicode="&#x2074;" horiz-adv-x="897" 
d="M547 797h-434v80l424 639h129v-613h153v-106h-153v-228h-119v228zM549 901v451l-297 -451h297z" />
    <glyph glyph-name="uni2075" unicode="&#x2075;" horiz-adv-x="872" 
d="M426 553q-108 0 -189 50.5t-135 131.5l82 68q44 -66 103 -107t141 -41q54 0 95 18t68 49t40.5 71t13.5 84q0 53 -15 93.5t-41 68.5q-26 27 -62 41t-78 14q-34 0 -61.5 -6.5t-49.5 -18.5q-23 -13 -42.5 -32.5t-37.5 -45.5l-102 39l32 486h523l-9 -109h-411l-21 -291
q26 34 74.5 56t126.5 22q61 0 114 -21t93 -61t63 -98.5t23 -132.5q0 -75 -23.5 -136t-67.5 -103q-44 -43 -106.5 -66t-140.5 -23z" />
    <glyph glyph-name="uni2076" unicode="&#x2076;" horiz-adv-x="909" 
d="M473 553q-74 0 -137 28.5t-109 87.5q-47 58 -73.5 148t-26.5 213q0 113 25.5 205.5t74.5 158.5q48 66 118 102t159 36q91 0 158 -27t112 -69l-63 -86q-25 18 -47.5 33t-46.5 26q-25 10 -53 15.5t-62 5.5q-121 0 -187 -96t-71 -275q23 24 49.5 45t57.5 37t68 25.5t81 9.5
q77 0 134 -22.5t95 -62.5q37 -40 55.5 -95.5t18.5 -121.5q0 -68 -22.5 -127t-65.5 -102t-104 -67.5t-138 -24.5zM475 655q94 0 150.5 57t56.5 160q0 45 -11.5 82.5t-35.5 64.5t-62 41.5t-90 14.5q-72 0 -131 -37t-102 -94q7 -75 27 -129.5t50 -89.5q30 -36 68 -53t80 -17z
" />
    <glyph glyph-name="uni2077" unicode="&#x2077;" horiz-adv-x="829" 
d="M584 1405h-467v111h600v-95l-391 -852h-127z" />
    <glyph glyph-name="uni2078" unicode="&#x2078;" horiz-adv-x="903" 
d="M451 553q-83 0 -147.5 19.5t-108.5 53.5t-67.5 80t-23.5 99q0 48 15.5 86.5t45.5 70.5q29 31 71.5 57t95.5 50q-44 21 -78.5 43t-57.5 49q-24 27 -36.5 60t-12.5 75q0 46 20.5 88.5t59.5 75.5t95.5 52.5t128.5 19.5q73 0 130 -20t96 -53t59 -75.5t20 -87.5
q0 -41 -13.5 -72.5t-38.5 -57.5q-26 -27 -62 -48.5t-81 -42.5q55 -25 99 -51.5t75 -58.5t47.5 -71t16.5 -89q0 -52 -23.5 -98t-67.5 -80q-45 -34 -109.5 -54t-147.5 -20zM451 649q50 0 91.5 11.5t71.5 32.5q29 21 45.5 50.5t16.5 65.5t-16.5 66t-46.5 56q-31 26 -75.5 49
t-99.5 46q-57 -26 -98 -49.5t-67 -48.5q-26 -26 -38 -55t-12 -64t17 -64.5t47 -50.5t72 -33t92 -12zM457 1120q47 21 81 39t57 37q22 19 33 41.5t11 52.5q0 27 -11 53t-34 46t-58 32.5t-83 12.5q-46 0 -81 -12t-58 -31q-24 -20 -36 -45.5t-12 -51.5q0 -31 11 -54t34 -42
q23 -20 59 -38t87 -40z" />
    <glyph glyph-name="uni2079" unicode="&#x2079;" horiz-adv-x="909" 
d="M406 553q-91 0 -158.5 27t-112.5 69l64 86q24 -19 47 -33.5t47 -24.5t52 -15t63 -5q120 0 186.5 94t71.5 275q-23 -24 -49.5 -45.5t-57.5 -37.5q-32 -17 -69 -26.5t-80 -9.5q-77 0 -134 23t-95 64q-38 40 -56.5 95.5t-18.5 120.5q0 69 22.5 128t65.5 102t104 67.5
t138 24.5q74 0 137.5 -28.5t110.5 -86.5q47 -59 73.5 -148.5t26.5 -211.5q0 -113 -26.5 -206t-75.5 -159t-119 -102.5t-157 -36.5zM426 1010q72 0 131 37t102 94q-7 74 -27 128.5t-50 90.5q-30 35 -68 52.5t-80 17.5q-94 0 -150.5 -57t-56.5 -161q0 -45 11.5 -82t36.5 -64
q24 -27 61.5 -41.5t89.5 -14.5z" />
    <glyph glyph-name="uni2080" unicode="&#x2080;" horiz-adv-x="967" 
d="M485 -425q-87 0 -154 34t-112 98q-46 63 -69 153t-23 202q0 111 23 201.5t69 155.5q45 64 112 99.5t154 35.5q85 0 151.5 -35.5t111.5 -99.5q45 -65 68.5 -155.5t23.5 -201.5q0 -112 -23.5 -202t-68.5 -153q-45 -64 -111.5 -98t-151.5 -34zM485 -321q112 0 173 96.5
t61 286.5q0 92 -16.5 164t-46.5 122q-30 49 -73.5 75t-97.5 26q-57 0 -101.5 -26t-74.5 -75q-30 -50 -45.5 -122t-15.5 -164q0 -190 63 -286.5t174 -96.5z" />
    <glyph glyph-name="uni2081" unicode="&#x2081;" horiz-adv-x="729" 
d="M158 -300h174v708q-35 -17 -81 -25.5t-91 -8.5v104q62 2 107.5 15.5t74.5 44.5h113v-838h157v-109h-454v109z" />
    <glyph glyph-name="uni2082" unicode="&#x2082;" horiz-adv-x="913" 
d="M137 -368q0 52 14 102t50 101q35 51 95.5 105t154.5 114q50 31 85 58t57 54t32 56t10 64q0 72 -42 116.5t-126 44.5q-71 0 -123.5 -39t-95.5 -126l-98 55q55 112 135.5 166.5t185.5 54.5q67 0 120.5 -20t90.5 -55q37 -36 56.5 -85t19.5 -108q0 -48 -13 -90t-42 -81
q-30 -39 -77.5 -78t-117.5 -81q-113 -71 -168.5 -134.5t-65.5 -119.5h488v-113h-625v39z" />
    <glyph glyph-name="uni2083" unicode="&#x2083;" horiz-adv-x="913" 
d="M453 -425q-106 0 -192.5 50t-143.5 147l88 65q52 -85 114 -118t132 -33q97 0 148.5 48t51.5 124q0 46 -14 81t-46 59q-33 24 -85 36t-127 12h-53v98h59q132 0 190 40t58 120q0 31 -10 57t-31 45t-54 30t-79 11q-65 0 -119 -30.5t-100 -87.5l-84 69q60 75 135.5 117.5
t171.5 42.5q78 0 133.5 -20.5t91.5 -54.5q36 -35 53 -79t17 -92q0 -77 -39.5 -133t-120.5 -82q96 -29 138 -88.5t42 -150.5q0 -61 -22.5 -112.5t-64.5 -89.5q-43 -38 -103 -59.5t-135 -21.5z" />
    <glyph glyph-name="uni2084" unicode="&#x2084;" horiz-adv-x="897" 
d="M547 -181h-434v80l424 639h129v-613h153v-106h-153v-228h-119v228zM549 -77v451l-297 -451h297z" />
    <glyph glyph-name="uni2085" unicode="&#x2085;" horiz-adv-x="872" 
d="M426 -425q-108 0 -189 50.5t-135 131.5l82 68q44 -66 103 -107t141 -41q54 0 95 18t68 49t40.5 71t13.5 84q0 53 -15 93.5t-41 68.5q-26 27 -62 41t-78 14q-34 0 -61.5 -6.5t-49.5 -18.5q-23 -13 -42.5 -32.5t-37.5 -45.5l-102 39l32 486h523l-9 -109h-411l-21 -291
q26 34 74.5 56t126.5 22q61 0 114 -21t93 -61t63 -98.5t23 -132.5q0 -75 -23.5 -136t-67.5 -103q-44 -43 -106.5 -66t-140.5 -23z" />
    <glyph glyph-name="uni2086" unicode="&#x2086;" horiz-adv-x="909" 
d="M473 -425q-74 0 -137 28.5t-109 87.5q-47 58 -73.5 148t-26.5 213q0 113 25.5 205.5t74.5 158.5q48 66 118 102t159 36q91 0 158 -27t112 -69l-63 -86q-25 18 -47.5 33t-46.5 26q-25 10 -53 15.5t-62 5.5q-121 0 -187 -96t-71 -275q23 24 49.5 45t57.5 37t68 25.5t81 9.5
q77 0 134 -22.5t95 -62.5q37 -40 55.5 -95.5t18.5 -121.5q0 -68 -22.5 -127t-65.5 -102t-104 -67.5t-138 -24.5zM475 -323q94 0 150.5 57t56.5 160q0 45 -11.5 82.5t-35.5 64.5t-62 41.5t-90 14.5q-72 0 -131 -37t-102 -94q7 -75 27 -129.5t50 -89.5q30 -36 68 -53t80 -17z
" />
    <glyph glyph-name="uni2087" unicode="&#x2087;" horiz-adv-x="829" 
d="M584 427h-467v111h600v-95l-391 -852h-127z" />
    <glyph glyph-name="uni2088" unicode="&#x2088;" horiz-adv-x="903" 
d="M451 -425q-83 0 -147.5 19.5t-108.5 53.5t-67.5 80t-23.5 99q0 48 15.5 86.5t45.5 70.5q29 31 71.5 57t95.5 50q-44 21 -78.5 43t-57.5 49q-24 27 -36.5 60t-12.5 75q0 46 20.5 88.5t59.5 75.5t95.5 52.5t128.5 19.5q73 0 130 -20t96 -53t59 -75.5t20 -87.5
q0 -41 -13.5 -72.5t-38.5 -57.5q-26 -27 -62 -48.5t-81 -42.5q55 -25 99 -51.5t75 -58.5t47.5 -71t16.5 -89q0 -52 -23.5 -98t-67.5 -80q-45 -34 -109.5 -54t-147.5 -20zM451 -329q50 0 91.5 11.5t71.5 32.5q29 21 45.5 50.5t16.5 65.5t-16.5 66t-46.5 56q-31 26 -75.5 49
t-99.5 46q-57 -26 -98 -49.5t-67 -48.5q-26 -26 -38 -55t-12 -64t17 -64.5t47 -50.5t72 -33t92 -12zM457 142q47 21 81 39t57 37q22 19 33 41.5t11 52.5q0 27 -11 53t-34 46t-58 32.5t-83 12.5q-46 0 -81 -12t-58 -31q-24 -20 -36 -45.5t-12 -51.5q0 -31 11 -54t34 -42
q23 -20 59 -38t87 -40z" />
    <glyph glyph-name="uni2089" unicode="&#x2089;" horiz-adv-x="909" 
d="M406 -425q-91 0 -158.5 27t-112.5 69l64 86q24 -19 47 -33.5t47 -24.5t52 -15t63 -5q120 0 186.5 94t71.5 275q-23 -24 -49.5 -45.5t-57.5 -37.5q-32 -17 -69 -26.5t-80 -9.5q-77 0 -134 23t-95 64q-38 40 -56.5 95.5t-18.5 120.5q0 69 22.5 128t65.5 102t104 67.5
t138 24.5q74 0 137.5 -28.5t110.5 -86.5q47 -59 73.5 -148.5t26.5 -211.5q0 -113 -26.5 -206t-75.5 -159t-119 -102.5t-157 -36.5zM426 32q72 0 131 37t102 94q-7 74 -27 128.5t-50 90.5q-30 35 -68 52.5t-80 17.5q-94 0 -150.5 -57t-56.5 -161q0 -45 11.5 -82t36.5 -64
q24 -27 61.5 -41.5t89.5 -14.5z" />
    <glyph glyph-name="Euro" unicode="&#x20ac;" horiz-adv-x="1468" 
d="M43 854v113h258q22 150 75 258.5t128 179.5q74 71 164 105t186 34q105 0 183.5 -31.5t136.5 -88.5t97 -136.5t64 -175.5l-133 -39q-23 81 -49.5 144.5t-65.5 107.5q-40 44 -96.5 67t-138.5 23q-74 0 -141 -26.5t-121 -81.5t-92.5 -139.5t-55.5 -200.5h465v-113h-477
q-2 -20 -2 -40v-40q0 -31 1 -60t3 -55h475v-116h-463q34 -221 140.5 -333t271.5 -112q78 0 136.5 24t102.5 70t75.5 113.5t54.5 155.5l133 -35q-27 -101 -70.5 -185t-105.5 -144t-143.5 -93t-184.5 -33q-104 0 -194.5 34.5t-162.5 105.5t-122 178.5t-72 253.5h-260v116h248
q-2 25 -3 52t-1 55q0 23 1 44.5t1 43.5h-246z" />
    <glyph glyph-name="uni2117" unicode="&#x2117;" horiz-adv-x="1767" 
d="M883 -29q-164 0 -306.5 61.5t-247.5 168.5q-106 107 -166.5 250t-60.5 307q0 109 27.5 209.5t78.5 188.5q51 87 122 158.5t158 122.5t187.5 79t209.5 28t209 -28t187 -79t157.5 -122.5t121.5 -158.5q50 -88 77.5 -188.5t27.5 -209.5t-27.5 -209.5t-77.5 -187.5
q-51 -88 -122.5 -160t-157.5 -123q-87 -51 -187.5 -79t-209.5 -28zM885 55q145 0 271 55t219 151q93 95 146.5 223t53.5 274q0 97 -24.5 186.5t-68.5 167.5q-45 78 -108 142t-139 110q-77 46 -166 71t-186 25t-185.5 -25t-165.5 -70q-77 -46 -139.5 -110t-106.5 -142
q-45 -78 -69 -168t-24 -187t24.5 -186.5t69.5 -167.5q44 -78 107 -142.5t140 -110.5q76 -46 165 -71t186 -25zM627 1194h295q146 0 224.5 -61t78.5 -179q0 -64 -22 -111t-62 -77q-41 -31 -98.5 -46t-129.5 -15h-186v-379h-100v868zM918 797q48 0 86.5 8t65.5 26q26 18 40 47
t14 72q0 83 -55 117.5t-154 34.5h-188v-305h191z" />
    <glyph glyph-name="trademark" unicode="&#x2122;" horiz-adv-x="1794" 
d="M862 1516h142l260 -723l264 723h143v-867h-110v680l-252 -680h-92l-252 680v-680h-103v867zM332 1419h-271v97h648v-97h-269v-770h-108v770z" />
    <glyph glyph-name="Omega" unicode="&#x2126;" horiz-adv-x="1520" 
d="M760 1544q152 0 268 -59.5t194 -160.5q78 -102 118 -235.5t40 -281.5q0 -106 -24.5 -204t-69.5 -184q-45 -87 -108.5 -161.5t-141.5 -132.5h330v-125h-471v125q76 61 139 133t108 156t70 181t25 210q0 129 -31.5 240.5t-92.5 194.5q-61 82 -150.5 129.5t-204.5 47.5
q-110 0 -198 -44.5t-149 -125.5q-62 -81 -95 -193t-33 -247q0 -114 25 -212t71 -182q45 -84 108 -155.5t138 -132.5v-125h-471v125h329q-78 57 -142 131t-109 162q-46 87 -70.5 185.5t-24.5 203.5q0 100 18.5 193.5t54.5 175.5t89 150t123 117q69 48 153.5 74.5t184.5 26.5z
" />
    <glyph glyph-name="estimated" unicode="&#x212e;" horiz-adv-x="1427" 
d="M356 651v-450q73 -73 162.5 -109.5t194.5 -36.5q92 0 163.5 22t129.5 62q57 40 103.5 94t88.5 119l76 -47q-47 -73 -101 -133.5t-121 -103.5q-68 -44 -151 -68.5t-188 -24.5q-144 0 -261.5 54t-200.5 147t-128 216t-45 261q0 141 44 264.5t127 215.5q82 92 201 145
t269 53t268.5 -54t200.5 -147t126 -216.5t46 -262.5h-1004zM1075 1106q-34 31 -75 58t-86 46q-46 19 -96 30t-101 11q-105 0 -196.5 -36.5t-164.5 -108.5v-373h719v373z" />
    <glyph glyph-name="partialdiff" unicode="&#x2202;" horiz-adv-x="1167" 
d="M700 1542q102 -87 170.5 -186t110.5 -211q41 -113 59 -237.5t18 -262.5q0 -150 -46 -273t-123 -210q-77 -88 -177.5 -136.5t-209.5 -48.5q-102 0 -182 36t-135 100q-56 63 -85 149t-29 186q0 142 46.5 256.5t122.5 195.5q76 80 171.5 123.5t193.5 43.5q103 0 183.5 -48.5
t130.5 -133.5q-11 82 -36 161t-62 153q-38 73 -88.5 140t-113.5 124zM505 82q76 0 150 38.5t132 107.5q57 68 92.5 163t35.5 208q0 80 -19.5 147.5t-56.5 116.5q-37 48 -90.5 75t-120.5 27q-80 0 -155 -37.5t-134 -105.5t-94.5 -163.5t-35.5 -210.5q0 -79 20 -146t58 -116
t93 -76.5t125 -27.5z" />
    <glyph glyph-name="Delta" unicode="&#x2206;" horiz-adv-x="1370" 
d="M614 1524h140l549 -1524h-1235zM1114 121l-432 1214h-2l-436 -1214h870z" />
    <glyph glyph-name="product" unicode="&#x220f;" horiz-adv-x="1487" 
d="M195 1516h1097v-1926h-145v1803h-809v-1803h-143v1926z" />
    <glyph glyph-name="summation" unicode="&#x2211;" horiz-adv-x="1210" 
d="M268 -289h828v-121h-983v107l489 885l-463 813v121h934v-123h-776l457 -805z" />
    <glyph glyph-name="minus" unicode="&#x2212;" horiz-adv-x="1303" 
d="M135 735h1034v-123h-1034v123z" />
    <glyph glyph-name="radical" unicode="&#x221a;" horiz-adv-x="1340" 
d="M607 -5l-354 964h-175v119h280l321 -913h4l478 1351h142l-557 -1521h-139z" />
    <glyph glyph-name="infinity" unicode="&#x221e;" horiz-adv-x="1561" 
d="M414 385q-165 0 -251.5 88.5t-86.5 261.5q0 172 86.5 262t251.5 90q118 0 207.5 -64t158.5 -179q69 115 158 179t209 64q165 0 251.5 -90t86.5 -262q0 -173 -86.5 -261.5t-251.5 -88.5q-120 0 -209 66.5t-158 183.5q-69 -118 -158.5 -184t-207.5 -66zM418 500q54 0 97 19
t79 52q36 32 66 74.5t59 89.5q-29 46 -59 89t-66 76t-79 53t-97 20q-107 0 -163 -61t-56 -177q0 -115 56 -175t163 -60zM1143 500q106 0 162.5 60t56.5 175q0 116 -56.5 177t-162.5 61q-54 0 -97 -19.5t-79 -51.5t-66.5 -74.5t-58.5 -88.5q28 -47 58.5 -90t66.5 -76t79 -53
t97 -20z" />
    <glyph glyph-name="integral" unicode="&#x222b;" horiz-adv-x="676" 
d="M158 -412q-9 0 -21 0.5t-24 1.5q-13 2 -23.5 3.5t-15.5 3.5v112q12 -3 29 -5.5t34 -2.5q50 0 78.5 29t28.5 92v1419q0 137 77 207t232 70q20 0 44 -1.5t38 -3.5v-118q-13 2 -34 3t-38 1q-39 0 -71.5 -8t-56.5 -26t-37 -48t-13 -74v-1423q0 -56 -12 -99t-39 -73
q-27 -29 -70.5 -44.5t-105.5 -15.5z" />
    <glyph glyph-name="approxequal" unicode="&#x2248;" horiz-adv-x="1223" 
d="M852 315q-32 2 -76 14t-92 29q-49 16 -99 35t-95 36q-46 17 -83.5 28.5t-60.5 13.5q-24 1 -44 -3t-35 -15t-24 -30.5t-12 -49.5l-98 12q13 115 73.5 165t149.5 44q33 -2 76.5 -13.5t92.5 -27.5q49 -17 99 -36t95 -35q45 -17 82.5 -29t60.5 -13q47 -5 78 16t37 81l96 -11
q-11 -115 -70.5 -166t-150.5 -45zM864 729q-32 1 -75.5 13t-91.5 29q-49 16 -99.5 35t-95.5 36q-46 16 -83.5 27.5t-60.5 13.5q-46 5 -77 -16t-37 -81l-97 13q6 57 24 98t47 67q29 25 67.5 36t83.5 8q33 -2 76.5 -14t92.5 -28q48 -17 98 -36t95 -36t82.5 -28.5t60.5 -13.5
q48 -2 79 18t36 80l98 -10q-6 -58 -25 -99t-48 -67t-67 -37t-83 -8z" />
    <glyph glyph-name="notequal" unicode="&#x2260;" horiz-adv-x="1303" 
d="M455 371h-322v121h375l168 346h-543v120h596l193 400h133l-191 -400h303v-120h-354l-172 -346h526v-121h-579l-176 -371h-136z" />
    <glyph glyph-name="lessequal" unicode="&#x2264;" horiz-adv-x="1303" 
d="M104 680v102l1084 398v-133l-897 -316l897 -313v-133zM104 221h1084v-119h-1084v119z" />
    <glyph glyph-name="greaterequal" unicode="&#x2265;" horiz-adv-x="1303" 
d="M117 418l897 313l-897 316v133l1083 -398v-102l-1083 -395v133zM117 221h1083v-119h-1083v119z" />
    <glyph glyph-name="lozenge" unicode="&#x25ca;" 
d="M121 758l481 758h125l483 -758l-481 -758h-127zM1061 758l-395 612l-396 -612l396 -613z" />
    <glyph glyph-name="uni2713" unicode="&#x2713;" horiz-adv-x="1184" 
d="M53 1079h152l319 -911h4l476 1348h145l-557 -1520h-141z" />
    <glyph glyph-name="uniF6C3" unicode="&#xf6c3;" horiz-adv-x="549" 
d="M256 -283h-66v183h170v-164l-90 -221h-61z" />
    <glyph glyph-name="uniF8FF" unicode="&#xf8ff;" horiz-adv-x="1556" 
d="M326 360v127l65 -4l15 222l-386 -27v156l386 -25l-15 225l-65 -4v125l59 -4l-4 59h127l-4 -65l223 -12l-27 383h156l-25 -383l224 12l-4 65h125l-5 -59l62 4v-125l-68 2l-12 -223l383 25v-156l-383 27l12 -222l68 4v-127l-62 5l5 -62h-125l4 68l-224 14l25 -385h-156
l27 385l-223 -14l4 -68h-127l4 62zM727 1051l-229 -13l-11 -229h240v242zM831 1051v-242h240l-12 229zM831 467l228 10l12 228h-240v-238zM727 467v238h-240l13 -226z" />
    <glyph glyph-name="zero.zero" horiz-adv-x="1337" 
d="M670 -29q-134 0 -237.5 56.5t-174.5 159.5t-108 248.5t-37 322.5t37 322t108 248t174.5 159.5t237.5 56.5q133 0 236.5 -56.5t173.5 -159.5t106.5 -248t36.5 -322t-36.5 -322.5t-106.5 -248.5t-173.5 -159.5t-236.5 -56.5zM258 758q0 -117 15.5 -213t44.5 -173l656 864
q-54 89 -130.5 134t-173.5 45t-173.5 -42.5t-129.5 -125.5t-81 -206t-28 -283zM670 98q96 0 172 43t129 127q52 83 80 206t28 284q0 115 -14.5 209.5t-43.5 169.5l-657 -861q54 -88 131.5 -133t174.5 -45z" />
    <glyph glyph-name="glyph379" horiz-adv-x="549" 
d="M190 1358l89 221h61l-47 -203h67v-182h-170v164z" />
    <glyph glyph-name="glyph382" horiz-adv-x="164" 
 />
    <glyph glyph-name="uni2003.ss20" horiz-adv-x="2662" 
 />
    <glyph glyph-name="uni2009.ss20" horiz-adv-x="334" 
 />
    <glyph glyph-name="glyph387" horiz-adv-x="246" 
 />
    <glyph glyph-name="parenleft.case" horiz-adv-x="813" 
d="M639 -277q-125 105 -220.5 216.5t-159.5 232.5q-65 121 -97.5 252.5t-32.5 277.5t32.5 277.5t97.5 252.5q64 121 159.5 232.5t220.5 216.5l63 -72q-95 -87 -172 -189t-131 -216q-55 -115 -84.5 -241t-29.5 -261q0 -136 29.5 -262t84.5 -241t132.5 -217t173.5 -189z" />
    <glyph glyph-name="parenright.case" horiz-adv-x="813" 
d="M109 -207q96 87 174 189t133 217q54 115 84 241t30 262q0 135 -30 261t-84 241q-55 114 -132.5 216t-172.5 189l63 72q125 -105 221 -216.5t161 -232.5q64 -121 97 -252.5t33 -277.5t-33 -277.5t-97 -252.5q-65 -121 -161 -232.5t-221 -216.5z" />
    <glyph glyph-name="bracketleft.case" horiz-adv-x="797" 
d="M180 1659h520v-109h-376v-1708h376v-109h-520v1926z" />
    <glyph glyph-name="bracketright.case" horiz-adv-x="797" 
d="M96 -158h377v1706h-377v111h520v-1926h-520v109z" />
    <glyph glyph-name="braceleft.case" horiz-adv-x="778" 
d="M565 -267q-141 0 -203.5 72.5t-62.5 206.5v385q0 75 -14 123t-42 76q-28 27 -71 37t-100 10v106q57 0 100 10t71 38q28 27 42 75t14 123v385q0 67 15 119t48 88q32 35 82 53.5t121 18.5h127v-109h-90q-83 0 -121.5 -39.5t-38.5 -118.5v-403q0 -75 -11.5 -125t-33.5 -82
q-23 -32 -55 -51t-74 -33v-4q42 -14 74 -33t55 -51q22 -32 33.5 -82t11.5 -125v-403q0 -79 38.5 -118.5t121.5 -39.5h90v-109h-127z" />
    <glyph glyph-name="braceright.case" horiz-adv-x="778" 
d="M86 -158h90q84 0 122 39.5t38 118.5v409q0 75 11.5 124t34.5 80q22 31 54 49t74 32v4q-42 14 -74 32t-54 49q-23 31 -34.5 80t-11.5 124v409q0 79 -34.5 121.5t-117.5 42.5h-90l-8 103h133q71 0 120.5 -17.5t80.5 -51.5q31 -35 45 -86t14 -118v-391q0 -75 14 -123t43 -75
q28 -28 70.5 -38t100.5 -10v-106q-58 0 -100.5 -10t-70.5 -37q-29 -28 -43 -76t-14 -123v-391q0 -67 -14 -118t-45 -86q-31 -34 -80.5 -51.5t-120.5 -17.5h-133v109z" />
    <glyph glyph-name="guilsinglleft.case" horiz-adv-x="664" 
d="M92 684l303 538h148l-297 -538l297 -541h-148z" />
    <glyph glyph-name="guilsinglright.case" horiz-adv-x="664" 
d="M418 684l-299 538h147l305 -538l-305 -541h-147z" />
    <glyph glyph-name="guillemotleft.case" horiz-adv-x="1069" 
d="M92 684l303 538h148l-297 -538l297 -541h-148zM498 684l305 538h145l-299 -538l299 -541h-145z" />
    <glyph glyph-name="guillemotright.case" horiz-adv-x="1069" 
d="M823 684l-297 538h146l305 -538l-305 -541h-146zM418 684l-299 538h147l305 -538l-305 -541h-147z" />
    <glyph glyph-name="hyphen.case" horiz-adv-x="731" 
d="M135 848h461v-123h-461v123z" />
    <glyph glyph-name="endash.case" horiz-adv-x="1317" 
d="M137 850h1043v-129h-1043v129z" />
    <glyph glyph-name="emdash.case" horiz-adv-x="1892" 
d="M137 850h1618v-129h-1618v129z" />
    <glyph glyph-name="periodcentered.case" horiz-adv-x="551" 
d="M186 891h181v-193h-181v193z" />
    <glyph glyph-name="endash.locl" horiz-adv-x="1024" 
d="M0 707h1024v-129h-1024v129z" />
    <glyph glyph-name="uni2015.case" horiz-adv-x="2048" 
d="M0 850h2048v-129h-2048v129z" />
    <glyph glyph-name="endash.locl.case" horiz-adv-x="1024" 
d="M0 850h1024v-129h-1024v129z" />
    <glyph glyph-name="registered.salt" horiz-adv-x="1767" 
d="M883 -29q-164 0 -306.5 61.5t-247.5 168.5q-106 107 -166.5 250t-60.5 307q0 109 27.5 209.5t78.5 188.5q51 87 122 158.5t158 122.5t187.5 79t209.5 28t209 -28t187 -79t157.5 -122.5t121.5 -158.5q50 -88 77.5 -188.5t27.5 -209.5t-27.5 -209.5t-77.5 -187.5
q-51 -88 -122.5 -160t-157.5 -123q-87 -51 -187.5 -79t-209.5 -28zM885 55q145 0 271 55t219 151q93 95 146.5 223t53.5 274q0 97 -24.5 186.5t-68.5 167.5q-45 78 -108 142t-139 110q-77 46 -166 71t-186 25t-185.5 -25t-165.5 -70q-77 -46 -139.5 -110t-106.5 -142
q-45 -78 -69 -168t-24 -187t24.5 -186.5t69.5 -167.5q44 -78 107 -142.5t140 -110.5q76 -46 165 -71t186 -25zM600 1204h295q149 0 227 -61t78 -176q0 -52 -14.5 -91.5t-39.5 -67.5q-26 -29 -62.5 -47.5t-79.5 -27.5l210 -393h-110l-205 379h-197v-379h-102v864zM891 805
q49 0 88 8t66 27t41 49t14 74q0 81 -55.5 115t-155.5 34h-187v-307h189z" />
    <glyph glyph-name="zero.dnom" horiz-adv-x="885" 
d="M445 -16q-87 0 -154 34t-112 98q-46 63 -69 153t-23 202q0 111 23 201.5t69 155.5q45 64 112 99.5t154 35.5q85 0 151.5 -35.5t111.5 -99.5q45 -65 68.5 -155.5t23.5 -201.5q0 -112 -23.5 -202t-68.5 -153q-45 -64 -111.5 -98t-151.5 -34zM445 88q112 0 173 96.5
t61 286.5q0 92 -16.5 164t-46.5 122q-30 49 -73.5 75t-97.5 26q-57 0 -101.5 -26t-74.5 -75q-30 -50 -45.5 -122t-15.5 -164q0 -190 63 -286.5t174 -96.5z" />
    <glyph glyph-name="one.dnom" horiz-adv-x="647" 
d="M117 109h174v708q-35 -17 -81 -25.5t-91 -8.5v104q62 2 107.5 15.5t74.5 44.5h113v-838h157v-109h-454v109z" />
    <glyph glyph-name="two.dnom" horiz-adv-x="831" 
d="M97 41q0 52 14 102t50 101q35 51 95.5 105t154.5 114q50 31 85 58t57 54t32 56t10 64q0 72 -42 116.5t-126 44.5q-71 0 -123.5 -39t-95.5 -126l-98 55q55 112 135.5 166.5t185.5 54.5q67 0 120.5 -20t90.5 -55q37 -36 56.5 -85t19.5 -108q0 -48 -13 -90t-42 -81
q-30 -39 -77.5 -78t-117.5 -81q-113 -71 -168.5 -134.5t-65.5 -119.5h488v-113h-625v39z" />
    <glyph glyph-name="three.dnom" horiz-adv-x="831" 
d="M413 -16q-106 0 -192.5 50t-143.5 147l88 65q52 -85 114 -118t132 -33q97 0 148.5 48t51.5 124q0 46 -14 81t-46 59q-33 24 -85 36t-127 12h-53v98h59q132 0 190 40t58 120q0 31 -10 57t-31 45t-54 30t-79 11q-65 0 -119 -30.5t-100 -87.5l-84 69q60 75 135.5 117.5
t171.5 42.5q78 0 133.5 -20.5t91.5 -54.5q36 -35 53 -79t17 -92q0 -77 -39.5 -133t-120.5 -82q96 -29 138 -88.5t42 -150.5q0 -61 -22.5 -112.5t-64.5 -89.5q-43 -38 -103 -59.5t-135 -21.5z" />
    <glyph glyph-name="four.dnom" horiz-adv-x="815" 
d="M507 228h-434v80l424 639h129v-613h153v-106h-153v-228h-119v228zM509 332v451l-297 -451h297z" />
    <glyph glyph-name="five.dnom" horiz-adv-x="791" 
d="M386 -16q-108 0 -189 50.5t-135 131.5l82 68q44 -66 103 -107t141 -41q54 0 95 18t68 49t40.5 71t13.5 84q0 53 -15 93.5t-41 68.5q-26 27 -62 41t-78 14q-34 0 -61.5 -6.5t-49.5 -18.5q-23 -13 -42.5 -32.5t-37.5 -45.5l-102 39l32 486h523l-9 -109h-411l-21 -291
q26 34 74.5 56t126.5 22q61 0 114 -21t93 -61t63 -98.5t23 -132.5q0 -75 -23.5 -136t-67.5 -103q-44 -43 -106.5 -66t-140.5 -23z" />
    <glyph glyph-name="six.dnom" horiz-adv-x="827" 
d="M433 -16q-74 0 -137 28.5t-109 87.5q-47 58 -73.5 148t-26.5 213q0 113 25.5 205.5t74.5 158.5q48 66 118 102t159 36q91 0 158 -27t112 -69l-63 -86q-25 18 -47.5 33t-46.5 26q-25 10 -53 15.5t-62 5.5q-121 0 -187 -96t-71 -275q23 24 49.5 45t57.5 37t68 25.5t81 9.5
q77 0 134 -22.5t95 -62.5q37 -40 55.5 -95.5t18.5 -121.5q0 -68 -22.5 -127t-65.5 -102t-104 -67.5t-138 -24.5zM435 86q94 0 150.5 57t56.5 160q0 45 -11.5 82.5t-35.5 64.5t-62 41.5t-90 14.5q-72 0 -131 -37t-102 -94q7 -75 27 -129.5t50 -89.5q30 -36 68 -53t80 -17z
" />
    <glyph glyph-name="seven.dnom" horiz-adv-x="748" 
d="M544 836h-467v111h600v-95l-391 -852h-127z" />
    <glyph glyph-name="eight.dnom" horiz-adv-x="821" 
d="M411 -16q-83 0 -147.5 19.5t-108.5 53.5t-67.5 80t-23.5 99q0 48 15.5 86.5t45.5 70.5q29 31 71.5 57t95.5 50q-44 21 -78.5 43t-57.5 49q-24 27 -36.5 60t-12.5 75q0 46 20.5 88.5t59.5 75.5t95.5 52.5t128.5 19.5q73 0 130 -20t96 -53t59 -75.5t20 -87.5
q0 -41 -13.5 -72.5t-38.5 -57.5q-26 -27 -62 -48.5t-81 -42.5q55 -25 99 -51.5t75 -58.5t47.5 -71t16.5 -89q0 -52 -23.5 -98t-67.5 -80q-45 -34 -109.5 -54t-147.5 -20zM411 80q50 0 91.5 11.5t71.5 32.5q29 21 45.5 50.5t16.5 65.5t-16.5 66t-46.5 56q-31 26 -75.5 49
t-99.5 46q-57 -26 -98 -49.5t-67 -48.5q-26 -26 -38 -55t-12 -64t17 -64.5t47 -50.5t72 -33t92 -12zM417 551q47 21 81 39t57 37q22 19 33 41.5t11 52.5q0 27 -11 53t-34 46t-58 32.5t-83 12.5q-46 0 -81 -12t-58 -31q-24 -20 -36 -45.5t-12 -51.5q0 -31 11 -54t34 -42
q23 -20 59 -38t87 -40z" />
    <glyph glyph-name="nine.dnom" horiz-adv-x="827" 
d="M366 -16q-91 0 -158.5 27t-112.5 69l64 86q24 -19 47 -33.5t47 -24.5t52 -15t63 -5q120 0 186.5 94t71.5 275q-23 -24 -49.5 -45.5t-57.5 -37.5q-32 -17 -69 -26.5t-80 -9.5q-77 0 -134 23t-95 64q-38 40 -56.5 95.5t-18.5 120.5q0 69 22.5 128t65.5 102t104 67.5
t138 24.5q74 0 137.5 -28.5t110.5 -86.5q47 -59 73.5 -148.5t26.5 -211.5q0 -113 -26.5 -206t-75.5 -159t-119 -102.5t-157 -36.5zM386 441q72 0 131 37t102 94q-7 74 -27 128.5t-50 90.5q-30 35 -68 52.5t-80 17.5q-94 0 -150.5 -57t-56.5 -161q0 -45 11.5 -82t36.5 -64
q24 -27 61.5 -41.5t89.5 -14.5z" />
    <glyph glyph-name="zero.numr" horiz-adv-x="885" 
d="M445 543q-87 0 -154 34t-112 98q-46 63 -69 153t-23 202q0 111 23 201.5t69 155.5q45 64 112 99.5t154 35.5q85 0 151.5 -35.5t111.5 -99.5q45 -65 68.5 -155.5t23.5 -201.5q0 -112 -23.5 -202t-68.5 -153q-45 -64 -111.5 -98t-151.5 -34zM445 647q112 0 173 96.5
t61 286.5q0 92 -16.5 164t-46.5 122q-30 49 -73.5 75t-97.5 26q-57 0 -101.5 -26t-74.5 -75q-30 -50 -45.5 -122t-15.5 -164q0 -190 63 -286.5t174 -96.5z" />
    <glyph glyph-name="one.numr" horiz-adv-x="647" 
d="M117 668h174v708q-35 -17 -81 -25.5t-91 -8.5v104q62 2 107.5 15.5t74.5 44.5h113v-838h157v-109h-454v109z" />
    <glyph glyph-name="two.numr" horiz-adv-x="831" 
d="M97 600q0 52 14 102t50 101q35 51 95.5 105t154.5 114q50 31 85 58t57 54t32 56t10 64q0 72 -42 116.5t-126 44.5q-71 0 -123.5 -39t-95.5 -126l-98 55q55 112 135.5 166.5t185.5 54.5q67 0 120.5 -20t90.5 -55q37 -36 56.5 -85t19.5 -108q0 -48 -13 -90t-42 -81
q-30 -39 -77.5 -78t-117.5 -81q-113 -71 -168.5 -134.5t-65.5 -119.5h488v-113h-625v39z" />
    <glyph glyph-name="three.numr" horiz-adv-x="831" 
d="M413 543q-106 0 -192.5 50t-143.5 147l88 65q52 -85 114 -118t132 -33q97 0 148.5 48t51.5 124q0 46 -14 81t-46 59q-33 24 -85 36t-127 12h-53v98h59q132 0 190 40t58 120q0 31 -10 57t-31 45t-54 30t-79 11q-65 0 -119 -30.5t-100 -87.5l-84 69q60 75 135.5 117.5
t171.5 42.5q78 0 133.5 -20.5t91.5 -54.5q36 -35 53 -79t17 -92q0 -77 -39.5 -133t-120.5 -82q96 -29 138 -88.5t42 -150.5q0 -61 -22.5 -112.5t-64.5 -89.5q-43 -38 -103 -59.5t-135 -21.5z" />
    <glyph glyph-name="four.numr" horiz-adv-x="815" 
d="M507 787h-434v80l424 639h129v-613h153v-106h-153v-228h-119v228zM509 891v451l-297 -451h297z" />
    <glyph glyph-name="five.numr" horiz-adv-x="791" 
d="M386 543q-108 0 -189 50.5t-135 131.5l82 68q44 -66 103 -107t141 -41q54 0 95 18t68 49t40.5 71t13.5 84q0 53 -15 93.5t-41 68.5q-26 27 -62 41t-78 14q-34 0 -61.5 -6.5t-49.5 -18.5q-23 -13 -42.5 -32.5t-37.5 -45.5l-102 39l32 486h523l-9 -109h-411l-21 -291
q26 34 74.5 56t126.5 22q61 0 114 -21t93 -61t63 -98.5t23 -132.5q0 -75 -23.5 -136t-67.5 -103q-44 -43 -106.5 -66t-140.5 -23z" />
    <glyph glyph-name="six.numr" horiz-adv-x="827" 
d="M433 543q-74 0 -137 28.5t-109 87.5q-47 58 -73.5 148t-26.5 213q0 113 25.5 205.5t74.5 158.5q48 66 118 102t159 36q91 0 158 -27t112 -69l-63 -86q-25 18 -47.5 33t-46.5 26q-25 10 -53 15.5t-62 5.5q-121 0 -187 -96t-71 -275q23 24 49.5 45t57.5 37t68 25.5t81 9.5
q77 0 134 -22.5t95 -62.5q37 -40 55.5 -95.5t18.5 -121.5q0 -68 -22.5 -127t-65.5 -102t-104 -67.5t-138 -24.5zM435 645q94 0 150.5 57t56.5 160q0 45 -11.5 82.5t-35.5 64.5t-62 41.5t-90 14.5q-72 0 -131 -37t-102 -94q7 -75 27 -129.5t50 -89.5q30 -36 68 -53t80 -17z
" />
    <glyph glyph-name="seven.numr" horiz-adv-x="748" 
d="M544 1395h-467v111h600v-95l-391 -852h-127z" />
    <glyph glyph-name="eight.numr" horiz-adv-x="821" 
d="M411 543q-83 0 -147.5 19.5t-108.5 53.5t-67.5 80t-23.5 99q0 48 15.5 86.5t45.5 70.5q29 31 71.5 57t95.5 50q-44 21 -78.5 43t-57.5 49q-24 27 -36.5 60t-12.5 75q0 46 20.5 88.5t59.5 75.5t95.5 52.5t128.5 19.5q73 0 130 -20t96 -53t59 -75.5t20 -87.5
q0 -41 -13.5 -72.5t-38.5 -57.5q-26 -27 -62 -48.5t-81 -42.5q55 -25 99 -51.5t75 -58.5t47.5 -71t16.5 -89q0 -52 -23.5 -98t-67.5 -80q-45 -34 -109.5 -54t-147.5 -20zM411 639q50 0 91.5 11.5t71.5 32.5q29 21 45.5 50.5t16.5 65.5t-16.5 66t-46.5 56q-31 26 -75.5 49
t-99.5 46q-57 -26 -98 -49.5t-67 -48.5q-26 -26 -38 -55t-12 -64t17 -64.5t47 -50.5t72 -33t92 -12zM417 1110q47 21 81 39t57 37q22 19 33 41.5t11 52.5q0 27 -11 53t-34 46t-58 32.5t-83 12.5q-46 0 -81 -12t-58 -31q-24 -20 -36 -45.5t-12 -51.5q0 -31 11 -54t34 -42
q23 -20 59 -38t87 -40z" />
    <glyph glyph-name="nine.numr" horiz-adv-x="827" 
d="M366 543q-91 0 -158.5 27t-112.5 69l64 86q24 -19 47 -33.5t47 -24.5t52 -15t63 -5q120 0 186.5 94t71.5 275q-23 -24 -49.5 -45.5t-57.5 -37.5q-32 -17 -69 -26.5t-80 -9.5q-77 0 -134 23t-95 64q-38 40 -56.5 95.5t-18.5 120.5q0 69 22.5 128t65.5 102t104 67.5
t138 24.5q74 0 137.5 -28.5t110.5 -86.5q47 -59 73.5 -148.5t26.5 -211.5q0 -113 -26.5 -206t-75.5 -159t-119 -102.5t-157 -36.5zM386 1000q72 0 131 37t102 94q-7 74 -27 128.5t-50 90.5q-30 35 -68 52.5t-80 17.5q-94 0 -150.5 -57t-56.5 -161q0 -45 11.5 -82t36.5 -64
q24 -27 61.5 -41.5t89.5 -14.5z" />
    <glyph glyph-name="i.locl" horiz-adv-x="492" 
d="M176 1079h141v-1079h-141v1079zM172 1481h150v-152h-150v152z" />
    <glyph glyph-name="a.sc" horiz-adv-x="1182" 
d="M518 1217h146l456 -1217h-147l-131 358h-510l-135 -358h-136zM799 471l-137 379l-74 205h-4l-74 -199l-139 -385h428z" />
    <glyph glyph-name="b.sc" horiz-adv-x="1198" 
d="M164 1212h454q107 0 189 -16t138 -52q55 -36 83.5 -94t28.5 -143q0 -61 -18.5 -108.5t-49.5 -81.5q-32 -35 -72.5 -57t-85.5 -31v-4q61 -10 110 -32.5t84 -58.5q35 -37 54 -87.5t19 -116.5q0 -164 -112 -247t-329 -83h-493v1212zM301 678h303q75 0 133.5 11t98.5 36
t61 66t21 100q0 58 -18 98t-55 65q-38 25 -96 35.5t-137 10.5h-311v-422zM301 113h350q159 0 233 53.5t74 169.5q0 64 -24 107.5t-68 70.5t-107.5 39t-142.5 12h-315v-452z" />
    <glyph glyph-name="c.sc" horiz-adv-x="1223" 
d="M641 -23q-122 0 -221.5 44t-170.5 127q-71 82 -110 199t-39 263q0 140 39.5 255t111.5 198q71 82 170.5 127t219.5 45q100 0 177.5 -26.5t135.5 -75.5t97 -117t61 -152l-131 -35q-21 70 -50 124t-70 91q-41 36 -95.5 55t-126.5 19q-92 0 -165 -36t-125 -102t-79.5 -159
t-27.5 -207q0 -122 28 -218.5t80 -163.5t126.5 -102.5t166.5 -35.5q140 0 228 77.5t130 225.5l129 -30q-24 -89 -66 -161t-103 -123t-141 -78.5t-179 -27.5z" />
    <glyph glyph-name="d.sc" horiz-adv-x="1243" 
d="M164 1212h336q155 0 274.5 -35t201.5 -108q81 -74 123 -188.5t42 -272.5q0 -159 -43 -274t-125 -189q-83 -74 -202 -109.5t-271 -35.5h-336v1212zM303 117h213q118 0 208.5 27t151.5 86q61 58 92 151t31 225q0 130 -31.5 223t-92.5 152q-62 58 -152.5 85.5t-208.5 27.5
h-211v-977z" />
    <glyph glyph-name="e.sc" horiz-adv-x="1061" 
d="M164 0v1212h780v-118h-641v-398h477v-116h-477v-461h676v-119h-815z" />
    <glyph glyph-name="f.sc" horiz-adv-x="991" 
d="M164 0v1212h766v-118h-627v-410h463v-115h-463v-569h-139z" />
    <glyph glyph-name="g.sc" horiz-adv-x="1268" 
d="M629 -23q-126 0 -224.5 48.5t-165.5 133.5q-68 84 -103.5 200t-35.5 251q0 143 40.5 258.5t112.5 197.5q72 81 172 125t220 44q183 0 301.5 -92t169.5 -281l-129 -33q-44 148 -125.5 218.5t-216.5 70.5q-84 0 -157.5 -32t-127.5 -95q-55 -63 -86.5 -157t-31.5 -218
q0 -123 28.5 -220.5t81.5 -164.5q52 -68 126.5 -103.5t166.5 -35.5q79 0 144 25.5t111 74.5q46 48 71.5 117t25.5 156h-305v113h436v-578h-118v184h-2q-23 -41 -56 -78t-79 -66t-106.5 -46t-137.5 -17z" />
    <glyph glyph-name="h.sc" horiz-adv-x="1284" 
d="M164 0v1212h139v-512h676v512h141v-1212h-141v578h-676v-578h-139z" />
    <glyph glyph-name="i.sc" horiz-adv-x="502" 
d="M180 0v1212h144v-1212h-144z" />
    <glyph glyph-name="j.sc" horiz-adv-x="879" 
d="M102 190q73 -54 141 -76t122 -22q48 0 89 12.5t70 40.5t45.5 73.5t16.5 111.5v882h139v-882q0 -172 -87 -262.5t-267 -90.5q-106 0 -188 31t-150 80z" />
    <glyph glyph-name="k.sc" horiz-adv-x="1176" 
d="M164 0v1212h139v-637l293 310l307 327h164l-438 -460l501 -752h-161l-437 647l-229 -235v-412h-139z" />
    <glyph glyph-name="l.sc" horiz-adv-x="991" 
d="M164 0v1212h139v-1093h625v-119h-764z" />
    <glyph glyph-name="m.sc" horiz-adv-x="1522" 
d="M164 0v1212h182l414 -1042h4l410 1042h186v-1212h-139v1014h-2q-13 -42 -34 -101.5t-44 -117.5q0 -4 -14 -38.5t-36 -88.5q-22 -55 -50.5 -124t-57.5 -140q-30 -72 -59 -141.5t-51 -125.5q-23 -56 -38 -93t-16 -44h-125q-1 7 -15.5 44t-36.5 94q-23 56 -51.5 125.5
t-58.5 141.5t-58.5 140.5t-50.5 123.5q-23 54 -37 88.5t-15 37.5q-11 32 -21 60t-19 54q-10 26 -19 52t-19 55h-2v-1016h-127z" />
    <glyph glyph-name="n.sc" horiz-adv-x="1296" 
d="M164 0v1212h151l533 -751l156 -221h2v972h135v-1212h-129l-582 815l-133 186h-2v-1001h-131z" />
    <glyph glyph-name="o.sc" horiz-adv-x="1300" 
d="M651 -23q-117 0 -217.5 44t-174.5 126q-74 81 -116.5 197.5t-42.5 261.5t42.5 261.5t116.5 198.5q74 81 174.5 125t217.5 44q115 0 215 -44t174 -125q73 -82 115.5 -198.5t42.5 -261.5t-42.5 -261.5t-115.5 -197.5q-74 -82 -174 -126t-215 -44zM651 96q89 0 164 35
t129 101q54 65 84.5 159.5t30.5 214.5t-30.5 214.5t-84.5 160.5t-129 100.5t-164 34.5t-164 -34.5t-129 -100.5q-55 -66 -85.5 -160.5t-30.5 -214.5t30.5 -214.5t85.5 -159.5q54 -66 129 -101t164 -35z" />
    <glyph glyph-name="p.sc" horiz-adv-x="1126" 
d="M164 0v1212h432q104 0 188.5 -17.5t144.5 -57.5q59 -40 91.5 -104.5t32.5 -158.5q0 -101 -35 -168t-97 -107t-147.5 -56.5t-185.5 -16.5h-285v-526h-139zM303 639h291q78 0 137.5 11t100.5 38t62 71.5t21 112.5q0 64 -21 107t-61 69q-41 26 -101.5 37t-139.5 11h-289
v-457z" />
    <glyph glyph-name="q.sc" horiz-adv-x="1300" 
d="M1085 -309h-118q-101 0 -175 22.5t-122 61.5q-49 40 -72.5 94t-24.5 117q-103 13 -189.5 62t-149.5 130q-63 80 -98.5 188.5t-35.5 239.5q0 145 42.5 261.5t116.5 198.5q74 81 174.5 125t217.5 44q115 0 215 -44t174 -125q73 -82 115.5 -198.5t42.5 -261.5
q0 -134 -36.5 -244t-100.5 -191q-65 -81 -153.5 -129t-192.5 -58q4 -53 25 -87.5t57 -55.5t86.5 -29.5t113.5 -8.5h88v-112zM651 94q88 0 162.5 35t128.5 101t84.5 161t30.5 215q0 121 -30.5 216t-84.5 161t-128.5 100.5t-162.5 34.5q-89 0 -164 -34.5t-129 -100.5
q-55 -66 -85.5 -161t-30.5 -216q0 -120 30.5 -215t85.5 -161q54 -66 129 -101t164 -35z" />
    <glyph glyph-name="r.sc" horiz-adv-x="1176" 
d="M164 0v1212h436q218 0 334.5 -81t116.5 -250q0 -76 -21 -133t-59 -96q-39 -40 -94 -64t-123 -35l317 -553h-156l-309 539h-303v-539h-139zM303 647h291q76 0 135.5 10.5t100.5 37.5q40 26 61.5 69.5t21.5 109.5q0 63 -21 105.5t-62 68.5t-100.5 37t-137.5 11h-289v-449z
" />
    <glyph glyph-name="s.sc" horiz-adv-x="1141" 
d="M582 -25q-178 0 -301.5 83t-176.5 233l117 53q20 -62 55 -109.5t82 -79.5t105 -48.5t123 -16.5q71 0 128 14.5t97 41.5q39 27 60.5 66.5t21.5 90.5q0 64 -24 104.5t-66 67.5t-100 45.5t-125 38.5q-54 14 -107 28t-101 33q-49 18 -90.5 43.5t-71.5 61.5q-31 35 -48 83.5
t-17 113.5q0 74 30.5 132.5t84.5 98.5t129 61t164 21q91 0 163 -20.5t127 -56.5q54 -36 92 -86t62 -109l-110 -58q-47 113 -131.5 163t-200.5 50q-128 0 -199 -48.5t-71 -141.5q0 -65 27 -105.5t74 -66.5q46 -27 108 -45t131 -37q49 -13 98.5 -26.5t95.5 -31.5
q45 -19 84 -44.5t69 -61.5q29 -36 45.5 -85t16.5 -114q0 -84 -34.5 -147t-94.5 -105t-142.5 -63t-178.5 -21z" />
    <glyph glyph-name="t.sc" horiz-adv-x="1083" 
d="M471 0v1094h-410v118h961v-118h-410v-1094h-141z" />
    <glyph glyph-name="u.sc" horiz-adv-x="1247" 
d="M625 -23q-119 0 -207.5 34t-147.5 94q-59 59 -88.5 139.5t-29.5 173.5v794h141v-780q0 -73 19 -134.5t60 -106.5q40 -45 103 -70t152 -25q86 0 148 24t103 68q40 44 59 105.5t19 136.5v782h142v-790q0 -94 -29 -175t-88 -141t-147.5 -94.5t-208.5 -34.5z" />
    <glyph glyph-name="v.sc" horiz-adv-x="1157" 
d="M514 -4l-453 1216h146l303 -839l70 -195h4l69 195l308 839h135l-453 -1216h-129z" />
    <glyph glyph-name="w.sc" horiz-adv-x="1616" 
d="M412 0l-344 1212h143l195 -710q21 -82 40.5 -158t34.5 -141h4q13 63 31.5 139.5t38.5 157.5l186 712h144l186 -718q23 -81 41 -150.5t31 -140.5h4q8 36 17 70t18 69q9 34 19 69.5t20 75.5l194 725h133l-338 -1212h-133l-262 1024h-4l-270 -1024h-129z" />
    <glyph glyph-name="x.sc" horiz-adv-x="1147" 
d="M51 0l441 651l-386 561h158l320 -467l313 467h150l-388 -573l439 -639h-156l-373 543l-366 -543h-152z" />
    <glyph glyph-name="y.sc" horiz-adv-x="1094" 
d="M473 530l-430 682h152l354 -565l352 565h148l-431 -682v-530h-145v530z" />
    <glyph glyph-name="z.sc" horiz-adv-x="1098" 
d="M74 0v98l760 1000h-709v114h881v-100l-756 -997h756v-115h-932z" />
    <glyph glyph-name="agrave.sc" horiz-adv-x="1182" 
d="M518 1217h146l456 -1217h-147l-131 358h-510l-135 -358h-136zM799 471l-137 379l-74 205h-4l-74 -199l-139 -385h428zM269 1635h186l195 -319h-92z" />
    <glyph glyph-name="aacute.sc" horiz-adv-x="1182" 
d="M729 1635h186l-289 -319h-92zM518 1217h146l456 -1217h-147l-131 358h-510l-135 -358h-136zM799 471l-137 379l-74 205h-4l-74 -199l-139 -385h428z" />
    <glyph glyph-name="acircumflex.sc" horiz-adv-x="1182" 
d="M534 1635h106l265 -325h-90l-230 201l-229 -201h-86zM518 1217h146l456 -1217h-147l-131 358h-510l-135 -358h-136zM799 471l-137 379l-74 205h-4l-74 -199l-139 -385h428z" />
    <glyph glyph-name="atilde.sc" horiz-adv-x="1182" 
d="M518 1217h146l456 -1217h-147l-131 358h-510l-135 -358h-136zM799 471l-137 379l-74 205h-4l-74 -199l-139 -385h428zM739 1310q-43 0 -84 18t-79 40q-38 21 -72.5 39t-65.5 18q-47 0 -65.5 -25.5t-18.5 -85.5h-90q0 118 43.5 171.5t128.5 53.5q43 0 83.5 -18t79.5 -39
q38 -21 73 -39t67 -18q45 0 64.5 25t19.5 85h90q0 -115 -44.5 -170t-129.5 -55z" />
    <glyph glyph-name="adieresis.sc" horiz-adv-x="1182" 
d="M689 1484h158v-168h-158v168zM329 1484h158v-168h-158v168zM518 1217h146l456 -1217h-147l-131 358h-510l-135 -358h-136zM799 471l-137 379l-74 205h-4l-74 -199l-139 -385h428z" />
    <glyph glyph-name="aring.sc" horiz-adv-x="1182" 
d="M587 1148q-41 0 -75 14t-59 39t-38.5 59t-13.5 74t13.5 74t38.5 59t59 39t75 14t75 -14t59 -39t38.5 -59t13.5 -74t-13.5 -74t-38.5 -59t-59 -39t-75 -14zM587 1219q48 0 78.5 32t30.5 83q0 50 -30.5 82.5t-78.5 32.5t-78.5 -32.5t-30.5 -82.5q0 -51 30.5 -83t78.5 -32z
M518 1217h146l456 -1217h-147l-131 358h-510l-135 -358h-136zM799 471l-137 379l-74 205h-4l-74 -199l-139 -385h428z" />
    <glyph glyph-name="amacron.sc" horiz-adv-x="1182" 
d="M518 1217h146l456 -1217h-147l-131 358h-510l-135 -358h-136zM799 471l-137 379l-74 205h-4l-74 -199l-139 -385h428zM329 1437h516v-121h-516v121z" />
    <glyph glyph-name="abreve.sc" horiz-adv-x="1182" 
d="M518 1217h146l456 -1217h-147l-131 358h-510l-135 -358h-136zM799 471l-137 379l-74 205h-4l-74 -199l-139 -385h428zM587 1308q-68 0 -123 23.5t-94 67.5q-40 43 -63 105t-27 140h90q13 -120 69.5 -172t147.5 -52t147 52t70 172h90q-4 -78 -27 -140t-63 -105
q-40 -44 -95 -67.5t-122 -23.5z" />
    <glyph glyph-name="aogonek.sc" horiz-adv-x="1182" 
d="M518 1217h146l456 -1217h-147l-131 358h-510l-135 -358h-136zM799 471l-137 379l-74 205h-4l-74 -199l-139 -385h428zM987 -383q-90 0 -140.5 41.5t-50.5 116.5q0 31 14.5 63.5t39.5 62.5q24 31 57 59t70 52h96q-74 -51 -116 -105.5t-42 -111.5q0 -43 25 -69.5t82 -26.5
q49 0 96 13t98 36l31 -53q-62 -35 -127 -56.5t-133 -21.5z" />
    <glyph glyph-name="ae.sc" horiz-adv-x="1763" 
d="M190 0h-147l748 1212h854v-118h-639v-398h477v-114h-477v-463h675v-119h-813v381h-442zM492 494h376v614h-2z" />
    <glyph glyph-name="ccedilla.sc" horiz-adv-x="1223" 
d="M641 -23q-122 0 -221.5 44t-170.5 127q-71 82 -110 199t-39 263q0 140 39.5 255t111.5 198q71 82 170.5 127t219.5 45q100 0 177.5 -26.5t135.5 -75.5t97 -117t61 -152l-131 -35q-21 70 -50 124t-70 91q-41 36 -95.5 55t-126.5 19q-92 0 -165 -36t-125 -102t-79.5 -159
t-27.5 -207q0 -122 28 -218.5t80 -163.5t126.5 -102.5t166.5 -35.5q140 0 228 77.5t130 225.5l129 -30q-24 -89 -66 -161t-103 -123t-141 -78.5t-179 -27.5zM610 -399q-69 0 -134.5 20t-119.5 55l37 60q46 -31 97 -46.5t104 -15.5q81 0 117 25t36 72q0 36 -21.5 54.5
t-64.5 18.5q-34 0 -59.5 -12t-46.5 -29l-60 27l54 170h86l-33 -111q22 14 48.5 22.5t63.5 8.5q28 0 54.5 -9t46.5 -26q19 -17 31 -43.5t12 -60.5q0 -48 -20 -82t-53 -56q-34 -21 -79 -31.5t-96 -10.5z" />
    <glyph glyph-name="cacute.sc" horiz-adv-x="1223" 
d="M698 1635h186l-289 -319h-92zM641 -23q-122 0 -221.5 44t-170.5 127q-71 82 -110 199t-39 263q0 140 39.5 255t111.5 198q71 82 170.5 127t219.5 45q100 0 177.5 -26.5t135.5 -75.5t97 -117t61 -152l-131 -35q-21 70 -50 124t-70 91q-41 36 -95.5 55t-126.5 19
q-92 0 -165 -36t-125 -102t-79.5 -159t-27.5 -207q0 -122 28 -218.5t80 -163.5t126.5 -102.5t166.5 -35.5q140 0 228 77.5t130 225.5l129 -30q-24 -89 -66 -161t-103 -123t-141 -78.5t-179 -27.5z" />
    <glyph glyph-name="ccircumflex.sc" horiz-adv-x="1223" 
d="M585 1635h106l265 -325h-90l-230 201l-229 -201h-86zM641 -23q-122 0 -221.5 44t-170.5 127q-71 82 -110 199t-39 263q0 140 39.5 255t111.5 198q71 82 170.5 127t219.5 45q100 0 177.5 -26.5t135.5 -75.5t97 -117t61 -152l-131 -35q-21 70 -50 124t-70 91
q-41 36 -95.5 55t-126.5 19q-92 0 -165 -36t-125 -102t-79.5 -159t-27.5 -207q0 -122 28 -218.5t80 -163.5t126.5 -102.5t166.5 -35.5q140 0 228 77.5t130 225.5l129 -30q-24 -89 -66 -161t-103 -123t-141 -78.5t-179 -27.5z" />
    <glyph glyph-name="cdotaccent.sc" horiz-adv-x="1223" 
d="M641 -23q-122 0 -221.5 44t-170.5 127q-71 82 -110 199t-39 263q0 140 39.5 255t111.5 198q71 82 170.5 127t219.5 45q100 0 177.5 -26.5t135.5 -75.5t97 -117t61 -152l-131 -35q-21 70 -50 124t-70 91q-41 36 -95.5 55t-126.5 19q-92 0 -165 -36t-125 -102t-79.5 -159
t-27.5 -207q0 -122 28 -218.5t80 -163.5t126.5 -102.5t166.5 -35.5q140 0 228 77.5t130 225.5l129 -30q-24 -89 -66 -161t-103 -123t-141 -78.5t-179 -27.5zM548 1486h172v-164h-172v164z" />
    <glyph glyph-name="ccaron.sc" horiz-adv-x="1223" 
d="M289 1644h90l229 -201l232 201h86l-265 -326h-108zM641 -23q-122 0 -221.5 44t-170.5 127q-71 82 -110 199t-39 263q0 140 39.5 255t111.5 198q71 82 170.5 127t219.5 45q100 0 177.5 -26.5t135.5 -75.5t97 -117t61 -152l-131 -35q-21 70 -50 124t-70 91q-41 36 -95.5 55
t-126.5 19q-92 0 -165 -36t-125 -102t-79.5 -159t-27.5 -207q0 -122 28 -218.5t80 -163.5t126.5 -102.5t166.5 -35.5q140 0 228 77.5t130 225.5l129 -30q-24 -89 -66 -161t-103 -123t-141 -78.5t-179 -27.5z" />
    <glyph glyph-name="eth.sc" horiz-adv-x="1243" 
d="M164 586h-141v102h141v524h336q155 0 274.5 -35t201.5 -108q81 -74 123 -188.5t42 -272.5q0 -159 -43 -274t-125 -189q-83 -74 -202 -109.5t-271 -35.5h-336v586zM303 117h213q118 0 208.5 27t151.5 86q61 58 92 151t31 225q0 130 -31.5 223t-92.5 152
q-62 58 -152.5 85.5t-208.5 27.5h-211v-406h275v-104h-275v-467z" />
    <glyph glyph-name="dcaron.sc" horiz-adv-x="1243" 
d="M164 1212h336q155 0 274.5 -35t201.5 -108q81 -74 123 -188.5t42 -272.5q0 -159 -43 -274t-125 -189q-83 -74 -202 -109.5t-271 -35.5h-336v1212zM303 117h213q118 0 208.5 27t151.5 86q61 58 92 151t31 225q0 130 -31.5 223t-92.5 152q-62 58 -152.5 85.5t-208.5 27.5
h-211v-977zM301 1644h90l229 -201l232 201h86l-265 -326h-108z" />
    <glyph glyph-name="dcroat.sc" horiz-adv-x="1243" 
d="M164 586h-141v102h141v524h336q155 0 274.5 -35t201.5 -108q81 -74 123 -188.5t42 -272.5q0 -159 -43 -274t-125 -189q-83 -74 -202 -109.5t-271 -35.5h-336v586zM303 117h213q118 0 208.5 27t151.5 86q61 58 92 151t31 225q0 130 -31.5 223t-92.5 152
q-62 58 -152.5 85.5t-208.5 27.5h-211v-406h275v-104h-275v-467z" />
    <glyph glyph-name="egrave.sc" horiz-adv-x="1061" 
d="M277 1635h186l195 -319h-92zM164 0v1212h780v-118h-641v-398h477v-116h-477v-461h676v-119h-815z" />
    <glyph glyph-name="eacute.sc" horiz-adv-x="1061" 
d="M633 1635h186l-289 -319h-92zM164 0v1212h780v-118h-641v-398h477v-116h-477v-461h676v-119h-815z" />
    <glyph glyph-name="ecircumflex.sc" horiz-adv-x="1061" 
d="M495 1635h106l265 -325h-90l-230 201l-229 -201h-86zM164 0v1212h780v-118h-641v-398h477v-116h-477v-461h676v-119h-815z" />
    <glyph glyph-name="edieresis.sc" horiz-adv-x="1061" 
d="M648 1484h158v-168h-158v168zM288 1484h158v-168h-158v168zM164 0v1212h780v-118h-641v-398h477v-116h-477v-461h676v-119h-815z" />
    <glyph glyph-name="emacron.sc" horiz-adv-x="1061" 
d="M272 1437h516v-121h-516v121zM164 0v1212h780v-118h-641v-398h477v-116h-477v-461h676v-119h-815z" />
    <glyph glyph-name="ebreve.sc" horiz-adv-x="1061" 
d="M164 0v1212h780v-118h-641v-398h477v-116h-477v-461h676v-119h-815zM546 1308q-68 0 -123 23.5t-94 67.5q-40 43 -63 105t-27 140h90q13 -120 69.5 -172t147.5 -52t147 52t70 172h90q-4 -78 -27 -140t-63 -105q-40 -44 -95 -67.5t-122 -23.5z" />
    <glyph glyph-name="edotaccent.sc" horiz-adv-x="1061" 
d="M462 1486h172v-164h-172v164zM164 0v1212h780v-118h-641v-398h477v-116h-477v-461h676v-119h-815z" />
    <glyph glyph-name="eogonek.sc" horiz-adv-x="1061" 
d="M802 -383q-90 0 -140.5 41.5t-50.5 116.5q0 31 14.5 63.5t39.5 62.5q24 31 57 59t70 52h96q-74 -51 -116 -105.5t-42 -111.5q0 -43 25 -69.5t82 -26.5q49 0 96 13t98 36l31 -53q-62 -35 -127 -56.5t-133 -21.5zM164 0v1212h780v-118h-641v-398h477v-116h-477v-461h676
v-119h-815z" />
    <glyph glyph-name="ecaron.sc" horiz-adv-x="1061" 
d="M229 1644h90l229 -201l232 201h86l-265 -326h-108zM164 0v1212h780v-118h-641v-398h477v-116h-477v-461h676v-119h-815z" />
    <glyph glyph-name="gcircumflex.sc" horiz-adv-x="1268" 
d="M591 1635h106l265 -325h-90l-230 201l-229 -201h-86zM629 -23q-126 0 -224.5 48.5t-165.5 133.5q-68 84 -103.5 200t-35.5 251q0 143 40.5 258.5t112.5 197.5q72 81 172 125t220 44q183 0 301.5 -92t169.5 -281l-129 -33q-44 148 -125.5 218.5t-216.5 70.5
q-84 0 -157.5 -32t-127.5 -95q-55 -63 -86.5 -157t-31.5 -218q0 -123 28.5 -220.5t81.5 -164.5q52 -68 126.5 -103.5t166.5 -35.5q79 0 144 25.5t111 74.5q46 48 71.5 117t25.5 156h-305v113h436v-578h-118v184h-2q-23 -41 -56 -78t-79 -66t-106.5 -46t-137.5 -17z" />
    <glyph glyph-name="gbreve.sc" horiz-adv-x="1268" 
d="M629 -23q-126 0 -224.5 48.5t-165.5 133.5q-68 84 -103.5 200t-35.5 251q0 143 40.5 258.5t112.5 197.5q72 81 172 125t220 44q183 0 301.5 -92t169.5 -281l-129 -33q-44 148 -125.5 218.5t-216.5 70.5q-84 0 -157.5 -32t-127.5 -95q-55 -63 -86.5 -157t-31.5 -218
q0 -123 28.5 -220.5t81.5 -164.5q52 -68 126.5 -103.5t166.5 -35.5q79 0 144 25.5t111 74.5q46 48 71.5 117t25.5 156h-305v113h436v-578h-118v184h-2q-23 -41 -56 -78t-79 -66t-106.5 -46t-137.5 -17zM632 1308q-68 0 -123 23.5t-94 67.5q-40 43 -63 105t-27 140h90
q13 -120 69.5 -172t147.5 -52t147 52t70 172h90q-4 -78 -27 -140t-63 -105q-40 -44 -95 -67.5t-122 -23.5z" />
    <glyph glyph-name="gdotaccent.sc" horiz-adv-x="1268" 
d="M629 -23q-126 0 -224.5 48.5t-165.5 133.5q-68 84 -103.5 200t-35.5 251q0 143 40.5 258.5t112.5 197.5q72 81 172 125t220 44q183 0 301.5 -92t169.5 -281l-129 -33q-44 148 -125.5 218.5t-216.5 70.5q-84 0 -157.5 -32t-127.5 -95q-55 -63 -86.5 -157t-31.5 -218
q0 -123 28.5 -220.5t81.5 -164.5q52 -68 126.5 -103.5t166.5 -35.5q79 0 144 25.5t111 74.5q46 48 71.5 117t25.5 156h-305v113h436v-578h-118v184h-2q-23 -41 -56 -78t-79 -66t-106.5 -46t-137.5 -17zM557 1486h172v-164h-172v164z" />
    <glyph glyph-name="uni0123.sc" horiz-adv-x="1268" 
d="M622 -283h-66v183h170v-164l-90 -221h-61zM629 -23q-126 0 -224.5 48.5t-165.5 133.5q-68 84 -103.5 200t-35.5 251q0 143 40.5 258.5t112.5 197.5q72 81 172 125t220 44q183 0 301.5 -92t169.5 -281l-129 -33q-44 148 -125.5 218.5t-216.5 70.5q-84 0 -157.5 -32
t-127.5 -95q-55 -63 -86.5 -157t-31.5 -218q0 -123 28.5 -220.5t81.5 -164.5q52 -68 126.5 -103.5t166.5 -35.5q79 0 144 25.5t111 74.5q46 48 71.5 117t25.5 156h-305v113h436v-578h-118v184h-2q-23 -41 -56 -78t-79 -66t-106.5 -46t-137.5 -17z" />
    <glyph glyph-name="hcircumflex.sc" horiz-adv-x="1284" 
d="M587 1635h106l265 -325h-90l-230 201l-229 -201h-86zM164 0v1212h139v-512h676v512h141v-1212h-141v578h-676v-578h-139z" />
    <glyph glyph-name="hbar.sc" horiz-adv-x="1284" 
d="M23 983h141v229h139v-229h676v229h141v-229h142v-106h-142v-877h-141v578h-676v-578h-139v877h-141v106zM979 700v177h-676v-177h676z" />
    <glyph glyph-name="igrave.sc" horiz-adv-x="502" 
d="M180 0v1212h144v-1212h-144zM-69 1635h186l195 -319h-92z" />
    <glyph glyph-name="iacute.sc" horiz-adv-x="502" 
d="M388 1635h186l-289 -319h-92zM180 0v1212h144v-1212h-144z" />
    <glyph glyph-name="icircumflex.sc" horiz-adv-x="502" 
d="M199 1635h106l265 -325h-90l-230 201l-229 -201h-86zM180 0v1212h144v-1212h-144z" />
    <glyph glyph-name="idieresis.sc" horiz-adv-x="502" 
d="M352 1484h158v-168h-158v168zM-8 1484h158v-168h-158v168zM180 0v1212h144v-1212h-144z" />
    <glyph glyph-name="itilde.sc" horiz-adv-x="502" 
d="M180 0v1212h144v-1212h-144zM404 1310q-43 0 -84 18t-79 40q-38 21 -72.5 39t-65.5 18q-47 0 -65.5 -25.5t-18.5 -85.5h-90q0 118 43.5 171.5t128.5 53.5q43 0 83.5 -18t79.5 -39q38 -21 73 -39t67 -18q45 0 64.5 25t19.5 85h90q0 -115 -44.5 -170t-129.5 -55z" />
    <glyph glyph-name="imacron.sc" horiz-adv-x="502" 
d="M180 0v1212h144v-1212h-144zM-6 1437h516v-121h-516v121z" />
    <glyph glyph-name="ibreve.sc" horiz-adv-x="502" 
d="M180 0v1212h144v-1212h-144zM252 1308q-68 0 -123 23.5t-94 67.5q-40 43 -63 105t-27 140h90q13 -120 69.5 -172t147.5 -52t147 52t70 172h90q-4 -78 -27 -140t-63 -105q-40 -44 -95 -67.5t-122 -23.5z" />
    <glyph glyph-name="iogonek.sc" horiz-adv-x="502" 
d="M180 0v1212h144v-1212h-144zM207 -383q-90 0 -140.5 41.5t-50.5 116.5q0 31 14.5 63.5t39.5 62.5q24 31 57 59t70 52h96q-74 -51 -116 -105.5t-42 -111.5q0 -43 25 -69.5t82 -26.5q49 0 96 13t98 36l31 -53q-62 -35 -127 -56.5t-133 -21.5z" />
    <glyph glyph-name="i.locl.sc" horiz-adv-x="502" 
d="M180 0v1212h144v-1212h-144zM166 1486h172v-164h-172v164z" />
    <glyph glyph-name="ij.sc" horiz-adv-x="1317" 
d="M180 0v1212h144v-1212h-144zM540 190q73 -54 141 -76t122 -22q48 0 89 12.5t70 40.5t45.5 73.5t16.5 111.5v882h139v-882q0 -172 -87 -262.5t-267 -90.5q-106 0 -188 31t-150 80z" />
    <glyph glyph-name="jcircumflex.sc" horiz-adv-x="879" 
d="M600 1635h106l265 -325h-90l-230 201l-229 -201h-86zM102 190q73 -54 141 -76t122 -22q48 0 89 12.5t70 40.5t45.5 73.5t16.5 111.5v882h139v-882q0 -172 -87 -262.5t-267 -90.5q-106 0 -188 31t-150 80z" />
    <glyph glyph-name="uni0137.sc" horiz-adv-x="1176" 
d="M569 -283h-66v183h170v-164l-90 -221h-61zM164 0v1212h139v-637l293 310l307 327h164l-438 -460l501 -752h-161l-437 647l-229 -235v-412h-139z" />
    <glyph glyph-name="lacute.sc" horiz-adv-x="991" 
d="M164 0v1212h139v-1093h625v-119h-764zM386 1635h186l-289 -319h-92z" />
    <glyph glyph-name="uni013C.sc" horiz-adv-x="991" 
d="M164 0v1212h139v-1093h625v-119h-764zM475 -283h-66v183h170v-164l-90 -221h-61z" />
    <glyph glyph-name="lcaron.sc" horiz-adv-x="991" 
d="M602 1032h-65v180h168v-161l-89 -220h-61zM164 0v1212h139v-1093h625v-119h-764z" />
    <glyph glyph-name="ldot.sc" horiz-adv-x="1038" 
d="M670 737h168v-166h-168v166zM164 0v1212h139v-1093h625v-119h-764z" />
    <glyph glyph-name="lslash.sc" horiz-adv-x="991" 
d="M928 0h-764v561l-141 -37v105l141 35v548h139v-512l275 70v-104l-275 -70v-479h625v-117z" />
    <glyph glyph-name="ntilde.sc" horiz-adv-x="1296" 
d="M164 0v1212h151l533 -751l156 -221h2v972h135v-1212h-129l-582 815l-133 186h-2v-1001h-131zM797 1310q-43 0 -84 18t-79 40q-38 21 -72.5 39t-65.5 18q-47 0 -65.5 -25.5t-18.5 -85.5h-90q0 118 43.5 171.5t128.5 53.5q43 0 83.5 -18t79.5 -39q38 -21 73 -39t67 -18
q45 0 64.5 25t19.5 85h90q0 -115 -44.5 -170t-129.5 -55z" />
    <glyph glyph-name="nacute.sc" horiz-adv-x="1296" 
d="M733 1635h186l-289 -319h-92zM164 0v1212h151l533 -751l156 -221h2v972h135v-1212h-129l-582 815l-133 186h-2v-1001h-131z" />
    <glyph glyph-name="uni0146.sc" horiz-adv-x="1296" 
d="M628 -283h-66v183h170v-164l-90 -221h-61zM164 0v1212h151l533 -751l156 -221h2v972h135v-1212h-129l-582 815l-133 186h-2v-1001h-131z" />
    <glyph glyph-name="ncaron.sc" horiz-adv-x="1296" 
d="M327 1644h90l229 -201l232 201h86l-265 -326h-108zM164 0v1212h151l533 -751l156 -221h2v972h135v-1212h-129l-582 815l-133 186h-2v-1001h-131z" />
    <glyph glyph-name="eng.sc" horiz-adv-x="1296" 
d="M164 1212h151l533 -751l156 -221h2v972h135v-1271q0 -172 -86 -262.5t-262 -90.5q-107 0 -189.5 30.5t-148.5 80.5l67 100q72 -53 141 -74.5t121 -21.5q48 0 88.5 12t70.5 40q29 28 45.5 72.5t17.5 109.5v69l-576 809l-133 186h-2v-1001h-131v1212z" />
    <glyph glyph-name="ograve.sc" horiz-adv-x="1300" 
d="M651 -23q-117 0 -217.5 44t-174.5 126q-74 81 -116.5 197.5t-42.5 261.5t42.5 261.5t116.5 198.5q74 81 174.5 125t217.5 44q115 0 215 -44t174 -125q73 -82 115.5 -198.5t42.5 -261.5t-42.5 -261.5t-115.5 -197.5q-74 -82 -174 -126t-215 -44zM651 96q89 0 164 35
t129 101q54 65 84.5 159.5t30.5 214.5t-30.5 214.5t-84.5 160.5t-129 100.5t-164 34.5t-164 -34.5t-129 -100.5q-55 -66 -85.5 -160.5t-30.5 -214.5t30.5 -214.5t85.5 -159.5q54 -66 129 -101t164 -35zM374 1635h186l195 -319h-92z" />
    <glyph glyph-name="oacute.sc" horiz-adv-x="1300" 
d="M651 -23q-117 0 -217.5 44t-174.5 126q-74 81 -116.5 197.5t-42.5 261.5t42.5 261.5t116.5 198.5q74 81 174.5 125t217.5 44q115 0 215 -44t174 -125q73 -82 115.5 -198.5t42.5 -261.5t-42.5 -261.5t-115.5 -197.5q-74 -82 -174 -126t-215 -44zM651 96q89 0 164 35
t129 101q54 65 84.5 159.5t30.5 214.5t-30.5 214.5t-84.5 160.5t-129 100.5t-164 34.5t-164 -34.5t-129 -100.5q-55 -66 -85.5 -160.5t-30.5 -214.5t30.5 -214.5t85.5 -159.5q54 -66 129 -101t164 -35zM735 1635h186l-289 -319h-92z" />
    <glyph glyph-name="ocircumflex.sc" horiz-adv-x="1300" 
d="M595 1635h106l265 -325h-90l-230 201l-229 -201h-86zM651 -23q-117 0 -217.5 44t-174.5 126q-74 81 -116.5 197.5t-42.5 261.5t42.5 261.5t116.5 198.5q74 81 174.5 125t217.5 44q115 0 215 -44t174 -125q73 -82 115.5 -198.5t42.5 -261.5t-42.5 -261.5t-115.5 -197.5
q-74 -82 -174 -126t-215 -44zM651 96q89 0 164 35t129 101q54 65 84.5 159.5t30.5 214.5t-30.5 214.5t-84.5 160.5t-129 100.5t-164 34.5t-164 -34.5t-129 -100.5q-55 -66 -85.5 -160.5t-30.5 -214.5t30.5 -214.5t85.5 -159.5q54 -66 129 -101t164 -35z" />
    <glyph glyph-name="otilde.sc" horiz-adv-x="1300" 
d="M651 -23q-117 0 -217.5 44t-174.5 126q-74 81 -116.5 197.5t-42.5 261.5t42.5 261.5t116.5 198.5q74 81 174.5 125t217.5 44q115 0 215 -44t174 -125q73 -82 115.5 -198.5t42.5 -261.5t-42.5 -261.5t-115.5 -197.5q-74 -82 -174 -126t-215 -44zM651 96q89 0 164 35
t129 101q54 65 84.5 159.5t30.5 214.5t-30.5 214.5t-84.5 160.5t-129 100.5t-164 34.5t-164 -34.5t-129 -100.5q-55 -66 -85.5 -160.5t-30.5 -214.5t30.5 -214.5t85.5 -159.5q54 -66 129 -101t164 -35zM801 1310q-43 0 -84 18t-79 40q-38 21 -72.5 39t-65.5 18
q-47 0 -65.5 -25.5t-18.5 -85.5h-90q0 118 43.5 171.5t128.5 53.5q43 0 83.5 -18t79.5 -39q38 -21 73 -39t67 -18q45 0 64.5 25t19.5 85h90q0 -115 -44.5 -170t-129.5 -55z" />
    <glyph glyph-name="odieresis.sc" horiz-adv-x="1300" 
d="M749 1484h158v-168h-158v168zM389 1484h158v-168h-158v168zM651 -23q-117 0 -217.5 44t-174.5 126q-74 81 -116.5 197.5t-42.5 261.5t42.5 261.5t116.5 198.5q74 81 174.5 125t217.5 44q115 0 215 -44t174 -125q73 -82 115.5 -198.5t42.5 -261.5t-42.5 -261.5
t-115.5 -197.5q-74 -82 -174 -126t-215 -44zM651 96q89 0 164 35t129 101q54 65 84.5 159.5t30.5 214.5t-30.5 214.5t-84.5 160.5t-129 100.5t-164 34.5t-164 -34.5t-129 -100.5q-55 -66 -85.5 -160.5t-30.5 -214.5t30.5 -214.5t85.5 -159.5q54 -66 129 -101t164 -35z" />
    <glyph glyph-name="omacron.sc" horiz-adv-x="1300" 
d="M651 -23q-117 0 -217.5 44t-174.5 126q-74 81 -116.5 197.5t-42.5 261.5t42.5 261.5t116.5 198.5q74 81 174.5 125t217.5 44q115 0 215 -44t174 -125q73 -82 115.5 -198.5t42.5 -261.5t-42.5 -261.5t-115.5 -197.5q-74 -82 -174 -126t-215 -44zM651 96q89 0 164 35
t129 101q54 65 84.5 159.5t30.5 214.5t-30.5 214.5t-84.5 160.5t-129 100.5t-164 34.5t-164 -34.5t-129 -100.5q-55 -66 -85.5 -160.5t-30.5 -214.5t30.5 -214.5t85.5 -159.5q54 -66 129 -101t164 -35zM391 1437h516v-121h-516v121z" />
    <glyph glyph-name="obreve.sc" horiz-adv-x="1300" 
d="M651 -23q-117 0 -217.5 44t-174.5 126q-74 81 -116.5 197.5t-42.5 261.5t42.5 261.5t116.5 198.5q74 81 174.5 125t217.5 44q115 0 215 -44t174 -125q73 -82 115.5 -198.5t42.5 -261.5t-42.5 -261.5t-115.5 -197.5q-74 -82 -174 -126t-215 -44zM651 96q89 0 164 35
t129 101q54 65 84.5 159.5t30.5 214.5t-30.5 214.5t-84.5 160.5t-129 100.5t-164 34.5t-164 -34.5t-129 -100.5q-55 -66 -85.5 -160.5t-30.5 -214.5t30.5 -214.5t85.5 -159.5q54 -66 129 -101t164 -35zM649 1308q-68 0 -123 23.5t-94 67.5q-40 43 -63 105t-27 140h90
q13 -120 69.5 -172t147.5 -52t147 52t70 172h90q-4 -78 -27 -140t-63 -105q-40 -44 -95 -67.5t-122 -23.5z" />
    <glyph glyph-name="ohungarumlaut.sc" horiz-adv-x="1300" 
d="M651 -23q-117 0 -217.5 44t-174.5 126q-74 81 -116.5 197.5t-42.5 261.5t42.5 261.5t116.5 198.5q74 81 174.5 125t217.5 44q115 0 215 -44t174 -125q73 -82 115.5 -198.5t42.5 -261.5t-42.5 -261.5t-115.5 -197.5q-74 -82 -174 -126t-215 -44zM651 96q89 0 164 35
t129 101q54 65 84.5 159.5t30.5 214.5t-30.5 214.5t-84.5 160.5t-129 100.5t-164 34.5t-164 -34.5t-129 -100.5q-55 -66 -85.5 -160.5t-30.5 -214.5t30.5 -214.5t85.5 -159.5q54 -66 129 -101t164 -35zM908 1635h191l-293 -319h-96zM574 1635h191l-289 -319h-96z" />
    <glyph glyph-name="oslash.sc" horiz-adv-x="1300" 
d="M152 0l106 145q-74 84 -116 200t-42 261t42.5 261.5t116.5 198.5q74 81 174.5 125t217.5 44q90 0 170 -27t146 -78l104 146l80 -59l-109 -152q75 -82 115.5 -198.5t40.5 -260.5q0 -145 -42.5 -261.5t-115.5 -197.5q-74 -82 -174 -126t-215 -44q-91 0 -171.5 27t-145.5 78
l-103 -141zM651 92q90 0 165.5 35t129.5 102q54 66 84.5 161.5t30.5 215.5q0 112 -26 200.5t-72 154.5l-560 -781q51 -43 113.5 -65.5t134.5 -22.5zM897 1032q-50 44 -112.5 66t-133.5 22q-89 0 -164.5 -35t-129.5 -101q-55 -66 -86 -161.5t-31 -216.5q0 -109 25 -199
t73 -153z" />
    <glyph glyph-name="oe.sc" horiz-adv-x="1948" 
d="M647 -23q-116 0 -216 44t-173 126q-74 81 -116 197.5t-42 261.5t42.5 261.5t116.5 198.5q73 81 173 125t215 44q144 0 251.5 -67t170.5 -191v235h762v-118h-641v-398h477v-114h-477v-463h676v-119h-797v233q-63 -123 -170.5 -189.5t-251.5 -66.5zM651 94q88 0 162.5 35
t128.5 101t84.5 161t30.5 215t-30.5 214.5t-84.5 160.5t-128.5 100.5t-162.5 34.5q-90 0 -165 -34.5t-129 -100.5t-84.5 -160.5t-30.5 -214.5t30.5 -215t84.5 -161t129 -101t165 -35z" />
    <glyph glyph-name="racute.sc" horiz-adv-x="1176" 
d="M674 1635h186l-289 -319h-92zM164 0v1212h436q218 0 334.5 -81t116.5 -250q0 -76 -21 -133t-59 -96q-39 -40 -94 -64t-123 -35l317 -553h-156l-309 539h-303v-539h-139zM303 647h291q76 0 135.5 10.5t100.5 37.5q40 26 61.5 69.5t21.5 109.5q0 63 -21 105.5t-62 68.5
t-100.5 37t-137.5 11h-289v-449z" />
    <glyph glyph-name="uni0157.sc" horiz-adv-x="1176" 
d="M569 -283h-66v183h170v-164l-90 -221h-61zM164 0v1212h436q218 0 334.5 -81t116.5 -250q0 -76 -21 -133t-59 -96q-39 -40 -94 -64t-123 -35l317 -553h-156l-309 539h-303v-539h-139zM303 647h291q76 0 135.5 10.5t100.5 37.5q40 26 61.5 69.5t21.5 109.5q0 63 -21 105.5
t-62 68.5t-100.5 37t-137.5 11h-289v-449z" />
    <glyph glyph-name="rcaron.sc" horiz-adv-x="1176" 
d="M268 1644h90l229 -201l232 201h86l-265 -326h-108zM164 0v1212h436q218 0 334.5 -81t116.5 -250q0 -76 -21 -133t-59 -96q-39 -40 -94 -64t-123 -35l317 -553h-156l-309 539h-303v-539h-139zM303 647h291q76 0 135.5 10.5t100.5 37.5q40 26 61.5 69.5t21.5 109.5
q0 63 -21 105.5t-62 68.5t-100.5 37t-137.5 11h-289v-449z" />
    <glyph glyph-name="sacute.sc" horiz-adv-x="1141" 
d="M655 1635h186l-289 -319h-92zM582 -25q-178 0 -301.5 83t-176.5 233l117 53q20 -62 55 -109.5t82 -79.5t105 -48.5t123 -16.5q71 0 128 14.5t97 41.5q39 27 60.5 66.5t21.5 90.5q0 64 -24 104.5t-66 67.5t-100 45.5t-125 38.5q-54 14 -107 28t-101 33q-49 18 -90.5 43.5
t-71.5 61.5q-31 35 -48 83.5t-17 113.5q0 74 30.5 132.5t84.5 98.5t129 61t164 21q91 0 163 -20.5t127 -56.5q54 -36 92 -86t62 -109l-110 -58q-47 113 -131.5 163t-200.5 50q-128 0 -199 -48.5t-71 -141.5q0 -65 27 -105.5t74 -66.5q46 -27 108 -45t131 -37
q49 -13 98.5 -26.5t95.5 -31.5q45 -19 84 -44.5t69 -61.5q29 -36 45.5 -85t16.5 -114q0 -84 -34.5 -147t-94.5 -105t-142.5 -63t-178.5 -21z" />
    <glyph glyph-name="scircumflex.sc" horiz-adv-x="1141" 
d="M497 1635h106l265 -325h-90l-230 201l-229 -201h-86zM582 -25q-178 0 -301.5 83t-176.5 233l117 53q20 -62 55 -109.5t82 -79.5t105 -48.5t123 -16.5q71 0 128 14.5t97 41.5q39 27 60.5 66.5t21.5 90.5q0 64 -24 104.5t-66 67.5t-100 45.5t-125 38.5q-54 14 -107 28
t-101 33q-49 18 -90.5 43.5t-71.5 61.5q-31 35 -48 83.5t-17 113.5q0 74 30.5 132.5t84.5 98.5t129 61t164 21q91 0 163 -20.5t127 -56.5q54 -36 92 -86t62 -109l-110 -58q-47 113 -131.5 163t-200.5 50q-128 0 -199 -48.5t-71 -141.5q0 -65 27 -105.5t74 -66.5
q46 -27 108 -45t131 -37q49 -13 98.5 -26.5t95.5 -31.5q45 -19 84 -44.5t69 -61.5q29 -36 45.5 -85t16.5 -114q0 -84 -34.5 -147t-94.5 -105t-142.5 -63t-178.5 -21z" />
    <glyph glyph-name="scedilla.sc" horiz-adv-x="1141" 
d="M582 -25q-178 0 -301.5 83t-176.5 233l117 53q20 -62 55 -109.5t82 -79.5t105 -48.5t123 -16.5q71 0 128 14.5t97 41.5q39 27 60.5 66.5t21.5 90.5q0 64 -24 104.5t-66 67.5t-100 45.5t-125 38.5q-54 14 -107 28t-101 33q-49 18 -90.5 43.5t-71.5 61.5q-31 35 -48 83.5
t-17 113.5q0 74 30.5 132.5t84.5 98.5t129 61t164 21q91 0 163 -20.5t127 -56.5q54 -36 92 -86t62 -109l-110 -58q-47 113 -131.5 163t-200.5 50q-128 0 -199 -48.5t-71 -141.5q0 -65 27 -105.5t74 -66.5q46 -27 108 -45t131 -37q49 -13 98.5 -26.5t95.5 -31.5
q45 -19 84 -44.5t69 -61.5q29 -36 45.5 -85t16.5 -114q0 -84 -34.5 -147t-94.5 -105t-142.5 -63t-178.5 -21zM569 -399q-69 0 -134.5 20t-119.5 55l37 60q46 -31 97 -46.5t104 -15.5q81 0 117 25t36 72q0 36 -21.5 54.5t-64.5 18.5q-34 0 -59.5 -12t-46.5 -29l-60 27l54 170
h86l-33 -111q22 14 48.5 22.5t63.5 8.5q28 0 54.5 -9t46.5 -26q19 -17 31 -43.5t12 -60.5q0 -48 -20 -82t-53 -56q-34 -21 -79 -31.5t-96 -10.5z" />
    <glyph glyph-name="scaron.sc" horiz-adv-x="1141" 
d="M250 1644h90l229 -201l232 201h86l-265 -326h-108zM582 -25q-178 0 -301.5 83t-176.5 233l117 53q20 -62 55 -109.5t82 -79.5t105 -48.5t123 -16.5q71 0 128 14.5t97 41.5q39 27 60.5 66.5t21.5 90.5q0 64 -24 104.5t-66 67.5t-100 45.5t-125 38.5q-54 14 -107 28
t-101 33q-49 18 -90.5 43.5t-71.5 61.5q-31 35 -48 83.5t-17 113.5q0 74 30.5 132.5t84.5 98.5t129 61t164 21q91 0 163 -20.5t127 -56.5q54 -36 92 -86t62 -109l-110 -58q-47 113 -131.5 163t-200.5 50q-128 0 -199 -48.5t-71 -141.5q0 -65 27 -105.5t74 -66.5
q46 -27 108 -45t131 -37q49 -13 98.5 -26.5t95.5 -31.5q45 -19 84 -44.5t69 -61.5q29 -36 45.5 -85t16.5 -114q0 -84 -34.5 -147t-94.5 -105t-142.5 -63t-178.5 -21z" />
    <glyph glyph-name="uni0219.sc" horiz-adv-x="1141" 
d="M550 -283h-66v183h170v-164l-90 -221h-61zM582 -25q-178 0 -301.5 83t-176.5 233l117 53q20 -62 55 -109.5t82 -79.5t105 -48.5t123 -16.5q71 0 128 14.5t97 41.5q39 27 60.5 66.5t21.5 90.5q0 64 -24 104.5t-66 67.5t-100 45.5t-125 38.5q-54 14 -107 28t-101 33
q-49 18 -90.5 43.5t-71.5 61.5q-31 35 -48 83.5t-17 113.5q0 74 30.5 132.5t84.5 98.5t129 61t164 21q91 0 163 -20.5t127 -56.5q54 -36 92 -86t62 -109l-110 -58q-47 113 -131.5 163t-200.5 50q-128 0 -199 -48.5t-71 -141.5q0 -65 27 -105.5t74 -66.5q46 -27 108 -45
t131 -37q49 -13 98.5 -26.5t95.5 -31.5q45 -19 84 -44.5t69 -61.5q29 -36 45.5 -85t16.5 -114q0 -84 -34.5 -147t-94.5 -105t-142.5 -63t-178.5 -21z" />
    <glyph glyph-name="tcaron.sc" horiz-adv-x="1083" 
d="M471 0v1094h-410v118h961v-118h-410v-1094h-141zM219 1644h90l229 -201l232 201h86l-265 -326h-108z" />
    <glyph glyph-name="uni021B.sc" horiz-adv-x="1083" 
d="M471 0v1094h-410v118h961v-118h-410v-1094h-141zM522 -283h-66v183h170v-164l-90 -221h-61z" />
    <glyph glyph-name="tbar.sc" horiz-adv-x="1083" 
d="M61 637h410v457h-410v118h961v-118h-410v-457h410v-107h-410v-530h-141v530h-410v107z" />
    <glyph glyph-name="thorn.sc" horiz-adv-x="1151" 
d="M166 0v1212h141v-225h299q105 0 190.5 -19.5t146.5 -60.5q60 -41 93 -104.5t33 -151.5q0 -96 -36 -162.5t-99 -108.5q-64 -42 -151 -60.5t-189 -18.5h-287v-301h-141zM307 412h295q79 0 140 13t102 41t62.5 72.5t21.5 106.5q0 119 -83 173t-245 54h-293v-460z" />
    <glyph glyph-name="ugrave.sc" horiz-adv-x="1247" 
d="M348 1635h186l195 -319h-92zM625 -23q-119 0 -207.5 34t-147.5 94q-59 59 -88.5 139.5t-29.5 173.5v794h141v-780q0 -73 19 -134.5t60 -106.5q40 -45 103 -70t152 -25q86 0 148 24t103 68q40 44 59 105.5t19 136.5v782h142v-790q0 -94 -29 -175t-88 -141t-147.5 -94.5
t-208.5 -34.5z" />
    <glyph glyph-name="uacute.sc" horiz-adv-x="1247" 
d="M657 1635h186l-289 -319h-92zM625 -23q-119 0 -207.5 34t-147.5 94q-59 59 -88.5 139.5t-29.5 173.5v794h141v-780q0 -73 19 -134.5t60 -106.5q40 -45 103 -70t152 -25q86 0 148 24t103 68q40 44 59 105.5t19 136.5v782h142v-790q0 -94 -29 -175t-88 -141t-147.5 -94.5
t-208.5 -34.5z" />
    <glyph glyph-name="ucircumflex.sc" horiz-adv-x="1247" 
d="M569 1635h106l265 -325h-90l-230 201l-229 -201h-86zM625 -23q-119 0 -207.5 34t-147.5 94q-59 59 -88.5 139.5t-29.5 173.5v794h141v-780q0 -73 19 -134.5t60 -106.5q40 -45 103 -70t152 -25q86 0 148 24t103 68q40 44 59 105.5t19 136.5v782h142v-790q0 -94 -29 -175
t-88 -141t-147.5 -94.5t-208.5 -34.5z" />
    <glyph glyph-name="udieresis.sc" horiz-adv-x="1247" 
d="M722 1484h158v-168h-158v168zM362 1484h158v-168h-158v168zM625 -23q-119 0 -207.5 34t-147.5 94q-59 59 -88.5 139.5t-29.5 173.5v794h141v-780q0 -73 19 -134.5t60 -106.5q40 -45 103 -70t152 -25q86 0 148 24t103 68q40 44 59 105.5t19 136.5v782h142v-790
q0 -94 -29 -175t-88 -141t-147.5 -94.5t-208.5 -34.5z" />
    <glyph glyph-name="utilde.sc" horiz-adv-x="1247" 
d="M625 -23q-119 0 -207.5 34t-147.5 94q-59 59 -88.5 139.5t-29.5 173.5v794h141v-780q0 -73 19 -134.5t60 -106.5q40 -45 103 -70t152 -25q86 0 148 24t103 68q40 44 59 105.5t19 136.5v782h142v-790q0 -94 -29 -175t-88 -141t-147.5 -94.5t-208.5 -34.5zM774 1310
q-43 0 -84 18t-79 40q-38 21 -72.5 39t-65.5 18q-47 0 -65.5 -25.5t-18.5 -85.5h-90q0 118 43.5 171.5t128.5 53.5q43 0 83.5 -18t79.5 -39q38 -21 73 -39t67 -18q45 0 64.5 25t19.5 85h90q0 -115 -44.5 -170t-129.5 -55z" />
    <glyph glyph-name="umacron.sc" horiz-adv-x="1247" 
d="M364 1437h516v-121h-516v121zM625 -23q-119 0 -207.5 34t-147.5 94q-59 59 -88.5 139.5t-29.5 173.5v794h141v-780q0 -73 19 -134.5t60 -106.5q40 -45 103 -70t152 -25q86 0 148 24t103 68q40 44 59 105.5t19 136.5v782h142v-790q0 -94 -29 -175t-88 -141t-147.5 -94.5
t-208.5 -34.5z" />
    <glyph glyph-name="ubreve.sc" horiz-adv-x="1247" 
d="M625 -23q-119 0 -207.5 34t-147.5 94q-59 59 -88.5 139.5t-29.5 173.5v794h141v-780q0 -73 19 -134.5t60 -106.5q40 -45 103 -70t152 -25q86 0 148 24t103 68q40 44 59 105.5t19 136.5v782h142v-790q0 -94 -29 -175t-88 -141t-147.5 -94.5t-208.5 -34.5zM622 1308
q-68 0 -123 23.5t-94 67.5q-40 43 -63 105t-27 140h90q13 -120 69.5 -172t147.5 -52t147 52t70 172h90q-4 -78 -27 -140t-63 -105q-40 -44 -95 -67.5t-122 -23.5z" />
    </font>
</defs>
</svg>
